<svg width="295" height="110" viewBox="0 0 295 110" fill="none" xmlns="http://www.w3.org/2000/svg">
<g filter="url(#filter0_d_594_16053)">
<rect x="6" y="5" width="283" height="98" rx="15" fill="white"/>
</g>
<path d="M289 20C289 11.7157 282.284 5 274 5H170.167L134 103H274C282.284 103 289 96.2843 289 88V20Z" fill="#1E293B"/>
<path d="M55.3875 72.75H69.75V31.5C69.75 30.5054 69.3549 29.5516 68.6516 28.8484C67.9484 28.1451 66.9946 27.75 66 27.75H39.75" stroke="black" stroke-width="5" stroke-linecap="round" stroke-linejoin="round"/>
<path d="M32.25 57.75V69C32.25 69.9946 32.6451 70.9484 33.3483 71.6517C34.0516 72.3549 35.0054 72.75 36 72.75H39.2625" stroke="black" stroke-width="5" stroke-linecap="round" stroke-linejoin="round"/>
<path d="M76.7625 72.75H69.75V35.25H85.6875C86.5292 35.2189 87.3568 35.472 88.0371 35.9686C88.7174 36.4652 89.2107 37.1764 89.4375 37.9875L92.25 48.375L96.9 49.5375C97.732 49.7428 98.4686 50.2269 98.9872 50.9092C99.5058 51.5915 99.775 52.4309 99.75 53.2875V69C99.75 69.9946 99.3549 70.9484 98.6517 71.6517C97.9484 72.3549 96.9946 72.75 96 72.75H92.6625" stroke="black" stroke-width="5" stroke-linecap="round" stroke-linejoin="round"/>
<path d="M32.25 42.75H54.75M47.25 65.25C45.7666 65.25 44.3166 65.6899 43.0832 66.514C41.8499 67.3381 40.8886 68.5094 40.3209 69.8799C39.7532 71.2503 39.6047 72.7583 39.8941 74.2132C40.1835 75.668 40.8978 77.0044 41.9467 78.0533C42.9956 79.1022 44.332 79.8165 45.7868 80.1059C47.2417 80.3953 48.7497 80.2468 50.1201 79.6791C51.4906 79.1114 52.6619 78.1501 53.486 76.9168C54.3101 75.6834 54.75 74.2334 54.75 72.75C54.75 70.7609 53.9598 68.8532 52.5533 67.4467C51.1468 66.0402 49.2391 65.25 47.25 65.25ZM84.75 65.25C83.2666 65.25 81.8166 65.6899 80.5832 66.514C79.3499 67.3381 78.3886 68.5094 77.8209 69.8799C77.2532 71.2503 77.1047 72.7583 77.3941 74.2132C77.6835 75.668 78.3978 77.0044 79.4467 78.0533C80.4956 79.1022 81.832 79.8165 83.2868 80.1059C84.7417 80.3953 86.2497 80.2468 87.6201 79.6791C88.9906 79.1114 90.1619 78.1501 90.986 76.9168C91.8101 75.6834 92.25 74.2334 92.25 72.75C92.25 70.7609 91.4598 68.8532 90.0533 67.4467C88.6468 66.0402 86.7391 65.25 84.75 65.25Z" stroke="#FFA11D" stroke-width="5" stroke-linecap="round" stroke-linejoin="round"/>
<path d="M198.896 60.792L197.144 63.024L194.264 60.576C193.016 62.28 190.952 63.24 188.288 63.24C183.728 63.24 180.896 60.504 180.896 56.088V44.832H184.136V56.088C184.136 58.752 185.768 60.336 188.288 60.336C190.76 60.336 192.344 58.776 192.344 56.088V44.832H195.584V56.088C195.584 56.712 195.536 57.288 195.416 57.84L198.896 60.792ZM208.43 50.04C211.382 50.04 213.182 51.936 213.182 54.984V63H210.038V55.896C210.038 54.096 208.958 52.992 207.182 52.992C205.238 53.016 204.014 54.336 203.822 56.184V68.064H200.678V50.16H203.822V52.56C204.734 50.856 206.342 50.064 208.43 50.04ZM233.051 50.16H236.171V63H233.051V60.792C232.235 62.376 230.867 63.12 229.067 63.12C227.003 63.12 225.587 61.968 225.059 60.048C224.291 62.16 222.779 63.12 220.715 63.12C218.099 63.12 216.563 61.224 216.563 58.2V50.16H219.683V57.288C219.683 59.112 220.427 60.192 221.939 60.192C223.739 60.144 224.819 58.584 224.819 56.496V50.16H227.939V57.288C227.939 59.112 228.611 60.192 230.195 60.192C231.803 60.144 232.835 58.944 233.051 57.24V50.16ZM256.253 60.72V63H252.701V68.064H249.581V60.936C248.669 62.352 247.181 63.144 245.261 63.144C241.589 63.144 239.141 60.456 239.141 56.544C239.141 52.656 241.589 50.04 245.189 50.04C247.157 50.04 248.645 50.832 249.581 52.272V50.16H252.701V60.72H256.253ZM245.933 60.528C248.093 60.528 249.581 58.92 249.581 56.616C249.581 54.312 248.093 52.704 245.933 52.704C243.797 52.704 242.309 54.336 242.285 56.616C242.309 58.92 243.773 60.528 245.933 60.528Z" fill="white"/>
<defs>
<filter id="filter0_d_594_16053" x="0" y="0" width="295" height="110" filterUnits="userSpaceOnUse" color-interpolation-filters="sRGB">
<feFlood flood-opacity="0" result="BackgroundImageFix"/>
<feColorMatrix in="SourceAlpha" type="matrix" values="0 0 0 0 0 0 0 0 0 0 0 0 0 0 0 0 0 0 127 0" result="hardAlpha"/>
<feOffset dy="1"/>
<feGaussianBlur stdDeviation="3"/>
<feComposite in2="hardAlpha" operator="out"/>
<feColorMatrix type="matrix" values="0 0 0 0 0 0 0 0 0 0 0 0 0 0 0 0 0 0 0.08 0"/>
<feBlend mode="normal" in2="BackgroundImageFix" result="effect1_dropShadow_594_16053"/>
<feBlend mode="normal" in="SourceGraphic" in2="effect1_dropShadow_594_16053" result="shape"/>
</filter>
</defs>
</svg>
