<svg width="295" height="110" viewBox="0 0 295 110" fill="none" xmlns="http://www.w3.org/2000/svg">
<g filter="url(#filter0_d_594_16092)">
<rect x="6" y="5" width="283" height="98" rx="15" fill="white"/>
</g>
<path d="M289 20C289 11.7157 282.284 5 274 5H170.167L134 103H274C282.284 103 289 96.2843 289 88V20Z" fill="#1E293B"/>
<path d="M84.75 72.75V76.5C84.75 77.4946 84.3549 78.4484 83.6517 79.1517C82.9484 79.8549 81.9946 80.25 81 80.25H36C35.0054 80.25 34.0516 79.8549 33.3483 79.1517C32.6451 78.4484 32.25 77.4946 32.25 76.5V31.5C32.25 30.5054 32.6451 29.5516 33.3483 28.8484C34.0516 28.1451 35.0054 27.75 36 27.75H81" stroke="black" stroke-width="5" stroke-linecap="round" stroke-linejoin="round"/>
<path d="M99.75 42.75H84.75M81 57.75H99.75M51 27.75V50.25L58.5 46.5L66 50.25V27.75H51Z" stroke="#FFA11D" stroke-width="5" stroke-linecap="round" stroke-linejoin="round"/>
<path d="M182.896 60.792L181.144 63.024L178.264 60.576C177.016 62.28 174.952 63.24 172.288 63.24C167.728 63.24 164.896 60.504 164.896 56.088V44.832H168.136V56.088C168.136 58.752 169.768 60.336 172.288 60.336C174.76 60.336 176.344 58.776 176.344 56.088V44.832H179.584V56.088C179.584 56.712 179.536 57.288 179.416 57.84L182.896 60.792ZM200.926 50.16H204.046V68.064H200.926V60.792C200.11 62.376 198.742 63.12 196.942 63.12C194.878 63.12 193.462 61.968 192.934 60.048C192.166 62.16 190.654 63.12 188.59 63.12C185.974 63.12 184.438 61.224 184.438 58.2V50.16H187.558V57.288C187.558 59.112 188.302 60.192 189.814 60.192C191.614 60.144 192.694 58.584 192.694 56.496V50.16H195.814V57.288C195.814 59.112 196.486 60.192 198.07 60.192C199.678 60.144 200.71 58.944 200.926 57.24V50.16ZM224.2 50.16H227.32V63H224.2V60.792C223.384 62.376 222.016 63.12 220.216 63.12C218.152 63.12 216.736 61.968 216.208 60.048C215.44 62.16 213.928 63.12 211.864 63.12C209.248 63.12 207.712 61.224 207.712 58.2V50.16H210.832V57.288C210.832 59.112 211.576 60.192 213.088 60.192C214.888 60.144 215.968 58.584 215.968 56.496V50.16H219.088V57.288C219.088 59.112 219.76 60.192 221.344 60.192C222.952 60.144 223.984 58.944 224.2 57.24V50.16ZM239.001 50.04C241.929 50.04 243.729 51.936 243.729 54.984V63H240.609V55.896C240.609 54.096 239.529 52.992 237.753 52.992C235.641 53.016 234.369 54.576 234.369 56.688V63H231.225V44.832H234.369V52.608C235.281 50.856 236.889 50.064 239.001 50.04ZM255.126 50.04C258.078 50.04 259.878 51.936 259.878 54.984V63H256.734V55.896C256.734 54.096 255.654 52.992 253.878 52.992C251.934 53.016 250.71 54.336 250.518 56.184V63H247.374V50.16H250.518V52.56C251.43 50.856 253.038 50.064 255.126 50.04ZM275.523 65.784H279.051V68.064H272.379V60.624C271.491 62.328 269.955 63.12 267.915 63.12C265.035 63.12 263.259 61.224 263.259 58.2V50.16H266.379V57.288C266.379 59.088 267.435 60.168 269.139 60.168C271.179 60.144 272.379 58.56 272.379 56.496V44.832H275.523V65.784Z" fill="white"/>
<defs>
<filter id="filter0_d_594_16092" x="0" y="0" width="295" height="110" filterUnits="userSpaceOnUse" color-interpolation-filters="sRGB">
<feFlood flood-opacity="0" result="BackgroundImageFix"/>
<feColorMatrix in="SourceAlpha" type="matrix" values="0 0 0 0 0 0 0 0 0 0 0 0 0 0 0 0 0 0 127 0" result="hardAlpha"/>
<feOffset dy="1"/>
<feGaussianBlur stdDeviation="3"/>
<feComposite in2="hardAlpha" operator="out"/>
<feColorMatrix type="matrix" values="0 0 0 0 0 0 0 0 0 0 0 0 0 0 0 0 0 0 0.08 0"/>
<feBlend mode="normal" in2="BackgroundImageFix" result="effect1_dropShadow_594_16092"/>
<feBlend mode="normal" in="SourceGraphic" in2="effect1_dropShadow_594_16092" result="shape"/>
</filter>
</defs>
</svg>
