<svg width="295" height="110" viewBox="0 0 295 110" fill="none" xmlns="http://www.w3.org/2000/svg">
<g filter="url(#filter0_d_594_16078)">
<rect x="6" y="5" width="283" height="98" rx="15" fill="white"/>
</g>
<path d="M289 20C289 11.7157 282.284 5 274 5H170.167L134 103H274C282.284 103 289 96.2843 289 88V20Z" fill="#1E293B"/>
<path d="M72.75 27.75H54C53.0054 27.75 52.0516 28.1451 51.3484 28.8484C50.6451 29.5516 50.25 30.5054 50.25 31.5V42.75" stroke="#FFA11D" stroke-width="5" stroke-linecap="round" stroke-linejoin="round"/>
<path d="M50.25 57.75V65.25M61.5 87.75H39C38.0054 87.75 37.0516 87.3549 36.3483 86.6517C35.6451 85.9484 35.25 84.9946 35.25 84V61.5C35.25 60.5054 35.6451 59.5516 36.3483 58.8484C37.0516 58.1451 38.0054 57.75 39 57.75H61.5C62.4946 57.75 63.4484 58.1451 64.1516 58.8484C64.8549 59.5516 65.25 60.5054 65.25 61.5V84C65.25 84.9946 64.8549 85.9484 64.1516 86.6517C63.4484 87.3549 62.4946 87.75 61.5 87.75ZM95.25 20.25C93.2609 20.25 91.3532 21.0402 89.9467 22.4467C88.5402 23.8532 87.75 25.7609 87.75 27.75C87.75 34.0875 95.25 42.75 95.25 42.75C95.25 42.75 102.75 34.0875 102.75 27.75C102.75 25.7609 101.96 23.8532 100.553 22.4467C99.1468 21.0402 97.2391 20.25 95.25 20.25Z" stroke="black" stroke-width="5" stroke-linecap="round" stroke-linejoin="round"/>
<path d="M180.048 53.136C183.048 54.12 183.528 56.376 183.456 58.104V63H180.24V57.84V57.816C180.24 56.208 179.208 54.672 175.128 54.672H170.592V51.84H175.056C177.624 51.84 179.664 51.552 179.664 49.584C179.664 48.264 178.272 47.568 175.632 47.568H175.608H169.896V44.736H175.512H175.584H175.608C181.032 44.784 182.856 46.344 182.856 49.56C182.856 51.408 181.488 52.848 180.048 53.136ZM194.384 50.04C197.336 50.04 199.136 51.936 199.136 54.984V63H195.992V55.896C195.992 54.096 194.912 52.992 193.136 52.992C191.192 53.016 189.968 54.336 189.776 56.184V63H186.632V50.16H189.776V52.56C190.688 50.856 192.296 50.064 194.384 50.04ZM204.557 60.72H208.085V63H201.413V50.16H204.557V60.72ZM220.308 50.16H223.452V63H220.308V60.624C219.42 62.328 217.884 63.12 215.844 63.12C212.964 63.12 211.188 61.224 211.188 58.2V50.16H214.308V57.288C214.308 59.088 215.364 60.168 217.068 60.168C219.108 60.144 220.308 58.56 220.308 56.496V50.16ZM243.59 50.16H246.71V63H243.59V60.792C242.774 62.376 241.406 63.12 239.606 63.12C237.542 63.12 236.126 61.968 235.598 60.048C234.83 62.16 233.318 63.12 231.254 63.12C228.638 63.12 227.102 61.224 227.102 58.2V50.16H230.222V57.288C230.222 59.112 230.966 60.192 232.478 60.192C234.278 60.144 235.358 58.584 235.358 56.496V50.16H238.478V57.288C238.478 59.112 239.15 60.192 240.734 60.192C242.342 60.144 243.374 58.944 243.59 57.24V50.16ZM253.76 65.784H257.312V68.064H250.616V50.16H253.76V65.784ZM266.969 50.04C269.921 50.04 271.721 51.936 271.721 54.984V63H268.577V55.896C268.577 54.096 267.497 52.992 265.721 52.992C263.777 53.016 262.553 54.336 262.361 56.184V68.064H259.217V44.832H262.361V52.56C263.273 50.856 264.881 50.064 266.969 50.04Z" fill="white"/>
<defs>
<filter id="filter0_d_594_16078" x="0" y="0" width="295" height="110" filterUnits="userSpaceOnUse" color-interpolation-filters="sRGB">
<feFlood flood-opacity="0" result="BackgroundImageFix"/>
<feColorMatrix in="SourceAlpha" type="matrix" values="0 0 0 0 0 0 0 0 0 0 0 0 0 0 0 0 0 0 127 0" result="hardAlpha"/>
<feOffset dy="1"/>
<feGaussianBlur stdDeviation="3"/>
<feComposite in2="hardAlpha" operator="out"/>
<feColorMatrix type="matrix" values="0 0 0 0 0 0 0 0 0 0 0 0 0 0 0 0 0 0 0.08 0"/>
<feBlend mode="normal" in2="BackgroundImageFix" result="effect1_dropShadow_594_16078"/>
<feBlend mode="normal" in="SourceGraphic" in2="effect1_dropShadow_594_16078" result="shape"/>
</filter>
</defs>
</svg>
