<svg width="25" height="24" viewBox="0 0 25 24" fill="none" xmlns="http://www.w3.org/2000/svg">
<path d="M9.46779 21.75H8.21998C8.0946 21.75 7.97123 21.7185 7.86115 21.6585C7.75108 21.5984 7.6578 21.5118 7.58987 21.4064C7.52193 21.301 7.4815 21.1803 7.47226 21.0552C7.46303 20.9302 7.48529 20.8048 7.53701 20.6906L10.5586 14.0227L6.02154 13.9219L4.36685 15.9267C4.05138 16.3233 3.79966 16.5 3.15748 16.5H2.31748C2.18448 16.5043 2.05241 16.4764 1.93246 16.4188C1.81251 16.3612 1.70822 16.2755 1.62841 16.1691C1.51685 16.0186 1.40716 15.7636 1.51404 15.3998L2.4431 12.0717C2.45013 12.0469 2.45857 12.022 2.46795 11.9977C2.46841 11.9953 2.46841 11.9929 2.46795 11.9906C2.45826 11.9663 2.44997 11.9414 2.4431 11.9161L1.5131 8.56687C1.41232 8.21016 1.52248 7.96078 1.6331 7.81406C1.70739 7.71549 1.80376 7.63573 1.91448 7.58118C2.02521 7.52664 2.14718 7.49883 2.2706 7.5H3.15748C3.63701 7.5 4.10248 7.71516 4.37623 8.0625L5.9967 10.0336L10.5586 9.96609L7.53795 3.30984C7.48615 3.19568 7.46381 3.07036 7.47295 2.94533C7.48208 2.8203 7.52242 2.69956 7.59026 2.59414C7.6581 2.48872 7.75128 2.40198 7.86129 2.34186C7.97129 2.28175 8.09461 2.25016 8.21998 2.25H9.48138C9.65736 2.25354 9.83029 2.29667 9.98731 2.3762C10.1443 2.45572 10.2814 2.5696 10.3884 2.70937L16.2502 9.83438L18.9581 9.76312C19.1564 9.75234 19.7058 9.74859 19.8328 9.74859C22.4231 9.75 23.97 10.5909 23.97 12C23.97 12.4434 23.7928 13.2656 22.6074 13.7887C21.9075 14.0981 20.9738 14.2547 19.8319 14.2547C19.7063 14.2547 19.1583 14.2509 18.9572 14.2402L16.2497 14.168L10.3734 21.293C10.2663 21.4321 10.1294 21.5454 9.97262 21.6246C9.81586 21.7037 9.64334 21.7465 9.46779 21.75Z" fill="black"/>
</svg>
