<svg width="22" height="13" viewBox="0 0 22 13" fill="none" xmlns="http://www.w3.org/2000/svg">
<g clip-path="url(#clip0_100_16989)">
<g clip-path="url(#clip1_100_16989)">
<mask id="mask0_100_16989" style="mask-type:luminance" maskUnits="userSpaceOnUse" x="0" y="0" width="22" height="13">
<path d="M20.8 0H0.866667C0.38802 0 0 0.38802 0 0.866667V12.1333C0 12.612 0.38802 13 0.866667 13H20.8C21.2786 13 21.6667 12.612 21.6667 12.1333V0.866667C21.6667 0.38802 21.2786 0 20.8 0Z" fill="white"/>
</mask>
<g mask="url(#mask0_100_16989)">
<path d="M0 0H21.6667V13H0V0Z" fill="#E74C3C"/>
<path d="M3.52689 1.51465L3.96164 2.71814H5.36889L4.23052 3.4636L4.66424 4.66896L3.52689 3.92349L2.38748 4.66896L2.82222 3.4636L1.68384 2.71814H3.09111L3.52689 1.51465Z" fill="#F1C40F"/>
<path d="M7.19433 0.884766L7.16551 1.30107L7.59507 1.45499L7.14696 1.55791L7.11602 1.97421L6.86881 1.62188L6.42065 1.7248L6.71632 1.40399L6.46906 1.05166L6.89866 1.2065L7.19433 0.884766Z" fill="#F1C40F"/>
<path d="M8.77582 2.23459L8.56466 2.60547L8.89122 2.90124L8.43483 2.83448L8.22263 3.20629L8.15148 2.79369L7.69409 2.72782L8.10615 2.5396L8.03612 2.12793L8.36164 2.42278L8.77582 2.23459Z" fill="#F1C40F"/>
<path d="M8.30089 3.9242L8.44203 4.32104L8.90665 4.32178L8.5306 4.56564L8.67382 4.96245L8.29985 4.7177L7.9238 4.96245L8.06806 4.56564L7.69409 4.32085L8.15663 4.32159L8.30089 3.9242Z" fill="#F1C40F"/>
<path d="M7.19221 5.19629L7.16132 5.61259L7.59192 5.76742L7.14277 5.86943L7.11291 6.28573L6.8657 5.93339L6.4165 6.03631L6.71217 5.71646L6.46495 5.36317L6.89555 5.51804L7.19221 5.19629Z" fill="#F1C40F"/>
</g>
</g>
</g>
<defs>
<clipPath id="clip0_100_16989">
<rect width="21.6667" height="13" fill="white"/>
</clipPath>
<clipPath id="clip1_100_16989">
<rect width="21.6667" height="13" fill="white"/>
</clipPath>
</defs>
</svg>
