<svg width="72" height="43" viewBox="0 0 72 43" fill="none" xmlns="http://www.w3.org/2000/svg">
<g clip-path="url(#clip0_17_7574)">
<g clip-path="url(#clip1_17_7574)">
<g clip-path="url(#clip2_17_7574)">
<mask id="mask0_17_7574" style="mask-type:luminance" maskUnits="userSpaceOnUse" x="0" y="0" width="72" height="43">
<path d="M68.4723 0H3.18197C1.6142 0 0.343262 1.27093 0.343262 2.83871V39.7419C0.343262 41.3097 1.6142 42.5806 3.18197 42.5806H68.4723C70.0401 42.5806 71.311 41.3097 71.311 39.7419V2.83871C71.311 1.27093 70.0401 0 68.4723 0Z" fill="white"/>
</mask>
<g mask="url(#mask0_17_7574)">
<path d="M0.343262 0H71.311V42.5806H0.343262V0Z" fill="#E74C3C"/>
<path d="M11.8954 4.96069L13.3194 8.90265H17.9288L14.2001 11.3444L15.6208 15.2924L11.8954 12.8507L8.16336 15.2924L9.58734 11.3444L5.85864 8.90265H10.4681L11.8954 4.96069Z" fill="#F1C40F"/>
<path d="M23.9079 2.89819L23.8135 4.26178L25.2205 4.76592L23.7528 5.10302L23.6514 6.46661L22.8417 5.31257L21.3738 5.64967L22.3422 4.59888L21.5323 3.44484L22.9395 3.95201L23.9079 2.89819Z" fill="#F1C40F"/>
<path d="M29.0876 7.32008L28.3959 8.53486L29.4655 9.50364L27.9707 9.28498L27.2756 10.5028L27.0426 9.15136L25.5444 8.93562L26.8941 8.31912L26.6647 6.9707L27.731 7.93646L29.0876 7.32008Z" fill="#F1C40F"/>
<path d="M27.532 12.853L27.9942 14.1528L29.5161 14.1553L28.2844 14.954L28.7535 16.2537L27.5285 15.4521L26.2968 16.2537L26.7693 14.954L25.5444 14.1522L27.0595 14.1547L27.532 12.853Z" fill="#F1C40F"/>
<path d="M23.9014 17.0198L23.8002 18.3833L25.2106 18.8905L23.7394 19.2246L23.6416 20.5882L22.8319 19.4341L21.3606 19.7712L22.329 18.7236L21.5193 17.5664L22.9297 18.0736L23.9014 17.0198Z" fill="#F1C40F"/>
</g>
</g>
</g>
</g>
<defs>
<clipPath id="clip0_17_7574">
<rect width="70.9677" height="42.5806" fill="white" transform="translate(0.343262)"/>
</clipPath>
<clipPath id="clip1_17_7574">
<rect width="70.9677" height="42.5806" fill="white" transform="translate(0.343262)"/>
</clipPath>
<clipPath id="clip2_17_7574">
<rect width="70.9677" height="42.5806" fill="white" transform="translate(0.343262)"/>
</clipPath>
</defs>
</svg>
