<svg width="72" height="43" viewBox="0 0 72 43" fill="none" xmlns="http://www.w3.org/2000/svg">
<g clip-path="url(#clip0_17_7457)">
<g clip-path="url(#clip1_17_7457)">
<g clip-path="url(#clip2_17_7457)">
<mask id="mask0_17_7457" style="mask-type:luminance" maskUnits="userSpaceOnUse" x="0" y="0" width="72" height="43">
<path d="M69.0245 0H3.73422C2.16644 0 0.895508 1.27093 0.895508 2.83871V39.7419C0.895508 41.3097 2.16644 42.5806 3.73422 42.5806H69.0245C70.5923 42.5806 71.8633 41.3097 71.8633 39.7419V2.83871C71.8633 1.27093 70.5923 0 69.0245 0Z" fill="white"/>
</mask>
<g mask="url(#mask0_17_7457)">
<path d="M71.8633 0H0.895508V42.5806H71.8633V0Z" fill="#B22234"/>
<path fill-rule="evenodd" clip-rule="evenodd" d="M71.8633 6.19492H0.895508V2.84009H71.8633V6.19492ZM0.895508 9.54976H71.8633V12.9046H0.895508V9.54976ZM71.8633 19.6143H0.895508V16.2594H71.8633V19.6143ZM0.895508 22.9691H71.8633V26.3239H0.895508V22.9691ZM71.8633 33.0336H0.895508V29.6788H71.8633V33.0336ZM0.895508 36.3884H71.8633V39.7433H0.895508V36.3884Z" fill="white"/>
<path d="M33.2568 0H0.895508V22.928H33.2568V0Z" fill="#3C3B6E"/>
<path d="M3.59052 0.785889L4.36063 3.15601L2.34448 1.69119H4.83657L2.82042 3.15601L3.59052 0.785889Z" fill="white"/>
<path d="M8.96529 0.785889L9.73539 3.15601L7.71924 1.69119H10.2113L8.19519 3.15601L8.96529 0.785889Z" fill="white"/>
<path d="M14.3398 0.785889L15.11 3.15601L13.0938 1.69119H15.5859L13.5697 3.15601L14.3398 0.785889Z" fill="white"/>
<path d="M30.4633 0.785889L31.2335 3.15601L29.2173 1.69119H31.7094L29.6932 3.15601L30.4633 0.785889Z" fill="white"/>
<path d="M25.0888 0.785889L25.859 3.15601L23.8428 1.69119H26.3349L24.3187 3.15601L25.0888 0.785889Z" fill="white"/>
<path d="M19.7143 0.785889L20.4845 3.15601L18.4683 1.69119H20.9604L18.9442 3.15601L19.7143 0.785889Z" fill="white"/>
<path d="M3.59052 5.52637L4.36063 7.89651L2.34448 6.43167H4.83657L2.82042 7.89651L3.59052 5.52637Z" fill="white"/>
<path d="M8.96529 5.52637L9.73539 7.89651L7.71924 6.43167H10.2113L8.19519 7.89651L8.96529 5.52637Z" fill="white"/>
<path d="M14.3398 5.52637L15.11 7.89651L13.0938 6.43167H15.5859L13.5697 7.89651L14.3398 5.52637Z" fill="white"/>
<path d="M30.4633 5.52637L31.2335 7.89651L29.2173 6.43167H31.7094L29.6932 7.89651L30.4633 5.52637Z" fill="white"/>
<path d="M25.0888 5.52637L25.859 7.89651L23.8428 6.43167H26.3349L24.3187 7.89651L25.0888 5.52637Z" fill="white"/>
<path d="M19.7143 5.52637L20.4845 7.89651L18.4683 6.43167H20.9604L18.9442 7.89651L19.7143 5.52637Z" fill="white"/>
<path d="M3.59052 10.2664L4.36063 12.6365L2.34448 11.1717H4.83657L2.82042 12.6365L3.59052 10.2664Z" fill="white"/>
<path d="M8.96529 10.2664L9.73539 12.6365L7.71924 11.1717H10.2113L8.19519 12.6365L8.96529 10.2664Z" fill="white"/>
<path d="M14.3398 10.2664L15.11 12.6365L13.0938 11.1717H15.5859L13.5697 12.6365L14.3398 10.2664Z" fill="white"/>
<path d="M30.4633 10.2664L31.2335 12.6365L29.2173 11.1717H31.7094L29.6932 12.6365L30.4633 10.2664Z" fill="white"/>
<path d="M25.0888 10.2664L25.859 12.6365L23.8428 11.1717H26.3349L24.3187 12.6365L25.0888 10.2664Z" fill="white"/>
<path d="M19.7143 10.2664L20.4845 12.6365L18.4683 11.1717H20.9604L18.9442 12.6365L19.7143 10.2664Z" fill="white"/>
<path d="M3.59052 15.0068L4.36063 17.3769L2.34448 15.9121H4.83657L2.82042 17.3769L3.59052 15.0068Z" fill="white"/>
<path d="M8.96529 15.0068L9.73539 17.3769L7.71924 15.9121H10.2113L8.19519 17.3769L8.96529 15.0068Z" fill="white"/>
<path d="M14.3398 15.0068L15.11 17.3769L13.0938 15.9121H15.5859L13.5697 17.3769L14.3398 15.0068Z" fill="white"/>
<path d="M30.4633 15.0068L31.2335 17.3769L29.2173 15.9121H31.7094L29.6932 17.3769L30.4633 15.0068Z" fill="white"/>
<path d="M25.0888 15.0068L25.859 17.3769L23.8428 15.9121H26.3349L24.3187 17.3769L25.0888 15.0068Z" fill="white"/>
<path d="M19.7143 15.0068L20.4845 17.3769L18.4683 15.9121H20.9604L18.9442 17.3769L19.7143 15.0068Z" fill="white"/>
<path d="M3.59052 19.7468L4.36063 22.117L2.34448 20.6522H4.83657L2.82042 22.117L3.59052 19.7468Z" fill="white"/>
<path d="M8.96529 19.7468L9.73539 22.117L7.71924 20.6522H10.2113L8.19519 22.117L8.96529 19.7468Z" fill="white"/>
<path d="M14.3398 19.7468L15.11 22.117L13.0938 20.6522H15.5859L13.5697 22.117L14.3398 19.7468Z" fill="white"/>
<path d="M30.4633 19.7468L31.2335 22.117L29.2173 20.6522H31.7094L29.6932 22.117L30.4633 19.7468Z" fill="white"/>
<path d="M25.0888 19.7468L25.859 22.117L23.8428 20.6522H26.3349L24.3187 22.117L25.0888 19.7468Z" fill="white"/>
<path d="M19.7143 19.7468L20.4845 22.117L18.4683 20.6522H20.9604L18.9442 22.117L19.7143 19.7468Z" fill="white"/>
<path d="M6.2668 3.15601L7.0369 5.52613L5.02075 4.06131H7.51286L5.4967 5.52613L6.2668 3.15601Z" fill="white"/>
<path d="M11.6413 3.15601L12.4114 5.52613L10.3953 4.06131H12.8874L10.8712 5.52613L11.6413 3.15601Z" fill="white"/>
<path d="M17.0158 3.15601L17.786 5.52613L15.7698 4.06131H18.2619L16.2458 5.52613L17.0158 3.15601Z" fill="white"/>
<path d="M27.7651 3.15601L28.5352 5.52613L26.519 4.06131H29.0111L26.9951 5.52613L27.7651 3.15601Z" fill="white"/>
<path d="M22.3906 3.15601L23.1607 5.52613L21.1445 4.06131H23.6366L21.6206 5.52613L22.3906 3.15601Z" fill="white"/>
<path d="M6.2668 7.89624L7.0369 10.2664L5.02075 8.80155H7.51286L5.4967 10.2664L6.2668 7.89624Z" fill="white"/>
<path d="M11.6413 7.89624L12.4114 10.2664L10.3953 8.80155H12.8874L10.8712 10.2664L11.6413 7.89624Z" fill="white"/>
<path d="M17.0158 7.89624L17.786 10.2664L15.7698 8.80155H18.2619L16.2458 10.2664L17.0158 7.89624Z" fill="white"/>
<path d="M27.7651 7.89624L28.5352 10.2664L26.519 8.80155H29.0111L26.9951 10.2664L27.7651 7.89624Z" fill="white"/>
<path d="M22.3906 7.89624L23.1607 10.2664L21.1445 8.80155H23.6366L21.6206 10.2664L22.3906 7.89624Z" fill="white"/>
<path d="M6.2668 12.6367L7.0369 15.0069L5.02075 13.542H7.51286L5.4967 15.0069L6.2668 12.6367Z" fill="white"/>
<path d="M11.6413 12.6367L12.4114 15.0069L10.3953 13.542H12.8874L10.8712 15.0069L11.6413 12.6367Z" fill="white"/>
<path d="M17.0158 12.6367L17.786 15.0069L15.7698 13.542H18.2619L16.2458 15.0069L17.0158 12.6367Z" fill="white"/>
<path d="M27.7651 12.6367L28.5352 15.0069L26.519 13.542H29.0111L26.9951 15.0069L27.7651 12.6367Z" fill="white"/>
<path d="M22.3906 12.6367L23.1607 15.0069L21.1445 13.542H23.6366L21.6206 15.0069L22.3906 12.6367Z" fill="white"/>
<path d="M6.2668 17.377L7.0369 19.7471L5.02075 18.2824H7.51286L5.4967 19.7471L6.2668 17.377Z" fill="white"/>
<path d="M11.6413 17.377L12.4114 19.7471L10.3953 18.2824H12.8874L10.8712 19.7471L11.6413 17.377Z" fill="white"/>
<path d="M17.0158 17.377L17.786 19.7471L15.7698 18.2824H18.2619L16.2458 19.7471L17.0158 17.377Z" fill="white"/>
<path d="M27.7651 17.377L28.5352 19.7471L26.519 18.2824H29.0111L26.9951 19.7471L27.7651 17.377Z" fill="white"/>
<path d="M22.3906 17.377L23.1607 19.7471L21.1445 18.2824H23.6366L21.6206 19.7471L22.3906 17.377Z" fill="white"/>
</g>
</g>
</g>
</g>
<defs>
<clipPath id="clip0_17_7457">
<rect width="70.9677" height="42.5806" fill="white" transform="translate(0.895508)"/>
</clipPath>
<clipPath id="clip1_17_7457">
<rect width="70.9677" height="42.5806" fill="white" transform="translate(0.895508)"/>
</clipPath>
<clipPath id="clip2_17_7457">
<rect width="70.9677" height="42.5806" fill="white" transform="translate(0.895508)"/>
</clipPath>
</defs>
</svg>
