<svg width="34" height="34" viewBox="0 0 34 34" fill="none" xmlns="http://www.w3.org/2000/svg">
<g clip-path="url(#clip0_24_4613)">
<path d="M27.371 23.3982C26.539 23.6472 25.7213 24.0797 24.8996 24.8979L24.8985 24.8989C23.8277 25.9774 23.4075 27.0486 23.2215 28.1545C23.038 29.2599 23.1291 30.3916 23.1483 31.4747C23.1503 31.6556 23.1509 31.8365 23.1468 32.0159L32.0175 23.1446C31.7354 23.1512 31.4518 23.1471 31.1652 23.14C29.9182 23.1029 28.6166 23.0267 27.371 23.3982Z" fill="#1E293B"/>
<path d="M17.0005 0C7.61142 0 0.00053125 7.61042 0 16.999C0.00053125 26.3886 7.61142 33.9995 17.0005 33.9995C18.4062 33.9995 19.7677 33.8175 21.0743 33.4954C21.2426 33.3098 21.3492 33.0807 21.4179 32.7107C21.4885 32.323 21.4941 31.8061 21.4768 31.2095C21.4484 30.0152 21.3304 28.5018 21.802 26.8979C22.1161 25.8296 22.7082 24.7318 23.721 23.722C23.721 23.7215 23.7216 23.7215 23.7221 23.721C25.047 22.3885 26.5254 21.7955 27.8864 21.5774C29.2494 21.3563 30.5046 21.4702 31.5017 21.4824C32.1655 21.4956 32.7062 21.4549 33.0568 21.3294C33.2418 21.2638 33.3755 21.1815 33.4964 21.0712C33.8181 19.7657 34 18.4042 34 16.999C34 7.61042 26.3891 0 17.0005 0ZM9.71132 16.0242C9.67931 15.9327 9.65241 15.8768 9.63057 15.8301C9.56496 15.6909 9.54318 15.6441 9.54318 14.7207C9.54318 13.7983 9.56502 13.7521 9.63057 13.6133C9.65241 13.5655 9.67931 13.5091 9.71085 13.4181C10.0356 12.4668 10.9336 11.8986 12.1126 11.8986C13.2927 11.8986 14.1907 12.4668 14.5134 13.4172C14.546 13.5096 14.5724 13.5666 14.5947 13.6138C14.6608 13.7531 14.6832 13.7998 14.6832 14.7207C14.6832 15.6431 14.6608 15.6898 14.5942 15.8291C14.5724 15.8763 14.546 15.9323 14.5134 16.0232C14.1907 16.9766 13.2927 17.5448 12.1126 17.5448C10.9336 17.5448 10.0356 16.9766 9.71132 16.0242ZM14.7618 23.4735C14.6526 23.7104 14.4143 23.8628 14.1546 23.8628H13.6824C13.4527 23.8628 13.2423 23.7474 13.1194 23.5548C12.9954 23.3628 12.978 23.1239 13.0736 22.915L18.6623 10.7567C18.7711 10.5199 19.0095 10.3674 19.2707 10.3674H19.7428C19.9715 10.3674 20.1819 10.4818 20.3054 10.6749C20.4295 10.8674 20.4462 11.1068 20.3512 11.3147L14.7618 23.4735ZM23.7922 20.616C23.7698 20.6637 23.7434 20.7196 23.7119 20.8095C23.3881 21.7625 22.4907 22.3312 21.31 22.3312C20.1305 22.3312 19.233 21.7625 18.9088 20.8106C18.8772 20.7196 18.8503 20.6637 18.8285 20.6169C18.763 20.4782 18.7411 20.4315 18.7411 19.5076C18.7411 18.5847 18.763 18.5379 18.828 18.3997C18.8504 18.3524 18.8773 18.2961 18.9083 18.204C19.233 17.2531 20.1305 16.6855 21.3101 16.6855C22.4907 16.6855 23.3881 17.2531 23.7114 18.204C23.7434 18.2965 23.7704 18.3529 23.7922 18.3997C23.8582 18.539 23.8802 18.5857 23.8802 19.5076C23.8801 20.4304 23.8582 20.4772 23.7922 20.616Z" fill="#1E293B"/>
<path d="M22.0572 18.5201C21.9683 18.207 21.6893 18.0215 21.3102 18.0215C20.9321 18.0215 20.6526 18.207 20.5448 18.5312C20.4645 18.5592 20.463 18.5597 20.463 19.5075C20.463 20.4538 20.4645 20.4548 20.5621 20.4954C20.6531 20.8085 20.9321 20.993 21.3102 20.993C21.6893 20.993 21.9678 20.8086 22.0755 20.4853C22.1558 20.4548 22.1574 20.4537 22.1574 19.5075C22.1574 18.5597 22.1558 18.5592 22.0572 18.5201Z" fill="#1E293B"/>
<path d="M12.8592 13.7345C12.7708 13.4214 12.4913 13.2354 12.1127 13.2354C11.7336 13.2354 11.4546 13.4214 11.3478 13.7451C11.267 13.773 11.265 13.7741 11.265 14.7209C11.265 15.6687 11.267 15.6687 11.3646 15.7089C11.4551 16.0219 11.7336 16.2074 12.1127 16.2074C12.4913 16.2074 12.7703 16.0219 12.8776 15.6992C12.9578 15.6687 12.9594 15.6687 12.9594 14.7209C12.9594 13.7741 12.9578 13.773 12.8592 13.7345Z" fill="#1E293B"/>
</g>
<defs>
<clipPath id="clip0_24_4613">
<rect width="34" height="34" fill="white"/>
</clipPath>
</defs>
</svg>
