<svg width="34" height="34" viewBox="0 0 34 34" fill="none" xmlns="http://www.w3.org/2000/svg">
<path d="M33.15 22.1004H32.3V16.3576C32.3 15.6829 32.0291 15.0348 31.5509 14.5566L26.2438 9.24945C25.7656 8.77133 25.1175 8.50039 24.4428 8.50039H22.1V5.95039C22.1 4.54258 20.9578 3.40039 19.55 3.40039H5.95C4.54219 3.40039 3.4 4.54258 3.4 5.95039V8.50039H0.425C0.19125 8.50039 0 8.69164 0 8.92539V9.77539C0 10.0091 0.19125 10.2004 0.425 10.2004H14.875C15.1088 10.2004 15.3 10.3916 15.3 10.6254V11.4754C15.3 11.7091 15.1088 11.9004 14.875 11.9004H2.125C1.89125 11.9004 1.7 12.0916 1.7 12.3254V13.1754C1.7 13.4091 1.89125 13.6004 2.125 13.6004H13.175C13.4088 13.6004 13.6 13.7916 13.6 14.0254V14.8754C13.6 15.1091 13.4088 15.3004 13.175 15.3004H0.425C0.19125 15.3004 0 15.4916 0 15.7254V16.5754C0 16.8091 0.19125 17.0004 0.425 17.0004H11.475C11.7088 17.0004 11.9 17.1916 11.9 17.4254V18.2754C11.9 18.5091 11.7088 18.7004 11.475 18.7004H3.4V25.5004C3.4 28.316 5.68438 30.6004 8.5 30.6004C11.3156 30.6004 13.6 28.316 13.6 25.5004H20.4C20.4 28.316 22.6844 30.6004 25.5 30.6004C28.3156 30.6004 30.6 28.316 30.6 25.5004H33.15C33.6175 25.5004 34 25.1179 34 24.6504V22.9504C34 22.4829 33.6175 22.1004 33.15 22.1004ZM8.5 28.0504C7.09219 28.0504 5.95 26.9082 5.95 25.5004C5.95 24.0926 7.09219 22.9504 8.5 22.9504C9.90781 22.9504 11.05 24.0926 11.05 25.5004C11.05 26.9082 9.90781 28.0504 8.5 28.0504ZM25.5 28.0504C24.0922 28.0504 22.95 26.9082 22.95 25.5004C22.95 24.0926 24.0922 22.9504 25.5 22.9504C26.9078 22.9504 28.05 24.0926 28.05 25.5004C28.05 26.9082 26.9078 28.0504 25.5 28.0504ZM29.75 17.0004H22.1V11.0504H24.4428L29.75 16.3576V17.0004Z" fill="#1E293B"/>
</svg>
