<svg width="186" height="62" viewBox="0 0 186 62" fill="none" xmlns="http://www.w3.org/2000/svg">
<rect width="186" height="62" rx="9.3" fill="black"/>
<path d="M27.5974 30.1656L12.5388 46.5092C12.5402 46.5121 12.5402 46.5164 12.5416 46.5193C13.0041 48.2939 14.5882 49.6 16.4693 49.6C17.2217 49.6 17.9275 49.3917 18.5328 49.0272L18.5809 48.9983L35.5305 38.9969L27.5974 30.1656Z" fill="#EA4335"/>
<path d="M42.8312 27.3826L42.8171 27.3724L35.4992 23.0349L27.255 30.537L35.529 38.9952L42.8072 34.701C44.0829 33.9952 44.9499 32.6197 44.9499 31.0346C44.9499 29.458 44.0957 28.0898 42.8312 27.3826Z" fill="#FBBC04"/>
<path d="M12.5386 15.4897C12.4481 15.831 12.4 16.1897 12.4 16.56V45.4404C12.4 45.8107 12.4481 46.1694 12.54 46.5092L28.1149 30.5837L12.5386 15.4897Z" fill="#4285F4"/>
<path d="M27.7086 30.9998L35.5017 23.0319L18.5719 12.9944C17.9567 12.6169 17.2382 12.3999 16.4702 12.3999C14.5891 12.3999 13.0022 13.7089 12.5397 15.485C12.5397 15.4864 12.5383 15.4878 12.5383 15.4893L27.7086 30.9998Z" fill="#34A853"/>
<path d="M72.0041 16.144C72.0041 17.544 71.5888 18.6593 70.7581 19.49C69.8248 20.4793 68.5974 20.974 67.0761 20.974C65.6201 20.974 64.3881 20.47 63.3801 19.462C62.3721 18.454 61.8681 17.2127 61.8681 15.738C61.8681 14.2633 62.3721 13.022 63.3801 12.014C64.3881 11.006 65.6201 10.502 67.0761 10.502C67.8134 10.502 68.5088 10.6327 69.1621 10.894C69.8154 11.1553 70.3521 11.524 70.7721 12L69.8481 12.924C69.5401 12.5507 69.1388 12.2613 68.6441 12.056C68.1588 11.8413 67.6361 11.734 67.0761 11.734C65.9841 11.734 65.0601 12.112 64.3041 12.868C63.5574 13.6333 63.1841 14.59 63.1841 15.738C63.1841 16.886 63.5574 17.8427 64.3041 18.608C65.0601 19.364 65.9841 19.742 67.0761 19.742C68.0748 19.742 68.9054 19.462 69.5681 18.902C70.2308 18.342 70.6134 17.572 70.7161 16.592H67.0761V15.388H71.9341C71.9808 15.6493 72.0041 15.9013 72.0041 16.144ZM79.421 10.726V11.958H74.857V15.136H78.973V16.34H74.857V19.518H79.421V20.75H73.569V10.726H79.421ZM84.5729 11.958V20.75H83.2849V11.958H80.4849V10.726H87.3729V11.958H84.5729ZM93.0816 20.75H91.7936V10.726H93.0816V20.75ZM98.5182 11.958V20.75H97.2302V11.958H94.4302V10.726H101.318V11.958H98.5182ZM115.28 15.738C115.28 17.222 114.785 18.4633 113.796 19.462C112.797 20.47 111.574 20.974 110.128 20.974C108.672 20.974 107.449 20.47 106.46 19.462C105.47 18.4633 104.976 17.222 104.976 15.738C104.976 14.254 105.47 13.0127 106.46 12.014C107.449 11.006 108.672 10.502 110.128 10.502C111.584 10.502 112.806 11.0107 113.796 12.028C114.785 13.0267 115.28 14.2633 115.28 15.738ZM106.292 15.738C106.292 16.8953 106.656 17.852 107.384 18.608C108.121 19.364 109.036 19.742 110.128 19.742C111.22 19.742 112.13 19.364 112.858 18.608C113.595 17.8613 113.964 16.9047 113.964 15.738C113.964 14.5713 113.595 13.6147 112.858 12.868C112.13 12.112 111.22 11.734 110.128 11.734C109.036 11.734 108.121 12.112 107.384 12.868C106.656 13.624 106.292 14.5807 106.292 15.738ZM118.088 20.75H116.8V10.726H118.368L123.24 18.524H123.296L123.24 16.592V10.726H124.528V20.75H123.184L118.088 12.574H118.032L118.088 14.506V20.75Z" fill="white"/>
<path d="M144.953 42.085H147.478V25.0171H144.953V42.085ZM167.693 31.1651L164.799 38.5652H164.712L161.708 31.1651H158.989L163.493 41.5074L160.926 47.2609H163.558L170.5 31.1651H167.693ZM153.375 40.1462C152.547 40.1462 151.395 39.7298 151.395 38.6962C151.395 37.3801 152.83 36.8749 154.071 36.8749C155.18 36.8749 155.704 37.1166 156.378 37.4456C156.181 39.0266 154.833 40.1462 153.375 40.1462ZM153.68 30.7924C151.852 30.7924 149.958 31.6048 149.176 33.4056L151.416 34.3491C151.895 33.4056 152.787 33.0971 153.723 33.0971C155.029 33.0971 156.356 33.8876 156.378 35.2939V35.4686C155.92 35.2051 154.942 34.8105 153.745 34.8105C151.33 34.8105 148.87 36.1499 148.87 38.6525C148.87 40.9367 150.851 42.4085 153.07 42.4085C154.768 42.4085 155.704 41.6399 156.291 40.7388H156.378V42.0563H158.814V35.5123C158.814 32.4827 156.574 30.7924 153.68 30.7924ZM138.077 33.2432H134.486V27.3928H138.077C139.965 27.3928 141.036 28.9697 141.036 30.3173C141.036 31.6403 139.965 33.2432 138.077 33.2432ZM138.012 25.0171H131.963V42.085H134.486V35.6188H138.012C140.81 35.6188 143.561 33.5736 143.561 30.3173C143.561 27.061 140.81 25.0171 138.012 25.0171ZM105.025 40.1489C103.281 40.1489 101.822 38.6758 101.822 36.6524C101.822 34.6071 103.281 33.1107 105.025 33.1107C106.748 33.1107 108.098 34.6071 108.098 36.6524C108.098 38.6758 106.748 40.1489 105.025 40.1489ZM107.925 32.1209H107.837C107.27 31.4396 106.181 30.8238 104.808 30.8238C101.93 30.8238 99.2929 33.3742 99.2929 36.6524C99.2929 39.9073 101.93 42.4372 104.808 42.4372C106.181 42.4372 107.27 41.8215 107.837 41.1169H107.925V41.9539C107.925 44.1753 106.748 45.3631 104.851 45.3631C103.303 45.3631 102.344 44.2408 101.951 43.2946L99.7502 44.2189C100.382 45.759 102.061 47.65 104.851 47.65C107.815 47.65 110.322 45.8901 110.322 41.6016V31.1747H107.925V32.1209ZM112.066 42.085H114.595V25.0158H112.066V42.085ZM118.321 36.4544C118.256 34.2112 120.043 33.067 121.329 33.067C122.333 33.067 123.182 33.5722 123.465 34.2985L118.321 36.4544ZM126.168 34.5184C125.689 33.2213 124.228 30.8238 121.242 30.8238C118.278 30.8238 115.815 33.1763 115.815 36.6305C115.815 39.8854 118.256 42.4372 121.525 42.4372C124.163 42.4372 125.689 40.8097 126.321 39.8636L124.359 38.5433C123.706 39.5113 122.812 40.1489 121.525 40.1489C120.24 40.1489 119.324 39.555 118.735 38.3904L126.43 35.1778L126.168 34.5184ZM64.8677 32.6056V35.0686H70.7085C70.534 36.4544 70.0767 37.4661 69.3799 38.1692C68.5289 39.028 67.1989 39.9742 64.8677 39.9742C61.2701 39.9742 58.4586 37.0483 58.4586 33.4193C58.4586 29.7889 61.2701 26.8644 64.8677 26.8644C66.8079 26.8644 68.2244 27.6344 69.2703 28.6243L70.9926 26.8862C69.5314 25.4786 67.5926 24.4 64.8677 24.4C59.9415 24.4 55.8 28.4482 55.8 33.4193C55.8 38.3904 59.9415 42.4372 64.8677 42.4372C67.5263 42.4372 69.5314 41.5566 71.1009 39.9073C72.715 38.2798 73.2156 35.9929 73.2156 34.1443C73.2156 33.5722 73.1723 33.0452 73.0843 32.6056H64.8677ZM79.8573 40.1489C78.1133 40.1489 76.6088 38.6976 76.6088 36.6305C76.6088 34.5402 78.1133 33.1107 79.8573 33.1107C81.6 33.1107 83.1045 34.5402 83.1045 36.6305C83.1045 38.6976 81.6 40.1489 79.8573 40.1489ZM79.8573 30.8238C76.6738 30.8238 74.0801 33.265 74.0801 36.6305C74.0801 39.9742 76.6738 42.4372 79.8573 42.4372C83.0395 42.4372 85.6332 39.9742 85.6332 36.6305C85.6332 33.265 83.0395 30.8238 79.8573 30.8238ZM92.4576 40.1489C90.7136 40.1489 89.2091 38.6976 89.2091 36.6305C89.2091 34.5402 90.7136 33.1107 92.4576 33.1107C94.2016 33.1107 95.7048 34.5402 95.7048 36.6305C95.7048 38.6976 94.2016 40.1489 92.4576 40.1489ZM92.4576 30.8238C89.2754 30.8238 86.6818 33.265 86.6818 36.6305C86.6818 39.9742 89.2754 42.4372 92.4576 42.4372C95.6398 42.4372 98.2335 39.9742 98.2335 36.6305C98.2335 33.265 95.6398 30.8238 92.4576 30.8238Z" fill="white"/>
</svg>
