<svg width="16" height="14" viewBox="0 0 16 14" fill="none" xmlns="http://www.w3.org/2000/svg">
<path d="M15.9591 12.4044L13.4496 4.64774C13.3386 4.30482 13.0193 4.0725 12.6588 4.0725H10.0106C10.2252 3.71791 10.3512 3.3039 10.3512 2.85998C10.3512 1.56361 9.29636 0.508789 7.99997 0.508789C6.70361 0.508789 5.64878 1.56359 5.64878 2.85998C5.64878 3.30387 5.77472 3.71789 5.98941 4.0725H3.34118C2.98076 4.0725 2.66141 4.30482 2.55046 4.64774L0.0409667 12.4044C-0.132707 12.9411 0.267529 13.4912 0.831686 13.4912H15.1683C15.7325 13.4913 16.1327 12.9412 15.9591 12.4044ZM6.75691 2.85998C6.75691 2.17446 7.31448 1.61689 8 1.61689C8.68552 1.61689 9.24308 2.17446 9.24308 2.85998C9.24308 3.45357 8.82439 3.9497 8.26721 4.0725H7.73281C7.17561 3.94973 6.75691 3.45357 6.75691 2.85998ZM6.90097 10.7917L6.18267 9.41248H5.84039V10.7917H5.00823V7.39161H5.84039V8.70424H6.18267L6.88664 7.39161H7.7807L6.86261 9.01789V9.02756L7.83297 10.7917H6.90097ZM11.2776 10.7917H10.5833V10.6965C10.5833 10.6252 10.588 10.554 10.588 10.554H10.5787C10.5787 10.554 10.2503 10.8486 9.68463 10.8486C8.8142 10.8486 8.01535 10.1973 8.01535 9.08448C8.01535 8.09553 8.76188 7.33465 9.79885 7.33465C10.6689 7.33465 11.1065 7.78618 11.1065 7.78618L10.7069 8.40921C10.7069 8.40921 10.3599 8.09556 9.87942 8.09556C9.16617 8.09556 8.87616 8.55208 8.87616 9.05582C8.87616 9.70288 9.32301 10.0878 9.85116 10.0878C10.2504 10.0878 10.5404 9.84074 10.5404 9.84074V9.57896H10.0602V8.87036H11.2776V10.7917Z" fill="black"/>
</svg>
