<svg width="32" height="32" viewBox="0 0 32 32" fill="none" xmlns="http://www.w3.org/2000/svg">
<path d="M23.3333 8.66666H23.3466M9.33329 2.66666H22.6666C26.3485 2.66666 29.3333 5.65142 29.3333 9.33332V22.6667C29.3333 26.3486 26.3485 29.3333 22.6666 29.3333H9.33329C5.65139 29.3333 2.66663 26.3486 2.66663 22.6667V9.33332C2.66663 5.65142 5.65139 2.66666 9.33329 2.66666ZM21.3333 15.16C21.4978 16.2697 21.3083 17.4029 20.7916 18.3987C20.275 19.3944 19.4575 20.2019 18.4555 20.7062C17.4534 21.2106 16.3179 21.3861 15.2103 21.2079C14.1028 21.0297 13.0796 20.5068 12.2864 19.7135C11.4932 18.9203 10.9703 17.8972 10.792 16.7896C10.6138 15.6821 10.7894 14.5465 11.2937 13.5445C11.7981 12.5425 12.6055 11.725 13.6013 11.2083C14.597 10.6916 15.7303 10.5021 16.84 10.6667C17.9719 10.8345 19.0198 11.3619 19.8289 12.1711C20.638 12.9802 21.1654 14.0281 21.3333 15.16Z" stroke="black" stroke-width="2" stroke-linecap="round" stroke-linejoin="round"/>
</svg>
