<svg width="203" height="413" viewBox="0 0 203 413" fill="none" xmlns="http://www.w3.org/2000/svg">
<g clip-path="url(#clip0_11_310)">
<g clip-path="url(#clip1_11_310)">
<g clip-path="url(#clip2_11_310)">
<mask id="mask0_11_310" style="mask-type:luminance" maskUnits="userSpaceOnUse" x="0" y="0" width="203" height="413">
<path d="M202.5 0H0V412.5H202.5V0Z" fill="white"/>
</mask>
<g mask="url(#mask0_11_310)">
<path d="M0.720703 149.627C0.720703 149.149 1.10893 148.748 1.59699 148.748H2.02959V180.047H1.59699C1.12003 180.047 0.720703 179.657 0.720703 179.168V149.616V149.627Z" fill="#1C1C61"/>
<path d="M0.720703 109.887C0.720703 109.409 1.10893 109.009 1.59699 109.009H2.02959V140.306H1.59699C1.12003 140.306 0.720703 139.917 0.720703 139.428V109.876V109.887Z" fill="#1C1C61"/>
<path d="M0 80.202C0 79.7242 0.388229 79.3237 0.876285 79.3237H2.04097V94.7497H0.876285C0.399321 94.7497 0 94.3605 0 93.8715V80.1907V80.202Z" fill="#1C1C61"/>
<path d="M201.191 130.708H201.624C202.101 130.708 202.5 131.097 202.5 131.587V179.179C202.5 179.657 202.111 180.057 201.624 180.057H201.191V130.719V130.708Z" fill="#1C1C61"/>
<path d="M2.02991 79.4678V94.8278" stroke="black" stroke-width="0.188228"/>
<path d="M2.02991 109.165V140.24" stroke="black" stroke-width="0.188228"/>
<path d="M164.753 0H38.468C18.3437 0 2.02991 16.3579 2.02991 36.5364V375.964C2.02991 396.142 18.3437 412.5 38.468 412.5H164.753C184.877 412.5 201.191 396.142 201.191 375.964V36.5364C201.191 16.3579 184.877 0 164.753 0Z" fill="#1C1C61"/>
<path d="M162.419 4.68018H40.1929C21.6737 4.68018 6.66101 19.7334 6.66101 38.3026V373.659C6.66101 392.228 21.6737 407.281 40.1929 407.281H162.419C180.938 407.281 195.95 392.228 195.95 373.659V38.3026C195.95 19.7334 180.938 4.68018 162.419 4.68018Z" fill="white" stroke="black" stroke-width="7.57253"/>
<path d="M117.28 204.133L96.1913 192.644C95.8358 192.451 95.4292 192.345 95.013 192.338C94.5967 192.331 94.1858 192.423 93.8228 192.604C93.459 192.786 93.1568 193.051 92.9468 193.371C92.736 193.691 92.625 194.056 92.625 194.427V217.406C92.625 217.777 92.7368 218.141 92.9468 218.461C93.1575 218.782 93.4598 219.046 93.8228 219.227C94.1858 219.409 94.5967 219.501 95.013 219.494C95.4292 219.487 95.8358 219.382 96.1913 219.188L117.28 207.7C117.622 207.513 117.906 207.25 118.103 206.938C118.298 206.626 118.402 206.275 118.402 205.916C118.402 205.558 118.298 205.207 118.103 204.894C117.906 204.582 117.622 204.32 117.28 204.133Z" fill="#353432"/>
<path d="M119.839 19.6428H82.7617C78.6221 19.6428 75.2664 22.9986 75.2664 27.1381V27.1382C75.2664 31.2777 78.6221 34.6334 82.7617 34.6334H119.839C123.979 34.6334 127.334 31.2777 127.334 27.1382V27.1381C127.334 22.9986 123.979 19.6428 119.839 19.6428Z" fill="black"/>
<path d="M43.8364 410.242L46.7426 410.32V412.501H43.8364V410.242Z" fill="black"/>
<path d="M199.017 43.3762H201.191V46.2902H199.017V43.3762Z" fill="black"/>
<path d="M199.017 367.522H201.191V370.436H198.939L199.017 367.522Z" fill="black"/>
<path d="M123.235 2.17969C123.157 3.15844 122.348 3.92587 121.349 3.92587H81.8611C80.8621 3.92587 80.0529 3.15844 79.9749 2.17969H123.224H123.235Z" fill="black" stroke="#272727" stroke-width="0.376456"/>
<path d="M156.778 0H159.684V2.25781L156.778 2.11321V0Z" fill="black"/>
<path d="M2.03001 43.9548H4.2041L4.12645 46.791L2.01892 46.8689V43.9548H2.03001Z" fill="black"/>
<path d="M2.02991 367.522H4.13744L4.21508 370.436H2.041V367.522H2.02991Z" fill="black"/>
</g>
</g>
</g>
</g>
<defs>
<clipPath id="clip0_11_310">
<path d="M0 39C0 17.4609 17.4609 0 39 0H157C182.129 0 202.5 20.371 202.5 45.5V371.5C202.5 394.144 184.144 412.5 161.5 412.5H41C18.3563 412.5 0 394.144 0 371.5V39Z" fill="white"/>
</clipPath>
<clipPath id="clip1_11_310">
<rect width="202.5" height="412.5" fill="white"/>
</clipPath>
<clipPath id="clip2_11_310">
<rect width="202.5" height="412.5" fill="white"/>
</clipPath>
</defs>
</svg>
