<svg width="40" height="26" viewBox="0 0 40 26" fill="none" xmlns="http://www.w3.org/2000/svg">
<g clip-path="url(#clip0_653_2810)">
<g clip-path="url(#clip1_653_2810)">
<mask id="mask0_653_2810" style="mask-type:luminance" maskUnits="userSpaceOnUse" x="0" y="0" width="40" height="26">
<path d="M40 0.296875H0V25.2969H40V0.296875Z" fill="white"/>
</mask>
<g mask="url(#mask0_653_2810)">
<path opacity="0.07" d="M36.8421 0.296875H3.15789C1.36842 0.296875 0 1.65104 0 3.42187V22.1719C0 23.9427 1.47368 25.2969 3.15789 25.2969H36.8421C38.6316 25.2969 40 23.9427 40 22.1719V3.42187C40 1.65104 38.5263 0.296875 36.8421 0.296875Z" fill="#263238"/>
<path d="M36.8422 1.33887C38.0001 1.33887 38.9474 2.27637 38.9474 3.4222V22.1722C38.9474 23.318 38.0001 24.2555 36.8422 24.2555H3.158C2.0001 24.2555 1.05273 23.318 1.05273 22.1722V3.4222C1.05273 2.27637 2.0001 1.33887 3.158 1.33887H36.8422Z" fill="white"/>
<path d="M15.7893 20.0892C19.8588 20.0892 23.1578 16.8246 23.1578 12.7975C23.1578 8.77045 19.8588 5.50586 15.7893 5.50586C11.7199 5.50586 8.4209 8.77045 8.4209 12.7975C8.4209 16.8246 11.7199 20.0892 15.7893 20.0892Z" fill="#EB001B"/>
<path d="M24.2102 20.0892C28.2797 20.0892 31.5786 16.8246 31.5786 12.7975C31.5786 8.77045 28.2797 5.50586 24.2102 5.50586C20.1408 5.50586 16.8418 8.77045 16.8418 12.7975C16.8418 16.8246 20.1408 20.0892 24.2102 20.0892Z" fill="#F79E1B"/>
<path d="M23.1576 12.7969C23.1576 10.2969 21.8944 8.10938 19.9997 6.85938C18.105 8.21354 16.8418 10.401 16.8418 12.7969C16.8418 15.1927 18.105 17.4844 19.9997 18.7344C21.8944 17.4844 23.1576 15.2969 23.1576 12.7969Z" fill="#FF5F00"/>
</g>
</g>
</g>
<defs>
<clipPath id="clip0_653_2810">
<rect width="40" height="26" fill="white"/>
</clipPath>
<clipPath id="clip1_653_2810">
<rect width="40" height="26" fill="white"/>
</clipPath>
</defs>
</svg>
