<svg width="42" height="42" viewBox="0 0 42 42" fill="none" xmlns="http://www.w3.org/2000/svg">
<path fill-rule="evenodd" clip-rule="evenodd" d="M6.90998 10.5H35.0902C36.0037 10.5 36.751 11.2472 36.751 12.1608V12.3392C36.751 13.2527 36.0037 14 35.0902 14H6.90998C5.99648 14 5.25098 13.2527 5.25098 12.3392V12.1608C5.25098 11.2472 5.99648 10.5 6.90998 10.5ZM35.0902 19.25H6.90998C5.99648 19.25 5.25098 19.9972 5.25098 20.9108V21.0892C5.25098 22.0028 5.99648 22.75 6.90998 22.75H35.0902C36.0037 22.75 36.751 22.0028 36.751 21.0892V20.9108C36.751 19.9972 36.0037 19.25 35.0902 19.25ZM35.0902 28H6.90998C5.99648 28 5.25098 28.7472 5.25098 29.6607V29.8393C5.25098 30.7528 5.99648 31.5 6.90998 31.5H35.0902C36.0037 31.5 36.751 30.7528 36.751 29.8393V29.6607C36.751 28.7472 36.0037 28 35.0902 28Z" fill="white"/>
<mask id="mask0_459_15505" style="mask-type:luminance" maskUnits="userSpaceOnUse" x="5" y="10" width="32" height="22">
<path fill-rule="evenodd" clip-rule="evenodd" d="M6.90998 10.5H35.0902C36.0037 10.5 36.751 11.2472 36.751 12.1608V12.3392C36.751 13.2527 36.0037 14 35.0902 14H6.90998C5.99648 14 5.25098 13.2527 5.25098 12.3392V12.1608C5.25098 11.2472 5.99648 10.5 6.90998 10.5ZM35.0902 19.25H6.90998C5.99648 19.25 5.25098 19.9972 5.25098 20.9108V21.0892C5.25098 22.0028 5.99648 22.75 6.90998 22.75H35.0902C36.0037 22.75 36.751 22.0028 36.751 21.0892V20.9108C36.751 19.9972 36.0037 19.25 35.0902 19.25ZM35.0902 28H6.90998C5.99648 28 5.25098 28.7472 5.25098 29.6607V29.8393C5.25098 30.7528 5.99648 31.5 6.90998 31.5H35.0902C36.0037 31.5 36.751 30.7528 36.751 29.8393V29.6607C36.751 28.7472 36.0037 28 35.0902 28Z" fill="white"/>
</mask>
<g mask="url(#mask0_459_15505)">
</g>
</svg>
