<svg width="18" height="18" viewBox="0 0 18 18" fill="none" xmlns="http://www.w3.org/2000/svg">
<path fill-rule="evenodd" clip-rule="evenodd" d="M11.0303 6.96975C10.737 6.6765 10.263 6.6765 9.96975 6.96975L9 7.9395L8.03025 6.96975C7.737 6.6765 7.263 6.6765 6.96975 6.96975C6.6765 7.263 6.6765 7.737 6.96975 8.03025L7.9395 9L6.96975 9.96975C6.6765 10.263 6.6765 10.737 6.96975 11.0303C7.116 11.1765 7.308 11.25 7.5 11.25C7.692 11.25 7.884 11.1765 8.03025 11.0303L9 10.0605L9.96975 11.0303C10.116 11.1765 10.308 11.25 10.5 11.25C10.692 11.25 10.884 11.1765 11.0303 11.0303C11.3235 10.737 11.3235 10.263 11.0303 9.96975L10.0605 9L11.0303 8.03025C11.3235 7.737 11.3235 7.263 11.0303 6.96975ZM9 15C5.69175 15 3 12.3082 3 9C3 5.69175 5.69175 3 9 3C12.3082 3 15 5.69175 15 9C15 12.3082 12.3082 15 9 15ZM9 1.5C4.8645 1.5 1.5 4.8645 1.5 9C1.5 13.1355 4.8645 16.5 9 16.5C13.1355 16.5 16.5 13.1355 16.5 9C16.5 4.8645 13.1355 1.5 9 1.5Z" fill="black"/>
<mask id="mask0_653_2762" style="mask-type:luminance" maskUnits="userSpaceOnUse" x="1" y="1" width="16" height="16">
<path fill-rule="evenodd" clip-rule="evenodd" d="M11.0303 6.96975C10.737 6.6765 10.263 6.6765 9.96975 6.96975L9 7.9395L8.03025 6.96975C7.737 6.6765 7.263 6.6765 6.96975 6.96975C6.6765 7.263 6.6765 7.737 6.96975 8.03025L7.9395 9L6.96975 9.96975C6.6765 10.263 6.6765 10.737 6.96975 11.0303C7.116 11.1765 7.308 11.25 7.5 11.25C7.692 11.25 7.884 11.1765 8.03025 11.0303L9 10.0605L9.96975 11.0303C10.116 11.1765 10.308 11.25 10.5 11.25C10.692 11.25 10.884 11.1765 11.0303 11.0303C11.3235 10.737 11.3235 10.263 11.0303 9.96975L10.0605 9L11.0303 8.03025C11.3235 7.737 11.3235 7.263 11.0303 6.96975ZM9 15C5.69175 15 3 12.3082 3 9C3 5.69175 5.69175 3 9 3C12.3082 3 15 5.69175 15 9C15 12.3082 12.3082 15 9 15ZM9 1.5C4.8645 1.5 1.5 4.8645 1.5 9C1.5 13.1355 4.8645 16.5 9 16.5C13.1355 16.5 16.5 13.1355 16.5 9C16.5 4.8645 13.1355 1.5 9 1.5Z" fill="white"/>
</mask>
<g mask="url(#mask0_653_2762)">
</g>
</svg>
