<svg width="18" height="18" viewBox="0 0 18 18" fill="none" xmlns="http://www.w3.org/2000/svg">
<path fill-rule="evenodd" clip-rule="evenodd" d="M9 12C8.586 12 8.25 11.664 8.25 11.25C8.25 10.836 8.586 10.5 9 10.5C9.414 10.5 9.75 10.836 9.75 11.25C9.75 11.664 9.414 12 9 12ZM9 9C7.7595 9 6.75 10.0095 6.75 11.25C6.75 12.4905 7.7595 13.5 9 13.5C10.2405 13.5 11.25 12.4905 11.25 11.25C11.25 10.0095 10.2405 9 9 9ZM13.5 14.25C13.5 14.664 13.164 15 12.75 15H5.25C4.836 15 4.5 14.664 4.5 14.25V8.25C4.5 7.836 4.836 7.5 5.25 7.5H6H7.5H10.5H12H12.75C13.164 7.5 13.5 7.836 13.5 8.25V14.25ZM7.5 4.58325C7.5 3.71025 8.17275 3 9 3C9.82725 3 10.5 3.71025 10.5 4.58325V6H7.5V4.58325ZM12.75 6H12V4.58325C12 2.88375 10.6545 1.5 9 1.5C7.3455 1.5 6 2.88375 6 4.58325V6H5.25C4.0095 6 3 7.0095 3 8.25V14.25C3 15.4905 4.0095 16.5 5.25 16.5H12.75C13.9905 16.5 15 15.4905 15 14.25V8.25C15 7.0095 13.9905 6 12.75 6Z" fill="black"/>
<mask id="mask0_653_2782" style="mask-type:luminance" maskUnits="userSpaceOnUse" x="3" y="1" width="12" height="16">
<path fill-rule="evenodd" clip-rule="evenodd" d="M9 12C8.586 12 8.25 11.664 8.25 11.25C8.25 10.836 8.586 10.5 9 10.5C9.414 10.5 9.75 10.836 9.75 11.25C9.75 11.664 9.414 12 9 12ZM9 9C7.7595 9 6.75 10.0095 6.75 11.25C6.75 12.4905 7.7595 13.5 9 13.5C10.2405 13.5 11.25 12.4905 11.25 11.25C11.25 10.0095 10.2405 9 9 9ZM13.5 14.25C13.5 14.664 13.164 15 12.75 15H5.25C4.836 15 4.5 14.664 4.5 14.25V8.25C4.5 7.836 4.836 7.5 5.25 7.5H6H7.5H10.5H12H12.75C13.164 7.5 13.5 7.836 13.5 8.25V14.25ZM7.5 4.58325C7.5 3.71025 8.17275 3 9 3C9.82725 3 10.5 3.71025 10.5 4.58325V6H7.5V4.58325ZM12.75 6H12V4.58325C12 2.88375 10.6545 1.5 9 1.5C7.3455 1.5 6 2.88375 6 4.58325V6H5.25C4.0095 6 3 7.0095 3 8.25V14.25C3 15.4905 4.0095 16.5 5.25 16.5H12.75C13.9905 16.5 15 15.4905 15 14.25V8.25C15 7.0095 13.9905 6 12.75 6Z" fill="white"/>
</mask>
<g mask="url(#mask0_653_2782)">
</g>
</svg>
