<svg width="24" height="25" viewBox="0 0 24 25" fill="none" xmlns="http://www.w3.org/2000/svg">
<path d="M12 22.5002V13.5002M20 13.5002V17.3702C20.0004 17.7477 19.8971 18.118 19.7013 18.4407C19.5056 18.7634 19.2249 19.0262 18.89 19.2002L12.89 22.2802C12.6151 22.4231 12.3098 22.4977 12 22.4977C11.6902 22.4977 11.3849 22.4231 11.11 22.2802L5.11002 19.2002C4.7751 19.0262 4.49445 18.7634 4.2987 18.4407C4.10295 18.118 3.99963 17.7477 4.00002 17.3702V13.5002M15.17 2.71024C15.4191 2.57098 15.6997 2.49787 15.985 2.49787C16.2704 2.49787 16.551 2.57098 16.8 2.71024L21 5.07024C21.2975 5.23844 21.5449 5.4826 21.7171 5.77777C21.8893 6.07294 21.98 6.40853 21.98 6.75024C21.98 7.09196 21.8893 7.42755 21.7171 7.72271C21.5449 8.01788 21.2975 8.26204 21 8.43024L8.82002 15.2902C8.57022 15.4327 8.2876 15.5077 8.00002 15.5077C7.71244 15.5077 7.42982 15.4327 7.18002 15.2902L3.00002 12.9302C2.70257 12.762 2.45511 12.5179 2.28293 12.2227C2.11075 11.9275 2.02002 11.592 2.02002 11.2502C2.02002 10.9085 2.11075 10.5729 2.28293 10.2778C2.45511 9.9826 2.70257 9.73844 3.00002 9.57024L15.17 2.71024ZM21 12.9302C21.2975 12.762 21.5449 12.5179 21.7171 12.2227C21.8893 11.9275 21.98 11.592 21.98 11.2502C21.98 10.9085 21.8893 10.5729 21.7171 10.2778C21.5449 9.9826 21.2975 9.73844 21 9.57024L8.83002 2.70024C8.5819 2.55815 8.30094 2.4834 8.01502 2.4834C7.7291 2.4834 7.44814 2.55815 7.20002 2.70024L3.00002 5.07024C2.70257 5.23844 2.45511 5.4826 2.28293 5.77777C2.11075 6.07294 2.02002 6.40853 2.02002 6.75024C2.02002 7.09196 2.11075 7.42755 2.28293 7.72271C2.45511 8.01788 2.70257 8.26204 3.00002 8.43024L15.18 15.2902C15.428 15.4327 15.709 15.5077 15.995 15.5077C16.281 15.5077 16.562 15.4327 16.81 15.2902L21 12.9302Z" stroke="black" stroke-width="2" stroke-linecap="round" stroke-linejoin="round"/>
</svg>
