<svg width="24" height="15" viewBox="0 0 24 15" fill="none" xmlns="http://www.w3.org/2000/svg">
<mask id="mask0_720_38703" style="mask-type:luminance" maskUnits="userSpaceOnUse" x="0" y="0" width="24" height="15">
<path d="M23.04 0H0.96C0.429807 0 0 0.429807 0 0.96V13.44C0 13.9702 0.429807 14.4 0.96 14.4H23.04C23.5702 14.4 24 13.9702 24 13.44V0.96C24 0.429807 23.5702 0 23.04 0Z" fill="white"/>
</mask>
<g mask="url(#mask0_720_38703)">
<path d="M0 0V4.79997V9.6V14.4H24V9.6V4.79997V0H0Z" fill="#F0F0F0"/>
<path d="M24 0H0V14.4001H24V0Z" fill="#0052B4"/>
<path d="M24 0H0V4.79988H24V0Z" fill="#F0F0F0"/>
<path d="M24 9.59961H0V14.3995H24V9.59961Z" fill="#D80027"/>
</g>
</svg>
