<svg width="233" height="137" viewBox="0 0 233 137" fill="none" xmlns="http://www.w3.org/2000/svg">
<g clip-path="url(#clip0_11_695)">
<g clip-path="url(#clip1_11_695)">
<g clip-path="url(#clip2_11_695)">
<path d="M222.236 3.78906H11.4918C5.67225 3.78906 0.95459 8.50672 0.95459 14.3263V123.913C0.95459 129.733 5.67225 134.45 11.4918 134.45H222.236C228.055 134.45 232.773 129.733 232.773 123.913V14.3263C232.773 8.50672 228.055 3.78906 222.236 3.78906Z" fill="white"/>
<mask id="mask0_11_695" style="mask-type:luminance" maskUnits="userSpaceOnUse" x="18" y="24" width="198" height="90">
<path d="M215.913 24.035H18.8678V113.601H215.913V24.035Z" fill="white"/>
</mask>
<g mask="url(#mask0_11_695)">
<path d="M18.8678 25.165H31.2781L37.0317 44.1762C37.2181 44.7426 37.4072 45.3652 37.599 46.0437C37.7908 46.7223 38.0172 47.457 38.2782 48.2478C40.1201 53.9157 41.5884 59.6988 42.6734 65.5599C43.35 60.8845 43.9147 57.6225 44.3675 55.7738L46.1736 47.9673L46.8528 44.9136L51.6954 25.165H63.9378L48.7546 74.9534V112.519H37.0317V74.9534L18.8678 25.165Z" fill="#333333"/>
<path d="M113.243 70.9941C113.243 86.4201 111.533 97.3738 108.112 103.855C104.692 110.337 98.9548 113.575 90.8996 113.57C82.4398 113.57 76.481 110.096 73.0235 103.15C69.598 96.3105 67.8853 84.1759 67.8853 66.7463C67.8853 51.2081 69.5767 40.2117 72.9595 33.7571C76.3425 27.3024 82.1361 24.0618 90.3403 24.035C97.6335 24.035 103.049 26.5437 106.587 31.561C108.92 34.9166 110.611 39.688 111.66 45.8756C112.715 51.6089 113.243 59.9817 113.243 70.9941ZM100.945 72.2365C100.945 57.1097 100.268 47.0778 98.9148 42.1407C97.5617 37.2035 94.7967 34.7135 90.62 34.6707C86.4432 34.6707 83.6597 36.9524 82.2693 41.5155C80.8788 46.0786 80.2022 55.3197 80.2395 69.2388C80.2395 82.0253 80.9534 90.8897 82.3812 95.8322C83.8461 100.508 86.5925 102.845 90.62 102.845C94.6475 102.845 97.3565 100.657 98.747 96.2811C100.212 91.9476 100.945 83.9327 100.945 72.2365Z" fill="#333333"/>
<path d="M168.47 70.9941C168.47 86.4201 166.759 97.3738 163.339 103.855C159.92 110.337 154.182 113.575 146.127 113.57C137.666 113.57 131.707 110.096 128.25 103.15C124.83 96.3211 123.121 84.1946 123.121 66.7703C123.121 51.2322 124.812 40.2358 128.194 33.7811C131.578 27.3264 137.379 24.0778 145.6 24.035C152.892 24.035 158.308 26.5437 161.845 31.561C164.179 34.9166 165.87 39.688 166.92 45.8756C167.953 51.6089 168.47 59.9817 168.47 70.9941ZM156.172 72.2365C156.172 57.1097 155.495 47.0778 154.142 42.1407C152.788 37.2035 150.023 34.7135 145.847 34.6707C141.67 34.6707 138.886 36.9524 137.497 41.5155C136.106 46.0786 135.429 55.3197 135.466 69.2388C135.466 82.0253 136.181 90.8897 137.608 95.8322C139.073 100.508 141.819 102.845 145.847 102.845C149.875 102.845 152.584 100.657 153.974 96.2811C155.439 91.9476 156.172 83.9327 156.172 72.2365Z" fill="#333333"/>
<path d="M173.04 25.1656H184.435L190.469 42.085C192.84 48.7586 194.249 53.6424 194.697 56.7361C195.112 54.8126 195.572 52.9424 196.079 51.1257C196.585 49.309 197.118 47.4977 197.676 45.6917L198.476 43.143L204.069 25.1495H215.921L199.779 68.1653L215.921 112.52H204.062L198.34 95.8887C197.174 92.5706 196.233 89.5917 195.519 86.9522C194.866 84.6362 194.348 82.2839 193.969 79.9071C193.68 82.3531 193.17 84.7676 192.443 87.1204L190.469 93.34L189.454 96.6181L184.435 112.463H172.026L188.495 68.1092L173.04 25.1656Z" fill="#333333"/>
</g>
</g>
</g>
</g>
<defs>
<clipPath id="clip0_11_695">
<rect width="231.818" height="136.364" fill="white" transform="translate(0.95459 0.636353)"/>
</clipPath>
<clipPath id="clip1_11_695">
<rect width="231.818" height="136.364" fill="white" transform="translate(0.95459 0.636353)"/>
</clipPath>
<clipPath id="clip2_11_695">
<rect width="231.818" height="131.715" fill="white" transform="translate(0.95459 2.96075)"/>
</clipPath>
</defs>
</svg>
