<svg width="233" height="137" viewBox="0 0 233 137" fill="none" xmlns="http://www.w3.org/2000/svg">
<g clip-path="url(#clip0_11_690)">
<g clip-path="url(#clip1_11_690)">
<g clip-path="url(#clip2_11_690)">
<path d="M222.145 3.78906H11.4008C5.58131 3.78906 0.863647 8.50672 0.863647 14.3263V123.913C0.863647 129.733 5.58131 134.45 11.4008 134.45H222.145C227.964 134.45 232.682 129.733 232.682 123.913V14.3263C232.682 8.50672 227.964 3.78906 222.145 3.78906Z" fill="white"/>
<path d="M98.5539 36.5851L100.379 33.8393L99.9869 34.636C99.942 34.727 99.9646 34.8469 100.037 34.9029C100.109 34.9595 100.204 34.9313 100.249 34.8402L100.974 33.3747L101.707 34.8573C101.752 34.9477 101.847 34.9757 101.919 34.9192C101.99 34.8631 102.012 34.744 101.968 34.6532L101.576 33.8565L103.359 36.7164C103.362 39.1175 102.429 39.7876 101.419 40.2498H100.537C99.6002 39.6562 98.6231 39.0296 98.5539 36.5851ZM116.584 39.5652L93.3177 57.265L93.3217 21.9277L116.584 39.5652ZM96.5444 40.3771C96.9621 40.8501 97.8956 41.0603 99.0192 41.0603C100.143 41.0603 100.649 40.8165 100.616 40.6314H101.34C101.307 40.8165 102.274 41.1044 103.126 41.1044C103.978 41.1044 105.022 40.7914 105.328 40.4447C105.634 40.0982 106.047 37.9844 104.969 36.7647C104.962 36.7411 101.342 33.1438 101.342 33.1438C101.555 33.1788 101.768 33.2051 101.983 33.2124C102.093 33.2184 102.204 33.2011 102.31 33.161C102.625 33.0067 102.781 32.5599 102.659 32.1632C102.536 31.7661 102.181 31.5695 101.866 31.7237C101.604 31.8516 101.105 32.6369 101.008 32.7933L100.993 32.8181C100.983 32.8171 100.974 32.8175 100.964 32.8188L100.95 32.7949C100.848 32.6387 100.353 31.8533 100.092 31.726C99.7763 31.5713 99.4215 31.7676 99.2986 32.1643C99.2968 32.1697 99.295 32.175 99.2934 32.1808C99.1755 32.5748 99.3336 33.0144 99.6465 33.1632C99.7525 33.2026 99.863 33.2191 99.9735 33.2126C100.18 33.2059 100.386 33.1817 100.592 33.1494C100.592 33.1494 96.9686 36.7551 96.9615 36.8026C95.8513 38.0585 96.1266 39.9041 96.5444 40.3771ZM105.454 42.4713H101.04H96.618V43.1086C96.618 43.1086 99.1588 43.1721 100.444 47.0979H101.627C102.91 43.1723 105.454 43.1139 105.454 43.1139L105.454 42.4713ZM99.9794 32.0784C99.944 32.0612 99.9063 32.0528 99.8687 32.0534C99.7016 32.0501 99.5641 32.2181 99.5616 32.4286C99.5606 32.4854 99.5702 32.5412 99.5886 32.5926C99.6212 32.6855 99.6815 32.7585 99.7566 32.7947C100.016 32.8331 100.279 32.8231 100.536 32.7645C100.378 32.5022 100.19 32.2714 99.9794 32.0784ZM102.199 32.8005C102.356 32.7233 102.433 32.5006 102.371 32.3032C102.31 32.1055 102.133 32.0085 101.976 32.0857C101.766 32.2783 101.578 32.509 101.421 32.7703C101.678 32.8284 101.94 32.8389 102.199 32.8005ZM84.6588 39.2569L84.1358 38.0563L83.6126 39.2569L82.4429 39.4492L83.2894 40.3837L83.0896 41.703L84.136 41.0801L85.1822 41.703L84.9824 40.3837L85.8292 39.4492L84.6588 39.2569ZM91.7244 21.9277L91.7283 57.265L68.4612 39.5652L91.7244 21.9277ZM90.7882 37.941L86.5873 34.3733L86.5658 34.152L86.3314 34.156L86.3268 34.152L86.3266 34.1566L86.1929 34.159C85.9714 35.0314 85.0644 35.6859 83.9764 35.6859C82.922 35.6859 82.0438 35.069 81.7883 34.2366L81.467 34.2424L77.0054 38.0316L79.2363 40.8281L81.1171 39.5917L80.6702 46.4219H87.7609L87.1149 39.7899L88.5575 40.7382L90.7882 37.941ZM153.613 42.3758C153.611 42.3764 153.469 42.4323 153.056 42.2518C152.756 42.1213 152.675 41.9657 152.673 41.8994C152.687 41.7576 152.6 41.6271 152.475 41.6033C152.347 41.5767 152.222 41.6783 152.2 41.8258C152.191 41.8867 152.135 42.4301 152.884 42.7571C153.176 42.8842 153.39 42.9256 153.543 42.9256C153.73 42.9256 153.83 42.865 153.875 42.825C153.979 42.7326 154.013 42.5514 153.932 42.4334C153.85 42.3152 153.716 42.2842 153.613 42.3758ZM166.298 39.5652L143.03 57.265L143.035 21.9277L166.298 39.5652ZM147.124 39.0588C147.124 39.0588 148.538 39.2961 149.723 38.0988C150.908 36.9016 151.414 34.7236 151.414 34.7236C151.414 34.7236 148.856 35.0879 147.93 36.0691C146.771 37.2974 147.124 39.0588 147.124 39.0588ZM156.325 43.3597C156.325 42.358 155.898 41.4981 154.982 41.1306C154.69 41.014 154.178 41.1293 153.825 41.14C153.835 40.6324 153.815 39.4802 153.468 38.5668C153.283 38.0806 153.078 37.7077 152.913 37.4082C152.691 37.0049 152.532 36.7133 152.532 36.3736C152.532 36.3684 152.529 36.3642 152.529 36.359C152.53 36.2748 152.532 36.1939 152.532 36.1029C152.532 34.8979 152.589 34.3839 152.589 34.3785C152.606 34.2306 152.514 34.0946 152.383 34.0752C152.255 34.0561 152.132 34.1603 152.115 34.3083C152.112 34.3301 152.053 34.8547 152.053 36.1029C152.053 37.2033 152.053 37.6151 150.958 38.8549C150.62 39.2377 150.353 39.5608 150.047 39.9301L149.728 40.3154C149.288 40.843 148.796 41.6431 148.731 41.7496C148.379 41.7272 147.941 41.6841 147.698 41.7958C146.932 42.1496 146.675 42.8942 146.675 43.7551C146.675 44.9583 147.781 46.4211 148.976 46.4211C149.813 46.4211 150.684 45.6576 151.052 44.7805C150.853 44.3192 150.738 43.8288 150.738 43.3592C150.738 42.9739 150.784 42.6449 150.856 42.355C150.661 42.0941 150.402 41.8826 150.066 41.748C149.88 41.6734 149.594 41.705 149.33 41.7335C149.522 41.4345 149.814 41.0013 150.077 40.6864L150.397 40.2996C150.698 39.9347 150.962 39.6156 151.296 39.2373C151.95 38.497 152.253 37.9958 152.397 37.4891C152.434 37.557 152.469 37.624 152.508 37.6941C152.672 37.9931 152.858 38.3319 153.029 38.7807C153.336 39.5882 153.355 40.6547 153.346 41.1222C152.988 41.0984 152.588 41.0748 152.352 41.1836C151.501 41.5763 151.217 42.4029 151.217 43.359C151.217 44.6949 152.36 46.3192 153.771 46.3192C155.182 46.3192 156.325 44.6959 156.325 43.3597ZM148.825 42.8436C148.824 42.8444 148.696 42.8878 148.34 42.7324C148.04 42.6017 148.013 42.459 148.011 42.4396C148.023 42.2994 147.937 42.1707 147.812 42.1471C147.685 42.1206 147.559 42.2222 147.537 42.3698C147.529 42.427 147.475 42.9358 148.168 43.2377C148.434 43.353 148.629 43.3906 148.771 43.3906C148.947 43.3906 149.041 43.3328 149.084 43.2949C149.188 43.2025 149.224 43.02 149.143 42.9022C149.062 42.7842 148.93 42.752 148.825 42.8436ZM130.802 39.6102C130.692 39.6102 130.603 39.7117 130.603 39.8357V45.8125C130.603 45.9365 130.692 46.0378 130.802 46.0378C130.912 46.0378 131.001 45.9365 131.001 45.8125V39.8357C131.001 39.7117 130.912 39.6102 130.802 39.6102ZM141.437 21.9277L141.441 57.265L118.174 39.5652L141.437 21.9277ZM138.589 40.1738C138.589 40.4851 138.812 40.7378 139.087 40.7378C139.362 40.7378 139.585 40.4853 139.585 40.1738C139.585 39.8625 139.362 39.61 139.087 39.61C138.812 39.61 138.589 39.8627 138.589 40.1738ZM137.633 39.0914C137.633 39.2785 137.767 39.4296 137.932 39.4296C138.097 39.4296 138.231 39.2783 138.231 39.0914C138.231 38.9047 138.097 38.7533 137.932 38.7533C137.767 38.7533 137.633 38.9045 137.633 39.0914ZM137.136 40.3094C137.136 40.4835 137.26 40.6251 137.414 40.6251C137.568 40.6251 137.693 40.4835 137.693 40.3094C137.693 40.1348 137.568 39.9933 137.414 39.9933C137.26 39.9933 137.136 40.1348 137.136 40.3094ZM136.318 38.1215C136.318 38.321 136.462 38.4826 136.638 38.4826C136.814 38.4826 136.956 38.321 136.956 38.1215C136.956 37.922 136.814 37.7609 136.638 37.7609C136.462 37.7607 136.318 37.922 136.318 38.1215ZM135.741 40.3544C135.741 40.516 135.857 40.6476 136 40.6476C136.142 40.6476 136.259 40.5162 136.259 40.3544C136.259 40.1924 136.143 40.0612 136 40.0612C135.857 40.0614 135.741 40.1926 135.741 40.3544ZM134.796 43.5968C133.855 43.0893 133.239 42.252 133.239 41.3016H134.796V40.6026C134.796 39.6552 133.053 37.7834 133.053 36.8134C133.053 36.1373 132.977 34.301 132.932 33.2501H133.261V31.8965H131.27V33.2501H131.6C131.553 34.301 131.479 36.1373 131.479 36.8134C131.479 37.7834 129.736 39.5652 129.736 40.6026V46.4665C129.736 46.7656 129.951 47.0077 130.214 47.0077H134.317C134.581 47.0077 134.795 46.7653 134.795 46.4665C134.796 46.4665 134.796 45.0534 134.796 43.5968ZM140.153 41.6992H133.68C133.68 42.6756 135.025 43.4717 136.722 43.5287V46.4777C136.722 46.5903 135.527 46.6017 135.527 46.6017C135.402 46.6017 135.298 46.7184 135.298 46.8608C135.298 47.0033 135.402 47.1204 135.527 47.1204H138.296C138.421 47.1204 138.525 47.0033 138.525 46.8608C138.525 46.7184 138.421 46.6017 138.296 46.6017C138.296 46.6017 137.101 46.5903 137.101 46.4777V43.5289C138.802 43.4746 140.153 42.6776 140.153 41.6992ZM93.3217 61.5778L116.584 79.2149L93.3177 96.915L93.3217 61.5778ZM98.018 75.6614C98.018 75.8793 98.1995 76.057 98.4212 76.057H99.527C99.7486 76.057 99.9302 75.8791 99.9302 75.6614V75.2801C99.9302 75.0621 99.7486 74.8845 99.527 74.8845H98.4212C98.1995 74.8845 98.018 75.0624 98.018 75.2801V75.6614ZM97.062 83.9006C97.062 84.1517 97.2434 84.3572 97.4652 84.3572H106.617C106.839 84.3572 107.021 84.1517 107.021 83.9006V76.8749C107.021 76.6238 106.839 76.4183 106.617 76.4183H105.398C105.064 75.5617 104.668 74.614 104.546 74.614H101.21C101.088 74.614 100.691 75.5617 100.358 76.4183H97.4653C97.2436 76.4183 97.0622 76.6238 97.0622 76.8749L97.062 83.9006ZM99.7708 80.1845C99.7708 78.2288 101.171 76.6434 102.898 76.6434C104.625 76.6434 106.025 78.2288 106.025 80.1845C106.025 82.1402 104.625 83.7252 102.898 83.7252C101.171 83.7255 99.7708 82.1402 99.7708 80.1845ZM100.793 80.1845C100.793 81.5011 101.736 82.5681 102.898 82.5681C104.06 82.5681 105.003 81.5011 105.003 80.1845C105.003 78.868 104.06 77.801 102.898 77.801C101.735 77.801 100.793 78.8682 100.793 80.1845ZM102.201 79.7111C102.449 79.1451 102.626 78.6395 102.314 78.4637C102.002 78.2878 101.547 78.6039 101.299 79.1701C101.05 79.7359 101.102 80.3371 101.414 80.5129C101.726 80.6885 101.952 80.2767 102.201 79.7111ZM91.7244 61.5778L91.7283 96.915L68.4612 79.2149L91.7244 61.5778ZM74.1383 80.3933C75.0258 80.384 77.2586 80.3439 80.0822 80.1714C80.6252 80.1382 81.2211 80.0937 81.8413 80.043C81.792 79.9256 81.7368 79.8025 81.6703 79.6747C81.3524 79.0632 80.5484 78.2349 80.5401 78.2264L80.8613 77.8256C80.8963 77.8618 81.7277 78.7186 82.0818 79.4C82.1937 79.6146 82.2795 79.8177 82.3484 79.9998C82.587 79.9792 82.8275 79.9581 83.0698 79.9358C83.0319 79.851 82.9912 79.764 82.9447 79.6747C82.6273 79.0643 81.8231 78.2349 81.815 78.2264L82.1362 77.8256C82.1712 77.8618 83.0022 78.7186 83.3565 79.4C83.4455 79.5712 83.5199 79.7367 83.5812 79.8889C83.8184 79.8664 84.055 79.8439 84.2907 79.821C84.2678 79.7727 84.2453 79.7246 84.2194 79.6747C83.9022 79.0643 83.0978 78.2349 83.0899 78.2264L83.4111 77.8256C83.4461 77.8618 84.2771 78.7186 84.6313 79.4C84.6982 79.5284 84.7542 79.6516 84.8049 79.7703C85.0419 79.7467 85.2758 79.7233 85.5066 79.6997C85.502 79.6912 85.4989 79.6832 85.4943 79.6747C85.1765 79.0632 84.3727 78.2349 84.3644 78.2264L84.6854 77.8256C84.7204 77.8618 85.552 78.7186 85.9062 79.4C85.9499 79.4834 85.9894 79.5658 86.0262 79.6458C87.3319 79.5096 88.4713 79.3818 89.1535 79.3036L89.1197 79.2673C89.182 79.1805 89.423 78.6703 89.0509 76.9795C89.0177 76.9821 88.5842 75.3985 88.2712 74.522C88.2514 74.4622 88.216 74.4239 88.1649 74.4074C88.1649 74.4074 87.5366 73.9936 87.1784 74.6362C86.8198 75.2791 86.7093 76.2558 85.9831 76.3108C85.2573 76.366 84.9636 76.049 84.7583 75.7355C84.5532 75.4225 84.4894 75.2789 84.4145 74.9237C84.34 74.5684 84.3255 74.0804 84.0858 73.9762L83.8287 73.8713C83.5383 73.7507 83.2345 73.9595 83.0252 74.1792C82.8162 74.3992 82.4724 74.8053 81.8899 75.1266C81.3074 75.4481 80.7815 75.5345 80.7815 75.5345L80.5609 75.7974C80.5443 75.7987 80.5454 75.8192 80.5454 75.8192L80.5464 75.8395L80.5966 75.9443L80.3614 76.1407L80.1729 76.053L80.1562 76.0543L79.8483 76.242C79.8316 76.2434 79.8338 76.284 79.8338 76.284L79.9067 76.4014L79.6476 76.5648L79.4412 76.4581L79.4245 76.4593L79.4077 76.4606L79.1173 76.6674L79.1186 76.6879L79.2104 76.8446L78.9467 76.9931L78.7739 76.8838C78.7739 76.8838 78.756 76.8646 78.7572 76.8851L78.4482 77.0523L78.4324 77.0741L78.4337 77.0946L78.4921 77.2536L78.2559 77.4316L78.0831 77.3222L78.0664 77.3234L78.0497 77.3248L77.7572 77.4909L77.7415 77.5127L77.7427 77.5329L77.8012 77.6923L77.4924 77.884L77.3528 77.772C77.3528 77.772 77.3349 77.7529 77.3196 77.7747C77.2229 77.8438 77.1434 77.9316 77.0646 78.0198C77.0491 78.0414 77.0491 78.0414 77.0667 78.0605L77.1268 78.1647C77.0652 78.272 76.7603 78.3802 76.1481 78.7524C75.5367 79.1247 74.5559 79.6433 74.1383 80.3933ZM89.3326 81.114L89.2616 79.7477L89.2604 79.7269C87.6264 79.9147 83.0777 80.329 80.1029 80.604C76.5875 80.9289 74.9011 80.8199 74.0654 80.8279L74.0486 81.7709C74.0509 81.8118 74.0686 81.8308 74.1028 81.8486L74.9628 81.9864C75.8562 82.1215 76.7785 82.1728 77.678 82.1028L89.2703 81.2008C89.3035 81.1978 89.3346 81.1544 89.3326 81.114ZM157.415 77.9517C157.415 77.7271 157.351 77.5581 157.21 77.4187C156.792 77.0043 155.872 76.9757 155.325 77.0143C155.199 78.4165 154.841 79.6837 154.322 80.7137C155.902 79.8134 157.415 78.6857 157.415 77.9517ZM143.035 61.5778L166.298 79.2149L143.03 96.915L143.035 61.5778ZM150.113 71.9566C150.061 72.5661 150.848 73.0819 150.784 73.8397C150.718 74.5975 150.647 75.0726 150.647 75.0726C150.647 75.0726 151.526 74.1805 151.592 73.4141C151.657 72.6479 150.869 72.1433 150.921 71.5309C150.973 70.919 151.058 70.2986 151.058 70.2986C151.058 70.2986 150.165 71.3475 150.113 71.9566ZM146.616 75.8767C146.616 78.6889 147.531 81.1358 148.882 82.4063H153.114C153.244 82.2829 153.367 82.1394 153.491 81.9944C154.915 81.2918 158.085 79.549 158.085 77.9517C158.085 77.512 157.934 77.1311 157.652 76.8497C157.048 76.2488 155.963 76.217 155.364 76.2516C155.368 76.1258 155.379 76.004 155.379 75.8767H148.009C147.99 76.266 148.001 76.809 148.121 77.4448C148.365 78.7391 148.749 79.3695 148.752 79.376C148.858 79.5468 148.823 79.7831 148.672 79.9034C148.613 79.9503 148.546 79.9732 148.479 79.9732C148.375 79.9732 148.272 79.918 148.207 79.8152C148.188 79.7849 147.743 79.0672 147.467 77.6031C147.337 76.9105 147.32 76.3194 147.34 75.8767H146.616ZM145.172 82.784C145.172 83.3206 146.389 83.7876 148.185 84.03H153.811C155.607 83.7876 156.824 83.3206 156.824 82.784H145.172ZM137.16 78.6001C137.212 78.8504 137.248 79.1068 137.248 79.3751C137.248 79.6215 137.219 79.8595 137.175 80.0912C137.065 80.6676 136.834 81.1918 136.504 81.6213C136.319 81.8604 136.108 82.0707 135.873 82.2446C135.397 82.5952 134.831 82.8007 134.222 82.8007C133.613 82.8007 133.048 82.5952 132.573 82.2446C132.337 82.0707 132.126 81.8604 131.942 81.6213C131.48 81.0196 131.197 80.2355 131.197 79.3751C131.197 78.5147 131.48 77.7304 131.942 77.1289C132.126 76.8896 132.337 76.6794 132.573 76.5053C133.048 76.1547 133.613 75.9493 134.222 75.9493C134.831 75.9493 135.397 76.1547 135.873 76.5053C136.108 76.6794 136.319 76.8896 136.504 77.1289C136.822 77.5431 137.046 78.0479 137.16 78.6001ZM135.802 77.8998C135.687 77.7508 135.487 77.7364 135.356 77.8668L134.477 78.7399C134.399 78.6997 134.314 78.6745 134.222 78.6745C134.167 78.6745 134.116 78.6947 134.064 78.7105L132.842 77.0203C132.731 76.8675 132.533 76.8462 132.398 76.9701C132.264 77.0953 132.244 77.3201 132.354 77.4731L133.628 79.2366C133.62 79.2827 133.604 79.3261 133.604 79.3751C133.604 79.7617 133.881 80.0756 134.222 80.0756C134.564 80.0756 134.841 79.7615 134.841 79.3751C134.841 79.3613 134.835 79.3495 134.834 79.3361L135.772 78.4038C135.904 78.274 135.917 78.0479 135.802 77.8998ZM132.573 83.1596V83.8482H135.873V83.1596C135.374 83.4383 134.816 83.5993 134.222 83.5993C133.63 83.5995 133.071 83.4383 132.573 83.1596ZM135.873 75.5906V74.9018H132.573V75.5906C133.072 75.3117 133.63 75.151 134.222 75.151C134.816 75.1508 135.374 75.3115 135.873 75.5906ZM141.437 61.5778L141.441 96.915L118.174 79.2149L141.437 61.5778ZM138.501 79.3435C138.501 78.908 138.644 78.5552 137.874 78.5318C137.691 77.5236 137.196 76.6452 136.504 76.0369V74.3519C136.504 74.2609 136.438 74.1872 136.357 74.1872H135.601V72.5883H132.844V74.1872H132.088C132.007 74.1872 131.942 74.2609 131.942 74.3519V76.0369C131.061 76.8098 130.492 78.0158 130.492 79.3751C130.492 80.7339 131.061 81.9403 131.942 82.7128V84.3978C131.942 84.4888 132.007 84.5627 132.088 84.5627H132.844V86.1613H135.601V84.5627H136.357C136.438 84.5627 136.504 84.4888 136.504 84.3978V82.7128C137.211 82.0919 137.711 81.1892 137.883 80.1545C138.642 80.1282 138.501 79.7771 138.501 79.3435ZM118.177 81.4251L141.441 99.0622L118.174 116.762L118.177 81.4251ZM120.488 96.0851H131.395V95.7129C131.395 95.4137 131.181 95.1717 130.917 95.1717H127.406C126.061 95.1717 125.673 93.0064 123.313 93.0064C121.371 93.0064 120.489 94.7316 120.489 95.7132L120.488 96.0851ZM119.471 101.754C119.517 101.827 119.589 101.87 119.668 101.87H120.564V104.205C120.564 104.354 120.672 104.476 120.803 104.476C120.935 104.476 121.043 104.354 121.043 104.205V101.87H131.08V104.205C131.08 104.354 131.188 104.476 131.319 104.476C131.452 104.476 131.559 104.354 131.559 104.205V101.87H132.187C132.265 101.87 132.338 101.827 132.383 101.754C132.427 101.681 132.437 101.588 132.41 101.505L131.441 98.5618C131.431 98.5348 131.411 98.5184 131.395 98.497V96.5589H120.489V98.4533C120.458 98.4829 120.429 98.5168 120.414 98.562L119.444 101.505C119.417 101.588 119.427 101.681 119.471 101.754ZM131.061 98.9607H130.169L130.443 100.303H128.63L128.51 98.9607H127.708L127.794 100.303H126.241L126.189 98.9607H125.472L125.404 100.303H123.851L123.936 98.9607H123.219L123.013 100.303H121.301L121.576 98.9607H120.792L120.012 101.329H131.841L131.061 98.9607ZM115.036 105.66H111.24V99.5017H115.036V105.66ZM113.377 105.355C113.377 105.205 113.269 105.084 113.138 105.084C113.006 105.084 112.898 105.205 112.898 105.355C112.898 105.504 113.006 105.625 113.138 105.625C113.27 105.625 113.377 105.504 113.377 105.355ZM114.754 99.8516H111.522V105.05H114.754V99.8516ZM116.581 81.4251L116.584 116.762L93.3177 99.0622L116.581 81.4251ZM110.814 102.073H108.338H105.774H101.811V94.2915H112.301V98.9761H112.583V93.9877H101.529V102.378H105.774V103.992H104.397V105.05H109.715V103.992H108.338V102.378H110.814V102.073ZM110.814 98.9761H111.968V94.723H102.144V101.643H110.814V98.9761ZM115.319 99.1978H110.956V105.964H115.319V99.1978ZM91.5686 59.452L68.3018 77.1523L68.3053 41.815L91.5686 59.452ZM70.8906 61.8483H81.5771L80.9459 58.3853C80.9158 58.2205 80.7945 58.0905 80.6363 58.0221C80.6484 57.9535 80.6374 57.8797 80.6002 57.8171L76.811 51.489C76.7725 51.2762 76.6596 51.094 76.5049 50.9776L76.3867 50.7805C76.3425 50.7065 76.2682 50.6618 76.1894 50.6618C76.1108 50.6618 76.0358 50.7061 75.9914 50.7801L75.9385 50.8679C75.6253 50.955 75.392 51.2726 75.392 51.6542C75.392 51.6904 75.3973 51.7252 75.4014 51.7604L71.757 57.8169C71.7098 57.8953 71.7081 57.9903 71.7379 58.0718C71.6273 58.1464 71.5455 58.2548 71.5215 58.3855L70.8906 61.8483ZM81.7613 62.8585L81.6758 62.3894H70.7921L70.7067 62.8585C70.5966 63.4636 71.114 64.0134 71.7938 64.0134H80.6744C81.354 64.0134 81.8714 63.4638 81.7613 62.8585ZM76.1092 52.4659C75.9403 52.4659 75.7867 52.3967 75.6641 52.2858L72.244 57.9691H80.1137L76.6494 52.1834C76.5177 52.355 76.3258 52.4659 76.1092 52.4659ZM149.473 58.4816C149.466 58.2574 149.3 58.0822 149.102 58.09C148.904 58.0978 148.749 58.2857 148.756 58.5097C148.763 58.7338 148.929 58.9091 149.126 58.9013C149.324 58.8935 149.479 58.706 149.473 58.4816ZM166.294 41.815L166.298 77.1523L143.03 59.452L166.294 41.815ZM149.181 59.8812C150.096 59.0727 151.925 58.5117 152.811 58.2766C153.554 58.0794 154.414 57.9749 155.296 57.9749C156.786 57.9749 158.232 58.2588 159.37 58.7744C160.032 59.074 160.475 59.3362 160.798 59.5277C161.166 59.7452 161.335 59.8414 161.499 59.8414C161.578 59.8414 161.673 59.8208 161.796 59.7762C161.847 59.7578 161.896 59.745 161.947 59.7285C161.37 59.4681 160.82 59.1346 161.135 58.9048C161.721 58.4776 163.346 58.8708 163.346 58.8708C163.346 58.8708 162.36 57.4839 160 58.0589C159.124 58.2724 159.185 57.6557 157.371 56.9088C156.844 56.6915 156.199 56.5392 155.578 56.4351C155.286 56.3861 155.05 55.2403 154.749 55.2161C154.313 55.1811 153.63 56.3338 153.193 56.3509C152.37 56.3828 151.418 56.4906 150.709 56.7056C149.434 57.093 147.336 57.9999 147.12 58.82C147.008 59.2438 148.091 59.6321 149.181 59.8812ZM162.869 60.8334C163.465 60.4273 165.109 60.8334 165.109 60.8334C165.109 60.8334 164.093 59.5139 161.942 60.2922C161.088 60.6011 160.986 60.0891 159.193 59.2772C157.401 58.4653 154.832 58.2962 152.92 58.8035C151.635 59.1448 149.364 59.954 149.125 60.7659C148.886 61.5778 153.129 62.4237 153.248 62.2207C153.368 62.0176 153.368 60.9687 153.368 60.9687C153.368 60.9687 153.398 61.9162 154.712 62.9311C156.027 63.9459 158.625 63.2356 157.849 63.0326C157.072 62.8295 156.385 61.9836 156.385 61.9836C156.385 61.9836 156.936 62.2354 157.034 62.2593C158.786 62.6851 161.438 61.2341 162.032 61.7467C162.659 62.2879 164.751 61.9498 164.751 61.9498C164.751 61.9498 162.27 61.2394 162.869 60.8334ZM151.127 60.0889C150.929 60.0889 150.769 60.2708 150.769 60.495C150.769 60.7191 150.929 60.9008 151.127 60.9008C151.325 60.9008 151.485 60.7191 151.485 60.495C151.485 60.2708 151.325 60.0889 151.127 60.0889ZM119.21 64.6452L117.776 70.9601L115.625 72.1329L115.704 69.5167L115.865 64.7354L113.872 64.8255L113.301 62.7236L112.021 64.0116L111.323 72.7647L107.34 69.6972L109.41 68.3442L109.226 64.4521L107.578 65.3669L106.463 60.9464L109.039 60.4745L108.933 56.7969L106.781 53.639L108.694 53.1882L111.084 48.1359L112.598 52.3763L114.111 53.0077L114.021 54.2434L116.661 54.0901L115.386 48.0455L119.848 50.2107L118.832 54.0135L121.68 53.3683L123.353 47.4145L127.256 50.662L123.752 53.5489L127.017 53.8196L128.133 57.2477L125.504 57.1575L125.186 61.0368L127.815 61.1269L128.77 64.6456L125.345 64.9163L124.548 71.3214L122.477 72.8551L121.122 64.5551L119.216 64.6414L119.21 64.6452ZM120.007 58.2396L119.768 60.4952L120 61.0072L122.316 60.946L121.998 57.4277L119.919 57.9367L120.007 58.2396ZM116.103 57.4277L114.35 57.5179L113.812 55.3231L112.359 56.8863V59.7732L114.59 59.9538L114.071 61.2741L116.103 61.2167V57.4277Z" fill="#D31F2A"/>
</g>
</g>
</g>
<defs>
<clipPath id="clip0_11_690">
<rect width="231.818" height="136.364" fill="white" transform="translate(0.863647 0.636353)"/>
</clipPath>
<clipPath id="clip1_11_690">
<rect width="231.818" height="136.364" fill="white" transform="translate(0.863647 0.636353)"/>
</clipPath>
<clipPath id="clip2_11_690">
<rect width="231.818" height="131.715" fill="white" transform="translate(0.863647 2.96075)"/>
</clipPath>
</defs>
</svg>
