<svg width="232" height="137" viewBox="0 0 232 137" fill="none" xmlns="http://www.w3.org/2000/svg">
<g clip-path="url(#clip0_11_645)">
<g clip-path="url(#clip1_11_645)">
<g clip-path="url(#clip2_11_645)">
<path d="M211.409 0H20.4999C12.9687 0 6.86353 6.10521 6.86353 13.6364V122.727C6.86353 130.258 12.9687 136.364 20.4999 136.364H211.409C218.94 136.364 225.045 130.258 225.045 122.727V13.6364C225.045 6.10521 218.94 0 211.409 0Z" fill="white"/>
<mask id="mask0_11_645" style="mask-type:luminance" maskUnits="userSpaceOnUse" x="20" y="32" width="192" height="73">
<path d="M211.409 32.0454H20.5V104.318H211.409V32.0454Z" fill="white"/>
</mask>
<g mask="url(#mask0_11_645)">
<mask id="mask1_11_645" style="mask-type:luminance" maskUnits="userSpaceOnUse" x="20" y="-32" width="192" height="196">
<path d="M211.409 -31.5546H20.5V163.582H211.409V-31.5546Z" fill="white"/>
</mask>
<g mask="url(#mask1_11_645)">
<path d="M42.6735 81.1484C35.3694 82.0616 29.2577 75.816 30.1525 68.5023C30.7481 63.4743 34.7725 59.3607 39.6915 58.7506C46.9957 57.8374 53.1074 64.083 52.2126 71.3967C51.617 76.4247 47.7415 80.5383 42.6735 81.1484ZM43.4181 48.848C30.1525 47.4769 19.2706 58.7506 20.6121 72.1591C21.6557 82.0616 29.5555 90.1376 39.2448 91.051C52.3615 92.4233 63.3922 81.1484 62.0508 67.7399C61.0072 57.8374 53.1074 49.7613 43.4181 48.848Z" fill="#0054FF"/>
<path d="M73.0821 49.6092C70.1001 49.6092 67.7163 52.3516 68.312 55.5518C68.7587 57.8375 70.9948 59.513 73.231 59.513H86.7958L65.7779 88.0043C65.0322 88.9187 65.7779 90.29 66.8215 90.29H99.9125C102.298 90.29 104.385 88.6144 104.832 86.3287C105.429 83.1285 103.043 80.3862 100.061 80.3862H83.516L104.534 51.8949C105.278 50.9803 104.534 49.6092 103.341 49.6092H73.0821Z" fill="#0054FF"/>
<path d="M205.299 49.4569C203.062 49.9136 201.572 52.047 201.572 54.4849V70.9402L175.188 49.6091C174.294 48.848 172.952 49.6091 172.952 50.6759V84.8052C172.952 87.0896 174.444 89.2231 176.827 89.8332C179.958 90.4421 182.79 88.0042 182.79 84.9574V68.3501L209.174 89.6797C210.069 90.4421 211.409 89.6797 211.409 88.6143V54.3327C211.26 51.2859 208.43 48.848 205.299 49.4569Z" fill="#0054FF"/>
<path d="M136.879 48.5425C120.781 48.5425 107.813 58.1418 107.813 69.8734C107.813 81.6051 120.929 91.051 137.028 91.051C153.127 91.051 166.094 81.4529 166.094 69.7213C165.946 57.9896 152.977 48.5425 136.879 48.5425ZM136.879 58.4463C148.059 58.4463 156.257 64.3889 156.257 69.7213C156.257 75.0536 147.909 81.1484 136.879 81.1484C125.7 81.1484 117.501 75.2059 117.501 69.8734C117.501 64.3889 125.849 58.4463 136.879 58.4463Z" fill="#0054FF"/>
<path d="M157.449 49.4568L156.405 63.6264C156.257 65.1497 155.81 66.6731 155.064 68.0455L144.779 87.3952L127.041 86.633L141.499 60.4274C142.245 59.0563 143.289 57.8373 144.63 56.9227L156.107 48.8481C156.703 48.2379 157.449 48.6946 157.449 49.4568Z" fill="#0B845F"/>
<path d="M144.63 56.7706L156.108 48.6946C156.704 48.2379 157.599 48.6946 157.45 49.4568L156.405 63.6264C156.257 65.1497 155.81 66.6732 155.064 68.0455L154.915 68.35C154.915 68.35 154.766 68.35 154.766 68.1978C154.169 67.8921 153.575 67.2833 153.425 66.6732C151.934 67.7398 149.848 68.0455 148.209 66.9789C146.418 65.9121 145.525 63.9308 145.824 61.9508C145.078 62.1031 144.182 62.1031 143.289 61.6464C142.692 61.3407 142.096 60.7318 141.948 60.1217C142.394 58.7506 143.437 57.6838 144.63 56.7706Z" fill="#F7E36F"/>
<path d="M153.87 53.876C152.976 53.4181 152.231 52.5037 151.784 51.7426L155.958 48.848C156.554 48.3901 157.449 48.848 157.3 49.6091L156.853 54.4849C155.958 54.4849 154.914 54.3327 153.87 53.876Z" fill="#0B845F"/>
<path d="M137.177 41.6866L139.562 55.7038C139.86 57.2272 139.711 58.7506 139.413 60.2752L132.258 88.1563L117.65 82.0615L124.358 56.1605C124.805 54.6372 125.551 53.1137 126.593 51.8947L135.687 41.0777C136.133 40.6198 137.028 40.9242 137.177 41.6866Z" fill="#FF0050"/>
<path d="M126.445 52.0471L135.538 41.23C135.985 40.6198 137.029 40.9243 137.029 41.6866L139.414 55.704C139.712 57.2273 139.563 58.7506 139.265 60.2753L139.115 60.5798H138.966C138.221 60.4275 137.624 59.9695 137.177 59.3608C135.985 60.8841 134.047 61.493 132.11 61.0363C130.022 60.4275 128.681 58.7506 128.532 56.7706C127.786 57.2273 126.893 57.3795 125.998 57.0751C125.252 56.9229 124.656 56.4662 124.21 55.8561C124.805 54.485 125.551 53.1139 126.445 52.0471Z" fill="#F7E36F"/>
<path d="M134.792 46.7146C133.749 46.4101 133.004 45.8 132.258 45.039L135.538 41.2299C135.985 40.6198 137.028 40.9242 137.028 41.6866L137.773 46.5624C137.028 46.8668 135.985 47.019 134.792 46.7146Z" fill="#FF0050"/>
<path d="M155.81 72.0068C153.872 76.5769 146.418 80.9962 136.879 80.9962C127.339 80.9962 119.886 76.5769 117.949 72.0068H107.962C109.452 82.6717 121.973 91.0508 137.028 90.8987C152.084 90.8987 164.305 82.5195 165.946 72.0068H155.81Z" fill="#0054FF"/>
</g>
</g>
</g>
</g>
</g>
<defs>
<clipPath id="clip0_11_645">
<rect width="231.818" height="136.364" fill="white" transform="translate(0.0454102)"/>
</clipPath>
<clipPath id="clip1_11_645">
<rect width="231.818" height="136.364" fill="white" transform="translate(0.0454102)"/>
</clipPath>
<clipPath id="clip2_11_645">
<rect width="218.182" height="136.364" fill="white" transform="translate(6.86353)"/>
</clipPath>
</defs>
</svg>
