<svg width="232" height="137" viewBox="0 0 232 137" fill="none" xmlns="http://www.w3.org/2000/svg">
<g clip-path="url(#clip0_11_668)">
<g clip-path="url(#clip1_11_668)">
<g clip-path="url(#clip2_11_668)">
<path d="M211.5 0H20.591C13.0598 0 6.95459 6.10521 6.95459 13.6364V122.727C6.95459 130.258 13.0598 136.364 20.591 136.364H211.5C219.031 136.364 225.136 130.258 225.136 122.727V13.6364C225.136 6.10521 219.031 0 211.5 0Z" fill="white"/>
<path fill-rule="evenodd" clip-rule="evenodd" d="M136.976 86.5763C126.775 93.3556 111.958 96.9413 99.2308 96.9413C81.3566 96.9413 65.2914 91.0024 53.0945 81.1417C52.1274 80.3573 53.0008 79.3208 54.155 79.9091C67.2879 86.7724 83.5402 90.9184 100.291 90.9184C111.615 90.9184 124.061 88.8173 135.479 84.4473C137.225 83.775 138.692 85.4557 136.976 86.5763Z" fill="#FF9900"/>
<path fill-rule="evenodd" clip-rule="evenodd" d="M141.25 82.2061C139.94 80.6934 132.609 81.5057 129.334 81.8419C128.336 81.954 128.18 81.1696 129.084 80.6093C134.918 76.9115 144.494 77.9761 145.617 79.2087C146.74 80.4413 145.336 89.0694 139.846 93.1875C139.004 93.8318 138.193 93.4956 138.567 92.6552C139.784 89.9098 142.56 83.7188 141.25 82.2061Z" fill="#FF9900"/>
<path fill-rule="evenodd" clip-rule="evenodd" d="M129.552 54.5847V50.9991C129.552 50.4667 130.02 50.1026 130.55 50.1026H148.425C148.985 50.1026 149.453 50.4667 149.453 50.9991V54.0805C149.453 54.5847 148.954 55.257 148.113 56.3216L138.848 68.1994C142.279 68.1153 145.929 68.5916 149.048 70.1603C149.765 70.5244 149.953 71.0287 149.983 71.5611V75.3708C149.983 75.9031 149.329 76.5194 148.674 76.1832C143.184 73.606 135.884 73.2978 129.77 76.2112C129.146 76.5194 128.491 75.9031 128.491 75.3708V71.7291C128.491 71.1408 128.491 70.1603 129.146 69.2639L139.877 55.4532H130.55C130.02 55.4812 129.552 55.117 129.552 54.5847Z" fill="#212121"/>
<path fill-rule="evenodd" clip-rule="evenodd" d="M64.3246 76.9396H58.8968C58.3665 76.9115 57.9609 76.5474 57.9297 76.1271V51.0549C57.9297 50.5508 58.3977 50.1586 58.9903 50.1586H64.0438C64.5741 50.1865 65.0108 50.5508 65.042 50.999V54.2765H65.1357C66.4457 51.1109 68.9413 49.6262 72.2791 49.6262C75.6793 49.6262 77.8005 51.1109 79.329 54.2765C80.6391 51.1109 83.6338 49.6262 86.8468 49.6262C89.1241 49.6262 91.6195 50.4666 93.148 52.3716C94.8638 54.4726 94.5207 57.5541 94.5207 60.2434V76.0711C94.5207 76.5754 94.0527 76.9675 93.46 76.9675H88.0322C87.5019 76.9396 87.0651 76.5474 87.0651 76.0711V62.7927C87.0651 61.7281 87.1588 59.0949 86.9093 58.0864C86.5037 56.4055 85.2871 55.9294 83.6963 55.9294C82.3861 55.9294 81.0135 56.7137 80.4521 57.9743C79.8905 59.2349 79.953 61.364 79.953 62.7646V76.0431C79.953 76.5473 79.485 76.9396 78.8923 76.9396H73.4645C72.9342 76.9115 72.4974 76.5193 72.4974 76.0431V62.7646C72.4974 59.9633 72.9966 55.8454 69.1596 55.8454C65.2605 55.8454 65.4163 59.8512 65.4163 62.7646V76.0431C65.3852 76.5473 64.9172 76.9396 64.3246 76.9396Z" fill="#212121"/>
<path fill-rule="evenodd" clip-rule="evenodd" d="M164.864 49.6262C172.943 49.6262 177.311 55.8454 177.311 63.7731C177.311 71.4208 172.476 77.4998 164.864 77.4998C156.941 77.4998 152.636 71.2808 152.636 63.521C152.636 55.6772 157.004 49.6262 164.864 49.6262ZM164.895 54.7528C160.871 54.7528 160.621 59.6551 160.621 62.7087C160.621 65.7621 160.559 72.3173 164.832 72.3173C169.045 72.3173 169.263 67.0508 169.263 63.8292C169.263 61.7282 169.169 59.1789 168.451 57.1899C167.858 55.4251 166.642 54.7528 164.895 54.7528Z" fill="#212121"/>
<path fill-rule="evenodd" clip-rule="evenodd" d="M187.761 76.9396H182.333C181.803 76.9115 181.365 76.5193 181.365 76.0431V50.9709C181.396 50.5227 181.864 50.1586 182.395 50.1586H187.448C187.916 50.1865 188.322 50.4666 188.415 50.8588V54.6968H188.509C190.038 51.2791 192.158 49.6262 195.933 49.6262C198.367 49.6262 200.768 50.4107 202.266 52.5677C203.7 54.5847 203.7 57.9463 203.7 60.3835V76.1551C203.639 76.6033 203.201 76.9396 202.672 76.9396H197.212C196.713 76.9115 196.308 76.5754 196.245 76.1551V62.5405C196.245 59.7953 196.589 55.7893 192.846 55.7893C191.535 55.7893 190.319 56.5737 189.694 57.8063C188.946 59.347 188.821 60.8597 188.821 62.5405V76.0431C188.821 76.5474 188.354 76.9396 187.761 76.9396Z" fill="#212121"/>
<path fill-rule="evenodd" clip-rule="evenodd" d="M115.296 64.9778C115.296 66.8827 115.358 68.4795 114.266 70.1603C113.393 71.533 112.02 72.3734 110.492 72.3734C108.402 72.3734 107.185 70.9447 107.185 68.8437C107.185 64.6976 111.334 63.9413 115.265 63.9413V64.9778H115.296ZM120.786 76.8836C120.412 77.1637 119.913 77.1918 119.507 76.9957C117.698 75.651 117.386 75.0346 116.388 73.746C113.393 76.4633 111.272 77.3037 107.435 77.3037C102.849 77.3037 99.293 74.7545 99.293 69.6841C99.293 65.7061 101.695 63.0168 105.095 61.7002C108.059 60.5236 112.176 60.3275 115.327 60.0194V59.375C115.327 58.1985 115.42 56.8259 114.672 55.8454C114.017 54.949 112.738 54.5847 111.615 54.5847C109.556 54.5847 107.684 55.5372 107.248 57.5262C107.154 57.9745 106.811 58.3946 106.312 58.4225L101.04 57.9184C100.603 57.8343 100.104 57.4981 100.229 56.9099C101.445 51.167 107.216 49.4302 112.395 49.4302C115.046 49.4302 118.509 50.0745 120.599 51.8674C123.25 54.0804 123.001 57.0499 123.001 60.2715V67.8352C123.001 70.1322 124.061 71.1408 125.06 72.3734C125.403 72.8216 125.496 73.3538 125.028 73.662C123.843 74.4744 121.878 76.0151 120.786 76.8836Z" fill="#212121"/>
<path fill-rule="evenodd" clip-rule="evenodd" d="M43.9858 64.9778C43.9858 66.8827 44.0482 68.4795 42.9564 70.1603C42.083 71.533 40.7104 72.3734 39.1819 72.3734C37.0918 72.3734 35.8753 70.9447 35.8753 68.8437C35.8753 64.6976 40.0242 63.9413 43.9546 63.9413V64.9778H43.9858ZM49.476 76.8836C49.1017 77.1637 48.6026 77.1918 48.197 76.9957C46.3877 75.651 46.0759 75.0346 45.0776 73.746C42.083 76.4633 39.993 77.3037 36.1249 77.3037C31.5392 77.3037 27.9832 74.7545 27.9832 69.6841C27.9832 65.7061 30.3851 63.0168 33.7853 61.7002C36.7487 60.5236 40.8664 60.3275 44.0171 60.0194V59.375C44.0171 58.1985 44.1106 56.8259 43.362 55.8454C42.7069 54.949 41.4279 54.5847 40.3048 54.5847C38.246 54.5847 36.3744 55.5372 35.9377 57.5262C35.8441 57.9745 35.501 58.3946 35.0019 58.4225L29.73 57.9184C29.2933 57.8343 28.7942 57.4981 28.919 56.9099C30.1355 51.167 35.9066 49.4302 41.0847 49.4302C43.7363 49.4302 47.1988 50.0745 49.2889 51.8674C51.9403 54.0804 51.6908 57.0499 51.6908 60.2715V67.8352C51.6908 70.1322 52.7514 71.1408 53.7496 72.3734C54.0928 72.8216 54.1864 73.3538 53.7184 73.662C52.5642 74.4744 50.5678 76.0151 49.476 76.8836Z" fill="#212121"/>
</g>
</g>
</g>
<defs>
<clipPath id="clip0_11_668">
<rect width="231.818" height="136.364" fill="white" transform="translate(0.13623)"/>
</clipPath>
<clipPath id="clip1_11_668">
<rect width="231.818" height="136.364" fill="white" transform="translate(0.13623)"/>
</clipPath>
<clipPath id="clip2_11_668">
<rect width="218.182" height="136.364" fill="white" transform="translate(6.95459)"/>
</clipPath>
</defs>
</svg>
