<svg width="233" height="137" viewBox="0 0 233 137" fill="none" xmlns="http://www.w3.org/2000/svg">
<g clip-path="url(#clip0_11_680)">
<g clip-path="url(#clip1_11_680)">
<g clip-path="url(#clip2_11_680)">
<path d="M211.591 0H20.6818C13.1506 0 7.04541 6.10521 7.04541 13.6364V122.727C7.04541 130.258 13.1506 136.364 20.6818 136.364H211.591C219.122 136.364 225.227 130.258 225.227 122.727V13.6364C225.227 6.10521 219.122 0 211.591 0Z" fill="white"/>
<mask id="mask0_11_680" style="mask-type:luminance" maskUnits="userSpaceOnUse" x="20" y="13" width="192" height="110">
<path d="M211.591 13.6364H20.6819V122.727H211.591V13.6364Z" fill="white"/>
</mask>
<g mask="url(#mask0_11_680)">
<path d="M185.007 89.7596C180.639 90.2913 175.925 89.0286 174.33 85.041C173.428 82.9143 173.289 80.3888 173.983 78.1292C175.577 72.7459 177.38 67.2298 178.906 61.8465C179.807 58.8558 180.709 55.7987 181.471 52.8079C181.61 52.0769 181.68 51.4123 181.61 50.6812C181.61 50.1495 181.264 49.6843 180.709 49.6843C180.57 49.6843 180.362 49.6843 180.293 49.8172C179.391 50.1495 178.628 50.5483 177.796 51.2129C175.577 53.6054 173.637 56.1974 172.041 58.9888C169.13 63.8403 166.217 68.6918 163.167 73.4106C162.057 75.0056 160.67 76.5341 159.215 77.8634C158.521 78.3951 157.759 78.8602 156.857 79.0596C155.54 79.5913 153.945 78.8602 153.391 77.5311C153.391 77.3981 153.252 77.1988 153.252 77.1323C152.906 75.7367 152.836 74.341 153.043 72.9453C153.459 68.7584 154.985 64.8371 156.095 60.8496C156.441 59.5868 156.788 58.2577 156.996 56.862C157.134 56.1974 156.857 55.5993 156.441 55.134C155.747 54.9347 155.124 55.0011 154.5 55.3334C153.182 56.3968 151.935 57.4601 150.755 58.7892C147.635 63.1092 144.793 67.7614 142.297 72.48C140.633 75.6037 138.899 78.7274 137.235 81.8509C137.097 82.1833 136.889 82.3826 136.819 82.582C136.126 83.446 135.918 84.8417 134.67 84.9746C132.521 85.3068 130.51 84.5757 129.054 83.0472C127.806 81.6516 127.459 79.7242 128.014 77.8634C128.915 74.6068 130.163 71.4832 131.273 68.3595C132.59 64.7707 134.323 61.3813 135.017 57.5931C135.225 56.3968 135.363 55.134 135.225 53.9377C135.225 52.0103 133.907 50.2825 131.827 49.7508C129.816 49.2191 127.667 49.2191 125.656 49.7508C126.003 51.0135 126.35 52.3427 126.419 53.539C126.835 57.1278 126.211 60.6502 124.616 63.9067C121.15 71.749 115.256 78.3285 107.768 82.7813C105.549 84.31 102.914 85.041 100.21 85.041C96.8129 85.174 93.9009 82.6485 93.6928 79.3255C93.2767 76.069 93.9008 72.7459 95.4955 69.7552C98.4075 63.8403 102.776 58.7893 108.184 54.6688C109.987 53.2732 111.997 51.9439 113.8 50.6812L114.493 50.2825C113.384 49.5514 111.997 49.2191 110.68 49.5514C108.323 50.0831 106.173 51.0799 104.37 52.675C99.6557 56.3303 96.1889 60.9825 92.7914 65.8341C88.1459 72.7459 85.1646 80.3888 82.4605 88.1647C80.103 95.0764 77.607 101.988 75.1803 108.834C74.6256 110.362 73.8629 111.758 73.1695 113.154C72.8228 113.818 72.0602 114.217 71.2282 114.018C70.6735 113.885 70.1188 113.885 69.6334 113.818C65.8893 112.954 64.2253 110.229 65.3347 106.707C66.444 103.185 67.8307 99.5958 69.1481 96.007C72.7536 86.769 76.4283 77.5975 80.0338 68.2931C81.8365 63.5744 83.2924 58.7228 84.3325 53.8713C84.8872 51.4787 85.0259 49.0198 84.5406 46.6271C84.4019 46.0954 84.1938 45.4308 83.9859 44.8991C87.2445 44.1681 90.7113 45.6303 92.1674 48.5545C93.4154 51.1465 93.8314 54.1371 93.2767 56.9948L93.138 57.8588L93.3461 57.9918L94.1088 56.9948C96.9516 53.539 100.28 50.5483 104.093 48.1558C107.837 45.8961 112.205 44.6998 116.712 44.8327C118.653 44.8327 120.526 45.3644 122.19 46.3613C122.536 46.4942 122.952 46.4942 123.438 46.3613C126.488 45.298 129.747 44.7663 133.075 44.8327C137.235 44.9657 140.633 46.3613 142.505 50.0831C143.406 52.0103 143.961 54.0707 143.961 56.1974C144.099 57.9254 143.961 59.6533 143.961 61.4477L144.724 60.2515C146.526 57.2607 149.022 54.5359 151.796 52.2763C153.807 50.7476 156.302 49.8836 158.867 49.8172C160.879 49.6843 162.821 50.8142 163.583 52.6086C164.691 55.0676 165.177 57.8588 164.9 60.5838C164.9 61.1155 164.9 61.6472 165.039 62.1123L166.494 59.6533C168.436 55.998 170.863 52.542 173.705 49.5514C175.716 47.1588 178.56 45.6967 181.68 44.8991C186.602 44.0353 190.208 46.8265 190.346 51.6782C190.208 54.6023 189.653 57.5265 188.682 60.1849C187.088 64.8371 185.562 69.4229 184.036 74.0751C183.135 76.8664 182.581 79.7906 182.581 82.7149C182.651 85.3733 183.482 87.8324 185.007 89.7596ZM116.781 53.539C116.435 53.6719 116.365 53.7383 116.227 53.8713C109.848 57.726 104.509 63.1093 100.696 69.4229C99.2396 71.6826 98.3383 74.1416 98.1303 76.7335C97.9222 77.7968 98.3383 78.8602 99.1702 79.4584C100.21 79.9901 101.389 79.9901 102.29 79.3255C103.538 78.5944 104.786 77.5975 105.896 76.6007C110.611 71.9483 114.077 66.1664 115.88 59.9192C116.435 57.8588 116.781 55.7321 116.781 53.539Z" fill="#AF4444"/>
<path d="M84.6104 24.8946C79.6875 25.094 74.9727 26.4232 70.6739 28.6829C63.6018 32.3382 57.4309 37.655 52.7854 43.9686C50.7747 46.5606 49.18 49.4848 47.3772 52.2762C47.1693 52.6085 47.0306 53.0072 46.8226 53.3395L47.0306 53.5389C47.2386 53.3395 47.4466 53.0072 47.724 52.8078C51.468 48.9531 56.2522 46.2283 61.6604 45.1649C63.8097 44.7662 66.0285 44.7662 68.1779 45.1649C72.1992 46.1619 74.4874 48.8203 75.2501 52.6085C75.9434 56.4632 75.4581 60.4507 73.6553 64.0396C70.0499 72.6794 63.1857 79.6577 54.5189 83.7782C51.1214 85.3732 47.2386 85.7056 43.6332 84.6422C38.2251 83.1136 35.3129 79.4583 33.9956 74.5402C32.8861 69.6887 32.9556 64.7042 34.4116 59.9855C37.1156 49.5513 42.7319 39.9147 50.7053 32.2717C54.8655 28.0847 59.9269 24.6288 65.5431 22.3692C68.9406 20.9735 72.6153 20.3088 76.3594 20.3088C79.2022 20.3088 81.8369 21.5052 83.6396 23.6319C83.917 23.8978 84.1249 24.3629 84.6104 24.8946ZM42.4545 73.2775C42.4545 75.0055 42.8704 76.7334 43.7718 78.3284C44.6731 79.8571 46.4759 80.5881 48.2786 80.1894C50.2894 79.7906 52.2307 78.7937 53.7561 77.398C58.4016 73.5434 61.8683 68.5589 63.879 63.0427C65.1964 60.1184 65.8204 56.9283 65.4738 53.6718C65.1271 50.4153 63.1163 48.9531 59.8576 49.5513C58.6096 49.7507 57.3615 50.216 56.2522 50.8141C52.6467 52.8742 49.596 55.7986 47.3772 59.2544C44.4652 63.5079 42.6625 68.3594 42.4545 73.2775Z" fill="#AF4444"/>
</g>
</g>
</g>
</g>
<defs>
<clipPath id="clip0_11_680">
<rect width="231.818" height="136.364" fill="white" transform="translate(0.227295)"/>
</clipPath>
<clipPath id="clip1_11_680">
<rect width="231.818" height="136.364" fill="white" transform="translate(0.227295)"/>
</clipPath>
<clipPath id="clip2_11_680">
<rect width="218.182" height="136.364" fill="white" transform="translate(7.04541)"/>
</clipPath>
</defs>
</svg>
