<svg width="232" height="137" viewBox="0 0 232 137" fill="none" xmlns="http://www.w3.org/2000/svg">
<g clip-path="url(#clip0_11_735)">
<g clip-path="url(#clip1_11_735)">
<g clip-path="url(#clip2_11_735)">
<path d="M221.417 3.78906H10.6737C4.85413 3.78906 0.136475 8.50672 0.136475 14.3263V123.913C0.136475 129.733 4.85413 134.45 10.6737 134.45H221.417C227.237 134.45 231.955 129.733 231.955 123.913V14.3263C231.955 8.50672 227.237 3.78906 221.417 3.78906Z" fill="white"/>
<mask id="mask0_11_735" style="mask-type:luminance" maskUnits="userSpaceOnUse" x="16" y="20" width="196" height="86">
<path d="M211.934 20.6485H16.996V106H211.934V20.6485Z" fill="white"/>
</mask>
<g mask="url(#mask0_11_735)">
<mask id="mask1_11_735" style="mask-type:luminance" maskUnits="userSpaceOnUse" x="16" y="-28" width="196" height="189">
<path d="M211.934 -27.5426H16.996V160.578H211.934V-27.5426Z" fill="white"/>
</mask>
<g mask="url(#mask1_11_735)">
<path d="M65.6409 77.2384V48.2768H83.379V51.9078H69.3137V60.8127H81.9453V64.4437H69.3137V73.5211H84.3642V77.1522H65.6409V77.2384Z" fill="#E43225"/>
<path d="M102.998 77.239L96.9055 69.5451L90.8139 77.239H86.514L94.8452 66.9511L86.066 56.3176H90.9034L96.9055 64.2713L102.998 56.3176H107.745L99.4142 66.9511L107.298 77.239H102.998Z" fill="#E43225"/>
<path d="M113.211 74.1261V88.3906H109.538V67.037C109.538 61.5902 113.838 55.7979 120.558 55.7979C127.366 55.7979 132.472 59.9479 132.472 66.7778C132.472 73.4345 127.276 78.0164 121.364 78.0164C118.496 78.0164 114.644 76.8059 113.211 74.1261ZM128.62 66.7778C128.62 62.1092 125.485 59.3426 119.929 59.6019C117.243 59.6887 113.121 61.5902 113.48 68.2471C113.569 70.4088 115.899 74.4716 121.005 74.4716C125.395 74.4716 128.62 72.0511 128.62 66.7778Z" fill="#E43225"/>
<path d="M135.607 77.238V56.3166H139.28V58.5642C141.071 56.576 143.849 55.8844 146.806 55.8844V59.6884C146.358 59.6017 141.967 59.0832 139.28 64.6163V77.3246H135.607V77.238Z" fill="#E43225"/>
<path d="M147.791 66.7778C147.791 60.7257 152.27 55.7979 158.451 55.7979C166.156 55.7979 169.023 60.7256 169.023 67.037V68.766H151.823C152.091 72.7426 155.765 74.8176 159.169 74.7313C161.677 74.6446 163.379 73.9531 165.171 72.224L167.589 74.6446C165.35 76.7196 162.483 78.1027 158.99 78.1027C152.45 78.0164 147.791 73.3478 147.791 66.7778ZM158.183 59.3426C154.689 59.3426 152.002 62.2822 151.823 65.481H165.171C165.171 62.3685 162.841 59.3426 158.183 59.3426Z" fill="#E43225"/>
<path d="M170.904 74.2998L173.591 71.9656C173.501 71.9656 174.935 73.3486 175.114 73.4353C175.742 73.9538 176.369 74.2998 177.175 74.4724C179.503 75.0776 183.714 74.905 184.073 71.7926C184.252 70.0635 182.908 69.1127 181.385 68.5075C179.415 67.8155 177.264 67.5563 175.294 66.6917C173.054 65.7409 171.621 64.0982 171.621 61.6777C171.621 55.3663 180.938 54.3293 185.147 57.2684C185.327 57.4413 187.387 59.2571 187.298 59.2571L184.61 61.3316C183.266 59.7756 182.012 58.9973 179.145 58.9973C177.712 58.9973 175.742 59.6026 175.382 61.0724C174.845 63.1474 177.264 63.9252 178.877 64.3575C181.027 64.8765 183.356 65.222 185.238 66.3462C187.835 67.9022 188.462 71.274 187.477 73.8675C186.402 76.7204 183.177 77.8442 180.311 77.9309C176.906 78.1034 173.949 77.0663 171.531 74.7321C171.352 74.7321 170.904 74.2998 170.904 74.2998Z" fill="#E43225"/>
<path d="M189.806 74.2998L192.494 71.9656C192.404 71.9656 193.837 73.3486 194.016 73.4353C194.643 73.9538 195.27 74.2998 196.078 74.4724C198.406 75.0776 202.617 74.905 202.975 71.7926C203.154 70.0635 201.81 69.1127 200.287 68.5075C198.317 67.8155 196.166 67.5563 194.196 66.6917C191.956 65.7409 190.522 64.0982 190.522 61.6777C190.522 55.3663 199.839 54.3293 204.05 57.2684C204.229 57.4413 206.289 59.2571 206.2 59.2571L203.513 61.3316C202.169 59.7756 200.914 58.9973 198.048 58.9973C196.615 58.9973 194.643 59.6026 194.285 61.0724C193.748 63.1474 196.166 63.9252 197.779 64.3575C199.929 64.8765 202.259 65.222 204.14 66.3462C206.737 67.9022 207.365 71.274 206.38 73.8675C205.304 76.7204 202.08 77.8442 199.212 77.9309C195.808 78.1034 192.852 77.0663 190.433 74.7321C190.254 74.7321 189.806 74.2998 189.806 74.2998Z" fill="#E43225"/>
<path d="M207.275 56.3173V54.0693H206.468V53.637H208.619V54.0693H207.813V56.3173H207.275Z" fill="#E43225"/>
<path d="M211.307 56.3173V54.2423L210.5 56.3173H210.322L209.514 54.2423V56.3173H209.067V53.637H209.783L210.5 55.4528L211.217 53.637H211.934V56.3173H211.307Z" fill="#E43225"/>
<path d="M40.7363 77.2384L38.0486 70.3223H23.5356L20.8479 77.2384H16.996L28.6419 48.2768H32.8524L44.409 77.2384H40.7363ZM30.6129 52.4268L25.1484 66.778H36.5257L30.6129 52.4268Z" fill="#F7971D"/>
<path d="M46.8271 77.2384V48.2768H50.5899V77.2384H46.8271Z" fill="#F7971D"/>
<path d="M56.2346 77.2379V56.7488H59.9972V77.2379H56.2346Z" fill="#F7971D"/>
<path d="M63.5799 50.0922C63.5799 50.0054 63.5799 50.0054 63.5799 49.9191C63.5799 49.8328 63.5799 49.8328 63.5799 49.7461C60.7132 49.6599 58.3836 47.4119 58.2943 44.6454C58.2044 44.6454 58.115 44.6454 58.0256 44.6454C57.9358 44.6454 57.8463 44.6454 57.7565 44.6454C57.6671 47.4119 55.3376 49.6599 52.4713 49.7461C52.4713 49.8328 52.4713 49.8328 52.4713 49.9191C52.4713 50.0054 52.4713 50.0054 52.4713 50.0922C55.3376 50.1785 57.6671 52.4265 57.7565 55.193C57.8463 55.193 57.9358 55.193 58.0256 55.193C58.115 55.193 58.2044 55.193 58.2943 55.193C58.3836 52.4265 60.7132 50.1785 63.5799 50.0922Z" fill="#F7971D"/>
</g>
</g>
</g>
</g>
</g>
<defs>
<clipPath id="clip0_11_735">
<rect width="231.818" height="136.364" fill="white" transform="translate(0.13623 0.636353)"/>
</clipPath>
<clipPath id="clip1_11_735">
<rect width="231.818" height="136.364" fill="white" transform="translate(0.13623 0.636353)"/>
</clipPath>
<clipPath id="clip2_11_735">
<rect width="231.818" height="131.715" fill="white" transform="translate(0.136475 2.96075)"/>
</clipPath>
</defs>
</svg>
