<svg width="233" height="137" viewBox="0 0 233 137" fill="none" xmlns="http://www.w3.org/2000/svg">
<g clip-path="url(#clip0_11_604)">
<g clip-path="url(#clip1_11_604)">
<g clip-path="url(#clip2_11_604)">
<path d="M212.227 0H21.3181C13.787 0 7.68176 6.10521 7.68176 13.6364V122.727C7.68176 130.258 13.787 136.364 21.3181 136.364H212.227C219.758 136.364 225.864 130.258 225.864 122.727V13.6364C225.864 6.10521 219.758 0 212.227 0Z" fill="white"/>
<mask id="mask0_11_604" style="mask-type:luminance" maskUnits="userSpaceOnUse" x="21" y="20" width="192" height="96">
<path d="M212.227 20.4546H21.3182V115.909H212.227V20.4546Z" fill="white"/>
</mask>
<g mask="url(#mask0_11_604)">
<mask id="mask1_11_604" style="mask-type:luminance" maskUnits="userSpaceOnUse" x="21" y="-27" width="192" height="196">
<path d="M212.227 -26.9457H21.3182V168.987H212.227V-26.9457Z" fill="white"/>
</mask>
<g mask="url(#mask1_11_604)">
<path fill-rule="evenodd" clip-rule="evenodd" d="M105.115 60.9761C103.736 60.1793 101.66 59.8005 98.8082 59.8005C94.9086 59.8005 91.2814 60.6574 89.9233 61.1943C89.5504 61.2974 89.2831 61.6344 89.2628 62.0302V62.1504L89.651 64.1619V64.2012C89.7871 64.5995 90.1168 64.7981 90.4273 64.7981L90.6602 64.7589L91.3005 64.5995C93.0072 64.1619 95.5692 63.4841 98.4405 63.4841C100.187 63.4841 101.35 63.6434 102.126 63.9817C103.407 64.5003 103.426 65.3558 103.446 66.7692V68.901H102.67C101.253 68.901 98.4977 68.9598 95.7816 69.4182C91.6301 70.0752 88.2154 71.111 88.2154 77.0634C88.2154 84.6304 94.9481 84.6304 98.1885 84.65C100.38 84.65 102.397 84.3117 103.736 84.0335C106.744 83.2968 107.52 82.3014 107.481 79.1744V66.5902C107.481 64.6792 107.481 62.2901 105.115 60.9761ZM103.465 80.4087C101.771 80.9587 100.003 81.2277 98.2266 81.2055C95.2586 81.2055 92.3479 80.8477 92.3479 76.8845C92.3479 73.7392 93.9782 73.3604 96.0146 72.9031L96.1508 72.8628C97.9556 72.4643 102.514 72.3847 103.465 72.365V80.4087ZM141.103 66.5902V79.1744C141.161 82.3014 140.386 83.2968 137.359 84.0139C136.039 84.3117 134.022 84.65 131.829 84.65C128.589 84.65 121.857 84.6304 121.857 77.0634C121.838 71.111 125.252 70.0752 129.424 69.4182C132.14 68.9598 134.895 68.88 136.291 68.88H137.068V66.7901C137.068 65.3754 137.049 64.5199 135.768 64.0025C134.992 63.663 133.827 63.5049 132.081 63.5049C129.21 63.5049 126.649 64.1816 124.942 64.6192L124.282 64.7784C124.08 64.8465 123.858 64.8243 123.671 64.7184C123.483 64.6139 123.346 64.4337 123.293 64.2207V64.1816L122.905 62.1699V62.0512C122.905 61.5926 123.234 61.2935 123.545 61.1943C124.922 60.6769 128.551 59.8201 132.45 59.8201C135.302 59.8201 137.359 60.2184 138.755 61.0152C141.123 62.3097 141.123 64.6988 141.103 66.6112V66.5902ZM137.106 72.365C136.136 72.365 131.596 72.4643 129.793 72.8628L129.637 72.9031C127.6 73.3604 125.99 73.7392 125.97 76.8845C125.97 80.8477 128.88 81.2055 131.869 81.2251V81.4054V81.2055C133.644 81.2277 135.413 80.9587 137.106 80.4087V72.365ZM202.042 59.8005C192.67 59.8005 191.875 66.2324 191.875 72.2449C191.875 78.239 192.67 84.6304 202.042 84.65C211.413 84.6304 212.208 78.2587 212.227 72.2449C212.227 65.9528 211.413 59.8201 202.042 59.8005ZM202.042 81.1259C196.357 81.1259 196.067 78.0601 196.029 72.2449C196.086 66.3916 196.357 63.3455 202.042 63.305C207.726 63.3455 208.018 66.3916 208.056 72.2449C208.018 78.0601 207.726 81.1062 202.042 81.1259ZM185.222 83.754L184.989 83.8336C183.669 84.1719 181.884 84.6304 178.721 84.6304C170.049 84.6304 168.343 80.0704 168.343 72.2056C168.343 63.1653 171.096 59.8201 178.469 59.8005C181.07 59.8005 182.874 60.1597 184.154 60.4771V53.2106C184.135 52.8919 184.27 52.4726 184.989 52.3342L187.297 51.7163H187.434C187.956 51.7163 188.151 52.214 188.151 52.632V79.9515C188.17 81.6836 187.975 83.157 185.241 83.754H185.222ZM184.135 63.9817C183.358 63.7831 181.225 63.2659 178.799 63.2659C174.377 63.305 172.494 64.559 172.454 72.2449C172.513 80.6883 174.918 81.1455 178.858 81.186V81.3649V81.1664C181.303 81.1664 183.397 80.6478 184.135 80.4296V63.9817ZM163.453 84.0727H161.396C160.862 84.0727 160.426 83.6273 160.426 83.0774V66.8292C160.387 64.1019 159.592 63.3247 156.74 63.2855C153.558 63.2855 150.299 64.1214 149.233 64.4401V83.0381C149.233 83.6351 148.844 84.053 148.321 84.053H146.206C145.67 84.053 145.235 83.6077 145.235 83.0577V64.8777C145.216 63.2058 145.352 62.0512 147.661 61.2739C149.852 60.4771 154.063 59.8005 156.836 59.8005C162.134 59.8005 164.403 61.7925 164.403 66.4714V83.0774C164.403 83.6273 163.97 84.0727 163.434 84.0727H163.453ZM116.774 84.5116C117.977 84.4906 118.85 84.2516 119.179 83.8336C119.298 83.7135 119.36 83.5475 119.354 83.3764C119.354 83.2368 119.354 83.2368 119.024 81.6444V81.6039C118.927 81.2055 118.656 81.0069 118.423 81.0069H117.802C116.948 80.9861 116.25 80.8477 116.25 79.5728V52.632C116.25 52.1944 115.979 51.7163 115.475 51.7163H115.338L113.011 52.3342C112.622 52.3733 112.234 52.6725 112.234 53.2106V79.6524C112.234 82.7782 113.863 84.5116 116.774 84.5116ZM84.1808 84.0727H67.6507C67.1147 84.0727 66.6808 83.6273 66.6808 83.0774V80.9664C66.6808 80.4492 66.836 80.2102 67.1466 79.8119L80.3003 63.8824H67.3987C66.8627 63.8824 66.4288 63.437 66.4288 62.8871V61.3732C66.4288 60.7958 66.8551 60.3779 67.3987 60.3779H84.1032C84.6657 60.3779 85.073 60.8167 85.073 61.3732V63.5246C85.073 63.9229 84.9559 64.2416 84.6657 64.5995L71.4726 80.5681H84.1999C84.7433 80.5681 85.1697 81.0069 85.1697 81.5647V83.0774C85.1697 83.6273 84.7357 84.0727 84.1999 84.0727H84.1808Z" fill="#1D1D1B"/>
<path fill-rule="evenodd" clip-rule="evenodd" d="M28.9839 90.7631C27.5673 90.7631 26.7922 90.4052 26.3849 90.1661C25.802 89.8069 24.7355 88.9318 23.7847 86.3233C22.1009 81.4196 21.266 76.2497 21.3208 71.0509V71.0313C21.359 65.0174 22.2715 59.8997 23.7847 55.7185C24.7736 53.1308 25.802 52.2139 26.3849 51.8756C26.7922 51.6169 27.5673 51.2786 28.9648 51.2786C29.5082 51.2786 30.1293 51.3388 30.8662 51.4575C35.1145 52.1747 39.7905 53.9068 44.8344 56.8732C49.2049 59.4386 53.0943 62.7825 56.3207 66.7495C58.0083 68.94 58.2018 70.3338 58.2018 71.0104C58.2018 71.7079 58.0083 73.1017 56.3207 75.2726C53.0943 79.2396 49.2049 82.5835 44.8344 85.1477H44.8153C40.521 87.8058 35.7967 89.6475 30.8662 90.5841C30.1293 90.703 29.5082 90.7435 28.9839 90.7435" fill="#FF6900"/>
</g>
</g>
</g>
</g>
</g>
<defs>
<clipPath id="clip0_11_604">
<rect width="231.818" height="136.364" fill="white" transform="translate(0.863647)"/>
</clipPath>
<clipPath id="clip1_11_604">
<rect width="231.818" height="136.364" fill="white" transform="translate(0.863647)"/>
</clipPath>
<clipPath id="clip2_11_604">
<rect width="218.182" height="136.364" fill="white" transform="translate(7.68176)"/>
</clipPath>
</defs>
</svg>
