<svg width="233" height="137" viewBox="0 0 233 137" fill="none" xmlns="http://www.w3.org/2000/svg">
<g clip-path="url(#clip0_11_618)">
<g clip-path="url(#clip1_11_618)">
<g clip-path="url(#clip2_11_618)">
<path d="M212.318 0H21.4091C13.8779 0 7.77271 6.10521 7.77271 13.6364V122.727C7.77271 130.258 13.8779 136.364 21.4091 136.364H212.318C219.849 136.364 225.955 130.258 225.955 122.727V13.6364C225.955 6.10521 219.849 0 212.318 0Z" fill="white"/>
<mask id="mask0_11_618" style="mask-type:luminance" maskUnits="userSpaceOnUse" x="21" y="13" width="192" height="110">
<path d="M212.318 13.6364H21.4092V122.727H212.318V13.6364Z" fill="white"/>
</mask>
<g mask="url(#mask0_11_618)">
<mask id="mask1_11_618" style="mask-type:luminance" maskUnits="userSpaceOnUse" x="21" y="-86" width="192" height="311">
<path d="M212.318 -85.1195H21.4092V224.928H212.318V-85.1195Z" fill="white"/>
</mask>
<g mask="url(#mask1_11_618)">
<mask id="mask2_11_618" style="mask-type:luminance" maskUnits="userSpaceOnUse" x="21" y="28" width="192" height="84">
<path d="M212.318 28.5646H21.4092V111.244H212.318V28.5646Z" fill="white"/>
</mask>
<g mask="url(#mask2_11_618)">
<path d="M27.3369 87.3288L21.509 52.4424H25.331L29.8085 79.2386L34.6068 52.4402L38.1704 52.4424L42.9851 79.3792L47.4829 52.4505L51.3049 52.4402L45.4745 87.3227L41.0442 87.3166L36.3899 61.2621L31.7317 87.3227L27.3369 87.3288Z" fill="#BE11A5"/>
<path d="M53.9407 52.461H57.5794V87.3063H53.9407V52.461Z" fill="#BE11A5"/>
<path d="M65.3585 81.841H74.2167V87.3061H61.7949V52.4609H65.3585V81.841Z" fill="#BE11A5"/>
<path d="M85.4074 52.5023C88.3946 52.5023 90.8788 54.1889 92.8351 57.5249C94.818 60.8611 95.8222 65.0013 95.8222 69.9042C95.8222 74.7678 94.818 78.9059 92.8351 82.2834C90.8788 85.6195 88.3946 87.3061 85.4074 87.3061H76.8508V52.4609H85.4074V52.5023ZM85.4074 81.8803C87.4654 81.8803 89.1467 80.7559 90.4016 78.5049C91.7061 76.2539 92.3591 73.3602 92.3591 69.9434C92.3591 66.4482 91.7061 63.635 90.4016 61.384C89.1212 59.1331 87.44 58.0066 85.4074 58.0066H80.4399V81.8803H85.4074Z" fill="#BE11A5"/>
<path d="M115.017 77.3515C115.017 80.2081 114.391 82.5809 113.111 84.4703C111.831 86.3594 110.326 87.3248 108.469 87.3248H99.1589V52.4609H107.791C109.572 52.4609 111.078 53.4261 112.308 55.2347C113.562 57.0848 114.164 59.377 114.164 62.1117C114.164 65.1687 113.412 67.5002 111.956 69.2304C113.864 70.8384 115.017 73.7322 115.017 77.3515ZM102.747 57.8495V67.0187H107.816C109.397 67.0187 110.601 65.0075 110.601 62.434C110.601 59.8607 109.397 57.8495 107.816 57.8495H102.747ZM108.493 81.9361C110.149 81.9361 111.455 79.805 111.455 77.0705C111.455 74.3358 110.149 72.2048 108.493 72.2048H102.747V81.9774H108.493V81.9361Z" fill="#BE11A5"/>
<path d="M121.969 81.8555H131.605V87.3248H118.406V52.461H131.455V57.9303H121.969V66.9774H130.678V72.4073H121.969V81.8555Z" fill="#BE11A5"/>
<path d="M147.214 87.3248L142.596 74.6169H138.38V87.3248H134.817V52.4609H143.524C145.481 52.4609 147.138 53.546 148.467 55.7577C149.823 57.8888 150.525 60.5428 150.525 63.6805C150.525 68.1039 148.793 72.1655 146.209 73.7736L151.152 87.3248H147.214ZM138.38 57.8495V69.5114H143.5C145.406 69.5114 146.911 66.938 146.911 63.6805C146.911 60.4643 145.381 57.8495 143.5 57.8495H138.38Z" fill="#BE11A5"/>
<path d="M166.259 87.3248L161.667 74.6108H157.451V87.3248H153.888V52.4424H162.595C164.553 52.4424 166.21 53.5297 167.539 55.7413C168.893 57.8745 169.597 60.5304 169.597 63.6682C169.597 68.0936 167.865 72.1573 165.281 73.7675L170.224 87.3248H166.259ZM157.451 57.8352V69.5013H162.571C164.478 69.5013 165.983 66.9278 165.983 63.6682C165.983 60.4498 164.453 57.8352 162.571 57.8352H157.451Z" fill="#BE11A5"/>
<path d="M172.834 52.4466H176.397V87.3249H172.834V52.4466Z" fill="#BE11A5"/>
<path d="M184.175 81.8555H193.814V87.3248H180.612V52.4609H193.661V57.9301H184.175V66.9773H192.884V72.4073H184.175V81.8555Z" fill="#BE11A5"/>
<path d="M196.297 79.3897L199.383 76.496C200.261 80.4336 202.043 82.3641 204.777 82.3641C207.488 82.3641 208.818 80.5142 208.818 77.7816C208.818 76.3348 208.442 75.2909 207.739 74.5675C207.036 73.8026 205.732 72.9594 203.875 72.0746C201.791 71.0702 200.763 70.4274 199.307 68.8998C197.903 67.2917 197.2 65.0015 197.2 61.8659C197.2 58.7716 197.876 56.3594 199.257 54.5508C200.613 52.703 202.268 51.8182 204.201 51.8182C207.689 51.8182 210.374 54.712 211.78 59.495L208.767 62.2689C207.863 59.0527 206.333 57.4053 204.201 57.4053C202.117 57.4053 200.787 59.092 200.787 61.7459C200.787 64.3173 201.842 65.5244 205.18 67.1718C206.007 67.6142 206.61 67.9345 206.985 68.1764C207.387 68.3769 207.914 68.7386 208.592 69.1809C209.295 69.6232 209.847 70.1462 210.173 70.5886C211.328 72.0354 212.556 74.4062 212.406 77.7423C212.406 80.876 211.703 83.408 210.273 85.2579C208.868 87.1059 207.011 87.9905 204.704 87.9905C200.487 87.9512 197.426 84.7349 196.297 79.3897Z" fill="#BE11A5"/>
</g>
</g>
</g>
</g>
</g>
</g>
<defs>
<clipPath id="clip0_11_618">
<rect width="231.818" height="136.364" fill="white" transform="translate(0.95459)"/>
</clipPath>
<clipPath id="clip1_11_618">
<rect width="231.818" height="136.364" fill="white" transform="translate(0.95459)"/>
</clipPath>
<clipPath id="clip2_11_618">
<rect width="218.182" height="136.364" fill="white" transform="translate(7.77271)"/>
</clipPath>
</defs>
</svg>
