<svg width="232" height="137" viewBox="0 0 232 137" fill="none" xmlns="http://www.w3.org/2000/svg">
<g clip-path="url(#clip0_11_707)">
<g clip-path="url(#clip1_11_707)">
<g clip-path="url(#clip2_11_707)">
<path d="M221.326 3.78906H10.5826C4.76307 3.78906 0.0454102 8.50672 0.0454102 14.3263V123.913C0.0454102 129.733 4.76307 134.45 10.5826 134.45H221.326C227.146 134.45 231.864 129.733 231.864 123.913V14.3263C231.864 8.50672 227.146 3.78906 221.326 3.78906Z" fill="white"/>
<mask id="mask0_11_707" style="mask-type:luminance" maskUnits="userSpaceOnUse" x="29" y="20" width="175" height="97">
<path d="M203.413 20.874H29.5497V116.762H203.413V20.874Z" fill="white"/>
</mask>
<g mask="url(#mask0_11_707)">
<mask id="mask1_11_707" style="mask-type:luminance" maskUnits="userSpaceOnUse" x="29" y="-17" width="175" height="169">
<path d="M203.413 -16.4848H29.5497V151.631H203.413V-16.4848Z" fill="white"/>
</mask>
<g mask="url(#mask1_11_707)">
<path d="M44.1792 38.6209C44.1792 41.0126 41.9457 42.9516 39.1905 42.9516C36.4353 42.9516 34.2018 41.0126 34.2018 38.6209C34.2018 36.2292 36.4353 34.2902 39.1905 34.2902C41.9457 34.2902 44.1792 36.2292 44.1792 38.6209Z" fill="#FF4200"/>
<path d="M31.9305 49.4748L34.9916 44.8706C34.9916 44.8706 39.3 48.104 40.6039 49.2013C41.9079 50.2975 44.233 52.1613 44.1751 55.175C44.1183 58.1899 43.2119 60.8215 42.4747 62.6304C41.7375 64.4393 36.9192 73.976 36.9192 73.976L29.5497 69.5366C29.5497 69.5366 36.6375 63.1975 39.3567 59.3409C40.2075 58.135 41.2275 54.9565 38.3368 53.3112C35.4448 51.667 31.9305 49.4748 31.9305 49.4748Z" fill="#FF4200"/>
<path d="M41.3977 46.7331C41.3977 46.7331 45.4221 44.2125 49.3908 33.6873C50.5244 34.0706 56.2491 35.5511 56.2491 35.5511L54.3784 38.8944C54.3784 38.8944 62.9394 36.3738 70.3077 36.3738C70.3077 36.3738 74.3333 36.209 77.4512 37.1964C80.5692 38.1827 83.7451 40.2113 84.5379 43.4997C85.3319 46.788 86.1815 57.7514 84.5947 67.6725C84.5947 67.6725 84.2539 69.9757 82.0435 72.0032C79.8332 74.0306 77.1684 75.0181 72.4637 75.0181C67.7578 75.0181 65.2634 74.1405 65.2634 74.1405L66.2278 70.303C66.2278 70.303 69.1185 71.3452 71.3857 71.3452C73.6529 71.3452 75.5805 70.414 76.6016 69.2629C76.6016 69.2629 77.5092 67.9471 77.5648 66.8499C77.6216 65.7538 77.6784 44.7056 77.4512 43.9928C77.2252 43.28 76.9412 40.5946 73.4269 39.9367C69.9125 39.2788 67.1342 39.717 66.2834 39.8818C65.4338 40.0465 60.1054 41.3063 57.4407 42.3475C58.4607 42.677 60.445 43.1702 60.445 43.1702C60.445 43.1702 59.5386 44.9791 57.8939 46.7331C60.1622 46.6793 75.2408 46.7331 75.2408 46.7331V50.0226H65.5474V54.407H75.1272V57.6965H65.5474V64.6576C65.5474 64.6576 67.1342 64.6576 69.4581 62.9036C69.2889 61.6977 69.3445 61.5329 68.7789 59.7789C70.2521 59.4505 73.2008 58.4643 73.2008 58.4643L76.8856 67.2892L71.3857 69.3716L70.3657 65.8087C70.3657 65.8087 68.7221 67.6176 64.6966 68.7686C59.0924 70.3724 55.5143 70.3041 54.5499 70.2492C54.5499 70.2492 51.8295 70.3579 50.1848 69.6451C48.54 68.9334 46.1593 67.2892 46.1593 62.5741C46.1593 60.986 46.5568 59.6701 46.5568 59.6701L53.472 59.724C53.472 59.724 53.1323 62.0821 53.1323 62.684C53.1323 63.2869 52.6223 65.8636 57.6099 65.8087C57.6099 62.3555 57.5543 57.6416 57.5543 57.6416L47.6904 57.5866V54.2972H57.4975V50.1312H55.0031C55.0031 50.1312 52.2827 52.5993 50.7516 54.0787L47.9176 51.6667C47.9176 51.6667 51.1885 48.3784 53.4163 43.6095C52.1123 44.1026 49.8452 45.0889 49.8452 45.0889C49.8452 45.0889 48.2572 47.0626 46.2728 49.0901C44.8564 48.3235 41.3977 46.7331 41.3977 46.7331Z" fill="#FF4200"/>
<path d="M101.147 43.8832L101.091 47.0091H132.893C132.893 47.0091 136.35 44.9805 136.35 43.0069C136.35 41.0331 133.687 40.4851 131.871 40.3763C130.058 40.2666 124.956 40.2117 120.761 40.7048C116.567 41.1979 106.929 42.294 101.147 43.8832ZM93.2667 51.4485V38.0194H101.034V39.7185C101.034 39.7185 112.145 38.2379 113.334 38.2379V34.4004H122.121V37.3065C122.121 37.3065 127.733 36.8124 131.418 36.8124C135.103 36.8124 139.41 37.4153 141.055 37.9633C142.7 38.5125 144.684 39.8822 144.684 42.7334C144.684 45.5835 142.472 48.5434 138.051 51.3936C136.69 50.0778 135.671 49.1465 135.671 49.1465L135.727 50.4062H122.236V54.8466H137.711V58.3547H122.236V68.8238H143.267V73.1545H93.2111V68.8238H113.165V58.4646H99.389V54.8466H113.221V50.4611H101.147V51.4485H93.2667Z" fill="#FF4200"/>
<path d="M137.034 63.671C137.034 66.0325 134.827 67.9468 132.103 67.9468C129.38 67.9468 127.172 66.0325 127.172 63.671C127.172 61.3107 129.38 59.3964 132.103 59.3964C134.827 59.3964 137.034 61.3107 137.034 63.671Z" fill="#FF4200"/>
<path d="M166.224 53.2567C164.184 50.2967 161.293 48.4329 161.293 48.4329C161.293 48.4329 162.824 46.7887 163.617 45.5279C165.262 46.624 167.019 47.83 168.889 49.1457C170.533 46.4603 172.687 41.7463 172.687 41.7463C172.687 41.7463 178.016 44.3219 179.037 44.8161C178.527 46.4054 178.071 46.9535 178.071 46.9535C178.071 46.9535 181.417 49.0908 183.458 50.3516C185.782 46.0759 186.803 41.0885 186.803 41.0885L193.775 45.1995C193.775 45.1995 193.775 42.6777 193.663 41.6365C193.549 37.9638 189.411 37.5255 187.2 37.5804C184.989 37.6343 180.113 38.5118 174.615 39.6628C169.117 40.8139 160.441 44.5416 160.441 44.5416V58.5198C163.503 56.7099 164.694 55.2853 166.224 53.2567ZM160.498 59.9993V73.1H151.769V36.593H160.441V39.7727C160.441 39.7727 168.889 36.6491 174.615 35.4969C180.34 34.3459 183.628 34.3459 184.989 34.3459C186.349 34.3459 191.962 34.9489 195.136 36.0999C198.311 37.2509 200.578 39.553 201.485 42.0199C202.392 44.4866 202.449 51.2281 202.449 54.3528C202.449 57.4775 202.222 67.0702 201.882 68.933C201.542 70.798 200.747 72.9352 199.046 74.1412C197.347 75.3472 194.909 75.0726 192.698 74.6344C190.487 74.1961 187.88 73.2647 185.668 72.1138V68.4948C185.668 68.4948 187.822 69.9754 189.977 69.9754C192.131 69.9754 193.833 68.7145 193.833 65.9193C193.833 63.124 194.115 51.1194 193.889 46.1857C192.472 48.378 189.523 52.2693 188.22 53.695C189.977 54.9008 192.075 56.7658 193.322 58.1903C191.677 59.6149 187.256 63.124 187.256 63.124C187.256 63.124 184.648 59.2865 184.025 58.5737C183.344 59.3414 179.149 63.8358 172.574 67.5634C171.44 65.9742 169.852 64.0004 169.852 64.0004C169.852 64.0004 174.785 62.3563 180.793 54.6274C179.491 53.3116 177.563 50.8998 175.863 49.8036C175.181 50.7361 173.197 52.7636 173.197 52.7636C173.197 52.7636 175.011 54.0794 176.316 56.3814C175.181 57.4775 171.667 60.9855 171.667 60.9855L168.832 56.7658C168.832 56.7658 165.714 59.9444 162.823 61.9718C161.407 60.6572 160.498 59.9993 160.498 59.9993Z" fill="#FF4200"/>
<path d="M33.293 85.5505C33.293 85.5505 34.1368 82.5714 37.4425 82.6913C40.7482 82.8112 43.1835 82.9794 45.0972 82.9794C47.0108 82.9794 51.3597 82.5714 51.8315 82.4033C51.6078 83.292 50.5646 84.9979 49.023 84.9979H45.5191C45.5191 84.9979 44.6996 84.9744 44.6996 85.9595V97.7097C44.6996 97.7097 44.9233 99.3202 46.5379 98.9359C46.0163 100.305 44.6741 101.099 43.1082 101.099C41.5434 101.099 40.0029 100.137 40.0029 98.8148V85.7678C40.0029 85.0943 39.9033 84.9261 38.6607 84.878C37.9154 84.8488 36.4781 84.7816 35.231 84.9261C34.4254 85.0192 33.7902 85.3061 33.293 85.5505Z" fill="#FF4200"/>
<path d="M56.7783 92.5903C55.2135 92.5903 53.9455 94.0328 53.9455 95.8114C53.9455 97.589 55.2135 99.0303 56.7783 99.0303C58.3431 99.0303 59.6123 97.589 59.6123 95.8114C59.6123 94.0328 58.3431 92.5903 56.7783 92.5903ZM50.8646 88.6497C51.0118 88.1532 51.2865 87.3048 52.3795 86.7029C53.5919 86.0371 55.3862 86.0069 56.033 86.0069C56.6798 86.0069 58.7174 86.128 59.3387 86.295C59.9588 86.4631 63.5126 86.9932 63.5126 90.7645V97.877C63.5126 97.877 63.6621 99.3676 65.2281 98.8868C65.0044 100.353 63.5126 101.098 62.4451 101.098C61.3764 101.098 59.6366 100.473 59.6366 99.1996C59.6366 99.1996 58.94 101.337 55.2135 101.313C51.4859 101.29 49.4725 99.1267 49.4725 95.9067C49.4725 92.6867 51.8823 90.453 55.4372 90.453C56.6299 90.453 58.7418 90.9091 59.6366 92.2787C59.6447 90.5976 59.3236 88.309 56.6496 88.068C55.2773 87.984 52.5302 88.0399 50.8646 88.6497Z" fill="#FF4200"/>
<path d="M110.742 92.5903C109.177 92.5903 107.908 94.0328 107.908 95.8114C107.908 97.589 109.177 99.0303 110.742 99.0303C112.307 99.0303 113.574 97.589 113.574 95.8114C113.574 94.0328 112.307 92.5903 110.742 92.5903ZM104.827 88.6497C104.974 88.1532 105.25 87.3048 106.343 86.7029C107.554 86.0371 109.349 86.0069 109.996 86.0069C110.642 86.0069 112.681 86.128 113.3 86.295C113.922 86.4631 117.476 86.9932 117.476 90.7645V97.877C117.476 97.877 117.625 99.3676 119.19 98.8868C118.967 100.353 117.476 101.098 116.407 101.098C115.338 101.098 113.6 100.473 113.6 99.1996C113.6 99.1996 112.903 101.337 109.175 101.313C105.448 101.29 103.435 99.1267 103.435 95.9067C103.435 92.6867 105.845 90.453 109.399 90.453C110.592 90.453 112.705 90.9091 113.6 92.2787C113.608 90.5976 113.286 88.309 110.612 88.068C109.239 87.984 106.493 88.0399 104.827 88.6497Z" fill="#FF4200"/>
<path d="M74.5718 88.2907C72.8841 88.2907 71.5152 90.7104 71.5152 93.6973C71.5152 96.683 72.8841 99.1028 74.5718 99.1028C76.2606 99.1028 77.6283 96.683 77.6283 93.6973C77.6283 90.7104 76.2606 88.2907 74.5718 88.2907ZM82.3249 93.6973C82.3249 97.9842 78.8534 101.459 74.5718 101.459C70.2901 101.459 66.8186 97.9842 66.8186 93.6973C66.8186 89.4103 70.2901 85.9348 74.5718 85.9348C78.8534 85.9348 82.3249 89.4103 82.3249 93.6973Z" fill="#FF4200"/>
<path d="M128.381 88.2907C126.694 88.2907 125.326 90.7104 125.326 93.6973C125.326 96.683 126.694 99.1028 128.381 99.1028C130.07 99.1028 131.438 96.683 131.438 93.6973C131.438 90.7104 130.07 88.2907 128.381 88.2907ZM136.135 93.6973C136.135 97.9842 132.664 101.459 128.381 101.459C124.1 101.459 120.629 97.9842 120.629 93.6973C120.629 89.4103 124.1 85.9348 128.381 85.9348C132.664 85.9348 136.135 89.4103 136.135 93.6973Z" fill="#FF4200"/>
<path d="M168.242 88.2907C166.553 88.2907 165.185 90.7104 165.185 93.6973C165.185 96.683 166.553 99.1028 168.242 99.1028C169.929 99.1028 171.298 96.683 171.298 93.6973C171.298 90.7104 169.929 88.2907 168.242 88.2907ZM175.995 93.6973C175.995 97.9842 172.523 101.459 168.242 101.459C163.959 101.459 160.488 97.9842 160.488 93.6973C160.488 89.4103 163.959 85.9348 168.242 85.9348C172.523 85.9348 175.995 89.4103 175.995 93.6973Z" fill="#FF4200"/>
<path d="M89.8339 90.6423C89.3691 92.0197 89.6172 95.7945 89.8339 96.514C90.0518 97.2325 90.8562 99.0302 92.9322 99.0302C95.0081 99.0302 95.721 97.0531 95.8751 96.3941C96.0304 95.7351 96.3399 93.9968 95.7824 91.001C95.2249 88.0062 92.8708 88.2461 92.8708 88.2461C91.1669 88.2764 90.2987 89.2649 89.8339 90.6423ZM83.6073 83.0334C83.6073 83.0334 83.9168 80.8165 86.5502 80.8165C89.1837 80.8165 89.7111 82.4349 89.7111 82.854V87.8258C89.7111 87.8258 90.8261 86.2086 94.2338 86.2086C97.6416 86.2086 100.77 88.5464 100.77 92.9489C100.77 92.9489 101.483 101.187 94.0484 101.187C91.6317 101.187 90.2373 100.408 89.5245 99.27C89.0597 100.438 87.9748 101.097 86.6743 101.097C85.3738 101.097 83.824 100.318 83.824 98.9103C84.3816 98.9696 85.4352 98.9394 85.4352 97.6214V84.0825C85.4352 84.0825 85.3112 83.0334 83.6073 83.0334Z" fill="#FF4200"/>
<path d="M142.467 99.1797C142.467 100.322 141.497 101.246 140.299 101.246C139.102 101.246 138.131 100.322 138.131 99.1797C138.131 98.0388 139.102 97.1141 140.299 97.1141C141.497 97.1141 142.467 98.0388 142.467 99.1797Z" fill="#FF4200"/>
<path d="M158.297 98.97C158.297 98.97 157.523 98.1619 156.81 98.1921C156.099 98.2213 155.726 98.4612 155.324 98.6113C154.921 98.7604 154.053 99.0597 153.278 99.0597C152.504 99.0597 151.08 98.7604 150.027 97.2025C148.962 95.629 148.972 92.5592 149.313 91.2714C149.655 89.9825 150.46 88.9951 151.388 88.4257C152.317 87.8575 154.084 88.0671 154.704 88.5457C155.324 89.0253 155.603 89.9231 156.749 89.9231C157.896 89.9231 158.545 88.6061 158.36 87.7062C158.36 87.7062 156.501 86.2402 152.66 86.2088C149.066 86.1797 147.021 88.066 146.37 88.8147C145.719 89.5633 144.481 91.3611 144.481 93.7572C144.481 96.1546 145.72 98.5811 147.207 99.6895C148.684 100.79 150.863 101.337 152.473 101.337C154.084 101.337 156.564 100.798 158.297 98.97Z" fill="#FF4200"/>
<path d="M177.444 88.4866C177.444 88.4866 177.786 86.2394 180.45 86.2394C182.649 86.2394 183.238 87.8275 183.238 87.8275C183.238 87.8275 184.601 86.0892 187.452 86.0892C190.302 86.0892 191.603 87.4073 192.129 88.0966C193.057 87.228 194.018 86.1195 196.621 86.1195C199.223 86.1195 201.423 86.9892 201.671 89.5054C201.919 92.0204 201.826 98.1914 201.826 98.1914C201.826 98.1914 202.042 99.3906 203.406 98.8806C203.529 100.229 202.073 101.098 200.618 101.098C199.161 101.098 197.705 100.259 197.705 98.4917V90.0747C197.705 90.0747 197.737 88.1268 195.351 88.1268C192.965 88.1268 192.717 90.2529 192.717 90.913V101.008H188.474V90.1039C188.474 90.1039 188.442 88.0966 186.244 88.0966C184.044 88.0966 183.455 89.864 183.455 90.7327V100.918H179.241V89.7441C179.241 89.7441 179.334 88.5169 177.444 88.4866Z" fill="#FF4200"/>
</g>
</g>
</g>
</g>
</g>
<defs>
<clipPath id="clip0_11_707">
<rect width="231.818" height="136.364" fill="white" transform="translate(0.0454102 0.636353)"/>
</clipPath>
<clipPath id="clip1_11_707">
<rect width="231.818" height="136.364" fill="white" transform="translate(0.0454102 0.636353)"/>
</clipPath>
<clipPath id="clip2_11_707">
<rect width="231.818" height="131.715" fill="white" transform="translate(0.0454102 2.96075)"/>
</clipPath>
</defs>
</svg>
