<svg width="72" height="43" viewBox="0 0 72 43" fill="none" xmlns="http://www.w3.org/2000/svg">
<g clip-path="url(#clip0_17_7528)">
<g clip-path="url(#clip1_17_7528)">
<g clip-path="url(#clip2_17_7528)">
<mask id="mask0_17_7528" style="mask-type:luminance" maskUnits="userSpaceOnUse" x="0" y="0" width="72" height="43">
<path d="M68.5768 0H3.28646C1.71869 0 0.447754 1.27093 0.447754 2.83871V39.7419C0.447754 41.3097 1.71869 42.5806 3.28646 42.5806H68.5768C70.1446 42.5806 71.4155 41.3097 71.4155 39.7419V2.83871C71.4155 1.27093 70.1446 0 68.5768 0Z" fill="white"/>
</mask>
<g mask="url(#mask0_17_7528)">
<path d="M1.67139 42.5455H70.192C70.8678 42.5455 71.4156 42.0446 71.4156 41.4267V1.15342C71.4156 0.535623 70.8678 0.034668 70.192 0.034668H1.67139C0.995675 0.0347946 0.447754 0.535623 0.447754 1.15342V41.4267C0.447754 42.0447 0.995675 42.5455 1.67139 42.5455Z" fill="#C8414B"/>
<path d="M71.4155 8.98462H0.447754V33.5965H71.4155V8.98462Z" fill="#FFD250"/>
<path d="M30.4255 21.2904L31.463 17.0221C31.5585 16.629 31.2314 16.2561 30.7908 16.2561H30.0601C29.6197 16.2561 29.2927 16.629 29.3879 17.0221L30.4255 21.2904Z" fill="#C8414B"/>
<path d="M31.6493 19.0518H29.2021V28.5602H31.6493V19.0518Z" fill="#F5F5F5"/>
<path d="M32.2602 17.9346H28.5894V19.0534H32.2602V17.9346Z" fill="#FAB446"/>
<path d="M32.2613 21.2903H26.1431V22.409H32.2613V21.2903Z" fill="#C8414B"/>
<path d="M32.2602 25.7649L28.5894 24.6463V23.5276L32.2602 24.6463V25.7649Z" fill="#C8414B"/>
<path d="M12.0714 21.2904L13.1089 17.0221C13.2046 16.629 12.8773 16.2561 12.4368 16.2561H11.7061C11.2657 16.2561 10.9386 16.629 11.034 17.0221L12.0714 21.2904Z" fill="#C8414B"/>
<path d="M16.3542 17.9346C15.6786 17.9346 15.1306 18.4356 15.1306 19.0534V26.3249C15.1306 27.6841 16.5182 30.2404 21.2486 30.2404C25.979 30.2404 27.3664 27.6843 27.3664 26.3249V19.0534C27.3664 18.4356 26.8186 17.9346 26.1428 17.9346H16.3542Z" fill="#F5F5F5"/>
<path d="M21.2486 23.5281H15.1306V19.0534C15.1306 18.4356 15.6786 17.9346 16.3542 17.9346H21.2486V23.5281Z" fill="#C8414B"/>
<path d="M21.2488 23.5276H27.3666V26.3243C27.3666 27.869 25.9972 29.1211 24.3076 29.1211C22.6182 29.1211 21.2488 27.869 21.2488 26.3243V23.5276Z" fill="#C8414B"/>
<path d="M15.1306 23.5276H21.2486V26.3243C21.2486 27.869 19.8791 29.1211 18.1896 29.1211C16.5002 29.1211 15.1306 27.869 15.1306 26.3243V23.5276Z" fill="#FAB446"/>
<path d="M20.0251 28.5491V23.5276H18.8015V29.0646C19.2567 28.9803 19.6679 28.7959 20.0251 28.5491Z" fill="#C8414B"/>
<path d="M17.5781 29.0646V23.5276H16.3545V28.5491C16.7119 28.7959 17.1231 28.9803 17.5781 29.0646Z" fill="#C8414B"/>
<path d="M20.0254 21.2903H16.3545V22.409H20.0254V21.2903Z" fill="#FFB441"/>
<path d="M20.0254 19.0518H16.3545V20.1705H20.0254V19.0518Z" fill="#FAB446"/>
<path d="M19.4129 19.717H16.9658V21.7437H19.4129V19.717Z" fill="#FAB446"/>
<path d="M13.2945 19.0518H10.8474V28.5602H13.2945V19.0518Z" fill="#F5F5F5"/>
<path d="M13.9071 28.0032H10.2363V29.1219H13.9071V28.0032Z" fill="#FAB446"/>
<path d="M13.9071 17.9346H10.2363V19.0534H13.9071V17.9346Z" fill="#FAB446"/>
<path d="M14.5193 29.1204H9.625V30.2391H14.5193V29.1204Z" fill="#5064AA"/>
<path d="M32.8729 28.0032H29.2021V29.1219H32.8729V28.0032Z" fill="#FAB446"/>
<path d="M32.8725 29.1204H27.9783V30.2391H32.8725V29.1204Z" fill="#5064AA"/>
<path d="M24.92 16.8159H17.5784V17.9347H24.92V16.8159Z" fill="#FAB446"/>
<path d="M21.8611 13.4602H20.6375V16.8164H21.8611V13.4602Z" fill="#FFB441"/>
<path d="M20.0251 15.1377C19.0129 15.1377 18.1897 14.385 18.1897 13.4597C18.1897 12.5344 19.0131 11.7817 20.0251 11.7817C21.0372 11.7817 21.8603 12.5345 21.8603 13.4597C21.8604 14.385 21.0372 15.1377 20.0251 15.1377ZM20.0251 12.9004C19.6875 12.9004 19.4132 13.151 19.4132 13.4597C19.4132 13.7683 19.6874 14.0191 20.0251 14.0191C20.3627 14.0191 20.6368 13.7685 20.6368 13.4597C20.6368 13.1512 20.3627 12.9004 20.0251 12.9004Z" fill="#F5F5F5"/>
<path d="M22.4721 15.1377C21.4599 15.1377 20.6367 14.385 20.6367 13.4597C20.6367 12.5344 21.4601 11.7817 22.4721 11.7817C23.4842 11.7817 24.3075 12.5345 24.3075 13.4597C24.3075 14.385 23.4841 15.1377 22.4721 15.1377ZM22.4721 12.9004C22.1346 12.9004 21.8602 13.151 21.8602 13.4597C21.8602 13.7683 22.1344 14.0191 22.4721 14.0191C22.8096 14.0191 23.0838 13.7685 23.0838 13.4597C23.0837 13.1512 22.8096 12.9004 22.4721 12.9004Z" fill="#F5F5F5"/>
<path d="M24.9194 16.2564C23.9072 16.2564 23.084 15.5037 23.084 14.5784C23.084 13.653 23.9074 12.9004 24.9194 12.9004C25.9315 12.9004 26.7547 13.6531 26.7547 14.5784C26.7547 15.5037 25.9314 16.2564 24.9194 16.2564ZM24.9194 14.019C24.5818 14.019 24.3076 14.2697 24.3076 14.5784C24.3076 14.887 24.5817 15.1378 24.9194 15.1378C25.2569 15.1378 25.5312 14.8871 25.5312 14.5784C25.5312 14.2697 25.2569 14.019 24.9194 14.019Z" fill="#F5F5F5"/>
<path d="M17.5777 16.2564C16.5657 16.2564 15.7424 15.5037 15.7424 14.5784C15.7424 13.653 16.5658 12.9004 17.5777 12.9004C18.5898 12.9004 19.413 13.6531 19.413 14.5784C19.4132 15.5037 18.5898 16.2564 17.5777 16.2564ZM17.5777 14.019C17.2403 14.019 16.9659 14.2697 16.9659 14.5784C16.9659 14.887 17.2401 15.1378 17.5777 15.1378C17.9153 15.1378 18.1895 14.887 18.1895 14.5783C18.1895 14.2697 17.9153 14.019 17.5777 14.019Z" fill="#F5F5F5"/>
<path d="M24.9192 25.7646V26.324C24.9192 26.6324 24.6448 26.8833 24.3074 26.8833C23.9701 26.8833 23.6955 26.6324 23.6955 26.324V25.7646H24.9192ZM26.1427 24.646H22.4719V26.324C22.4719 27.2494 23.2953 28.0019 24.3073 28.0019C25.3193 28.0019 26.1425 27.2492 26.1425 26.324L26.1427 24.646Z" fill="#FAB446"/>
<path d="M24.3078 22.4096C23.632 22.4096 23.084 21.9085 23.084 21.2908V20.172C23.084 19.5543 23.632 19.0532 24.3078 19.0532C24.9834 19.0532 25.5314 19.5543 25.5314 20.172V21.2908C25.5314 21.9085 24.9834 22.4096 24.3078 22.4096Z" fill="#FFA0D2"/>
<path d="M21.2489 25.2048C22.2625 25.2048 23.0842 24.4535 23.0842 23.5268C23.0842 22.6001 22.2625 21.8489 21.2489 21.8489C20.2352 21.8489 19.4136 22.6001 19.4136 23.5268C19.4136 24.4535 20.2352 25.2048 21.2489 25.2048Z" fill="#5064AA"/>
<path d="M21.8611 11.2217H20.6375V14.5778H21.8611V11.2217Z" fill="#FAB446"/>
<path d="M17.5781 16.8152L16.3545 15.6964L17.0713 15.0411C18.1792 14.0281 19.682 13.459 21.249 13.459C22.816 13.459 24.3186 14.0281 25.4266 15.0411L26.1434 15.6964L24.9197 16.8152H17.5781Z" fill="#C8414B"/>
<path d="M21.2486 16.2563C21.5864 16.2563 21.8603 16.0058 21.8603 15.6968C21.8603 15.388 21.5864 15.1375 21.2486 15.1375C20.9107 15.1375 20.6367 15.388 20.6367 15.6968C20.6367 16.0058 20.9107 16.2563 21.2486 16.2563Z" fill="#FFD250"/>
<path d="M18.8008 16.2563C19.1387 16.2563 19.4126 16.0058 19.4126 15.6968C19.4126 15.388 19.1387 15.1375 18.8008 15.1375C18.4629 15.1375 18.189 15.388 18.189 15.6968C18.189 16.0058 18.4629 16.2563 18.8008 16.2563Z" fill="#FFD250"/>
<path d="M23.695 16.2563C24.0329 16.2563 24.3069 16.0058 24.3069 15.6968C24.3069 15.388 24.0329 15.1375 23.695 15.1375C23.357 15.1375 23.0833 15.388 23.0833 15.6968C23.0833 16.0058 23.357 16.2563 23.695 16.2563Z" fill="#FFD250"/>
<path d="M16.3545 21.2903H10.2363V22.409H16.3545V21.2903Z" fill="#C8414B"/>
<path d="M10.2363 25.7649L13.907 24.6463V23.5276L10.2363 24.6463V25.7649Z" fill="#C8414B"/>
</g>
</g>
</g>
</g>
<defs>
<clipPath id="clip0_17_7528">
<rect width="70.9677" height="42.5806" fill="white" transform="translate(0.447754)"/>
</clipPath>
<clipPath id="clip1_17_7528">
<rect width="70.9677" height="42.5806" fill="white" transform="translate(0.447754)"/>
</clipPath>
<clipPath id="clip2_17_7528">
<rect width="70.9677" height="42.5806" fill="white" transform="translate(0.447754)"/>
</clipPath>
</defs>
</svg>
