<svg width="186" height="62" viewBox="0 0 186 62" fill="none" xmlns="http://www.w3.org/2000/svg">
<rect width="186" height="62" rx="9.3" fill="black"/>
<path d="M38.292 32.1828C38.3108 30.7569 38.6988 29.3589 39.4197 28.1187C40.1407 26.8786 41.1712 25.8366 42.4155 25.0898C41.625 23.9877 40.5822 23.0807 39.37 22.4408C38.1577 21.801 36.8093 21.4459 35.4318 21.4038C32.4935 21.1027 29.645 23.1204 28.1476 23.1204C26.6214 23.1204 24.316 21.4337 21.8336 21.4836C20.2278 21.5342 18.6629 21.9901 17.2913 22.8068C15.9197 23.6234 14.7882 24.7731 14.007 26.1436C10.623 31.8637 13.1471 40.2704 16.3888 44.8941C18.0106 47.1582 19.9061 49.6873 22.3864 49.5976C24.8134 49.4993 25.7199 48.0866 28.6495 48.0866C31.552 48.0866 32.4024 49.5976 34.933 49.5406C37.5373 49.4993 39.1781 47.2664 40.7431 44.9809C41.9084 43.3676 42.8051 41.5846 43.4 39.6979C41.887 39.0732 40.5958 38.0274 39.6874 36.691C38.7791 35.3545 38.2938 33.7867 38.292 32.1828Z" fill="white"/>
<path d="M33.5123 18.363C34.9323 16.6988 35.6319 14.5597 35.4625 12.4C33.293 12.6224 31.2891 13.6347 29.8499 15.2351C29.1462 16.0169 28.6073 16.9265 28.2639 17.9118C27.9205 18.8971 27.7794 19.9388 27.8487 20.9774C28.9338 20.9883 30.0073 20.7586 30.9883 20.3058C31.9693 19.8529 32.8323 19.1887 33.5123 18.363Z" fill="white"/>
<path d="M57.0261 20.2023H60.2344C63.0066 20.2023 64.3553 21.8507 64.3553 24.8409C64.3553 27.8312 62.993 29.5 60.2344 29.5H57.0261V20.2023ZM58.5723 21.5033V28.199H60.0641C61.9032 28.199 62.7682 27.0887 62.7682 24.8614C62.7682 22.6204 61.8964 21.5033 60.0641 21.5033H58.5723ZM69.246 22.1776C71.126 22.1776 72.4406 23.3969 72.4406 25.4199V26.3531C72.4406 28.4442 71.126 29.6226 69.246 29.6226C67.3388 29.6226 66.0378 28.4578 66.0378 26.3599V25.4267C66.0378 23.4582 67.3592 22.1776 69.246 22.1776ZM69.2528 23.3969C68.1766 23.3969 67.5635 24.296 67.5635 25.5016V26.3054C67.5635 27.511 68.1357 28.4033 69.2528 28.4033C70.3563 28.4033 70.9216 27.5178 70.9216 26.3054V25.5016C70.9216 24.296 70.329 23.3969 69.2528 23.3969ZM83.5434 22.3002L81.6498 29.5H80.1104L78.605 24.187H78.5642L77.0861 29.5H75.5398L73.5645 22.3002H75.1925L76.3504 27.7903H76.4185L77.8694 22.3002H79.293L80.7847 27.7903H80.8528L82.0312 22.3002H83.5434ZM85.0419 29.5V22.3002H86.5268V23.5944H86.6018C86.7857 23.0291 87.3102 22.1912 88.7678 22.1912C90.2187 22.1912 91.1927 22.995 91.1927 24.6366V29.5H89.6806V25.0793C89.6806 23.9827 89.1084 23.4786 88.257 23.4786C87.1399 23.4786 86.5541 24.3369 86.5541 25.5016V29.5H85.0419ZM93.4814 29.5V19.7118H94.9936V29.5H93.4814ZM100.184 22.1776C102.064 22.1776 103.379 23.3969 103.379 25.4199V26.3531C103.379 28.4442 102.064 29.6226 100.184 29.6226C98.2767 29.6226 96.9757 28.4578 96.9757 26.3599V25.4267C96.9757 23.4582 98.2971 22.1776 100.184 22.1776ZM100.191 23.3969C99.1145 23.3969 98.5015 24.296 98.5015 25.5016V26.3054C98.5015 27.511 99.0737 28.4033 100.191 28.4033C101.294 28.4033 101.86 27.5178 101.86 26.3054V25.5016C101.86 24.296 101.267 23.3969 100.191 23.3969ZM107.295 29.609C105.899 29.609 104.938 28.7507 104.938 27.4089C104.938 26.1351 105.824 25.2769 107.486 25.2769H109.305V24.6025C109.305 23.7783 108.78 23.3901 107.949 23.3901C107.132 23.3901 106.764 23.7306 106.648 24.2074H105.211C105.299 23.0018 106.205 22.1912 107.997 22.1912C109.536 22.1912 110.81 22.8315 110.81 24.6229V29.5H109.373V28.5668H109.305C108.984 29.1186 108.358 29.609 107.295 29.609ZM107.765 28.4374C108.623 28.4374 109.305 27.8516 109.305 27.0683V26.2918H107.724C106.846 26.2918 106.457 26.7345 106.457 27.3339C106.457 28.0832 107.084 28.4374 107.765 28.4374ZM115.469 22.2049C116.484 22.2049 117.26 22.6544 117.54 23.3833H117.615V19.7118H119.127V29.5H117.655V28.3489H117.581C117.363 29.0777 116.498 29.5954 115.449 29.5954C113.793 29.5954 112.717 28.417 112.717 26.5166V25.2837C112.717 23.3833 113.814 22.2049 115.469 22.2049ZM115.891 23.4446C114.883 23.4446 114.257 24.1938 114.257 25.5016V26.2918C114.257 27.6064 114.89 28.3557 115.925 28.3557C116.947 28.3557 117.615 27.6132 117.615 26.3871V25.2973C117.615 24.187 116.886 23.4446 115.891 23.4446ZM127.43 22.1776C129.31 22.1776 130.625 23.3969 130.625 25.4199V26.3531C130.625 28.4442 129.31 29.6226 127.43 29.6226C125.523 29.6226 124.222 28.4578 124.222 26.3599V25.4267C124.222 23.4582 125.543 22.1776 127.43 22.1776ZM127.437 23.3969C126.361 23.3969 125.748 24.296 125.748 25.5016V26.3054C125.748 27.511 126.32 28.4033 127.437 28.4033C128.54 28.4033 129.106 27.5178 129.106 26.3054V25.5016C129.106 24.296 128.513 23.3969 127.437 23.3969ZM132.573 29.5V22.3002H134.058V23.5944H134.133C134.316 23.0291 134.841 22.1912 136.299 22.1912C137.749 22.1912 138.724 22.995 138.724 24.6366V29.5H137.211V25.0793C137.211 23.9827 136.639 23.4786 135.788 23.4786C134.671 23.4786 134.085 24.3369 134.085 25.5016V29.5H132.573ZM144.575 22.3479V20.5497H146.053V22.3479H147.667V23.5331H146.053V27.3544C146.053 28.1377 146.346 28.3557 147.156 28.3557C147.361 28.3557 147.633 28.342 147.749 28.3284V29.4864C147.626 29.5068 147.122 29.5477 146.782 29.5477C145.031 29.5477 144.554 28.921 144.554 27.477V23.5331H143.458V22.3479H144.575ZM149.574 29.5V19.7118H151.08V23.5944H151.155C151.311 23.0835 151.897 22.1912 153.341 22.1912C154.744 22.1912 155.746 23.0018 155.746 24.6434V29.5H154.24V25.0861C154.24 23.9895 153.634 23.4786 152.776 23.4786C151.693 23.4786 151.08 24.3301 151.08 25.5016V29.5H149.574ZM160.82 29.6226C158.858 29.6226 157.639 28.417 157.639 26.3871V25.4131C157.639 23.3696 158.974 22.1776 160.732 22.1776C162.537 22.1776 163.81 23.4309 163.81 25.4131V26.2577H159.138V26.6119C159.138 27.6473 159.751 28.4102 160.813 28.4102C161.603 28.4102 162.148 28.0355 162.251 27.586H163.729C163.64 28.417 162.761 29.6226 160.82 29.6226ZM159.138 25.27H162.332V25.1747C162.332 24.0917 161.699 23.3696 160.738 23.3696C159.778 23.3696 159.138 24.0917 159.138 25.1747V25.27Z" fill="white"/>
<path d="M59.2194 50.5H56.0725L62.4753 31.9045H65.9356L72.3248 50.5H69.0553L67.4069 45.3505H60.8814L59.2194 50.5ZM64.2191 35.1196H64.0965L61.5762 42.9801H66.7121L64.2191 35.1196ZM81.0098 50.7043C79.1435 50.7043 77.7267 49.8188 76.9638 48.4974H76.8548V55.2817H73.8305V36.1004H76.7731V38.212H76.882C77.6722 36.8361 79.1435 35.9097 81.0779 35.9097C84.3066 35.9097 86.6089 38.3482 86.6089 42.6531V43.9337C86.6089 48.2113 84.3339 50.7043 81.0098 50.7043ZM80.3151 48.2113C82.2359 48.2113 83.5437 46.6719 83.5437 43.7702V42.7621C83.5437 39.9694 82.3176 38.3755 80.2606 38.3755C78.149 38.3755 76.8276 40.092 76.8276 42.7485V43.7702C76.8276 46.4948 78.1626 48.2113 80.3151 48.2113ZM96.3838 50.7043C94.5174 50.7043 93.1006 49.8188 92.3377 48.4974H92.2287V55.2817H89.2044V36.1004H92.147V38.212H92.256C93.0461 36.8361 94.5174 35.9097 96.4519 35.9097C99.6805 35.9097 101.983 38.3482 101.983 42.6531V43.9337C101.983 48.2113 99.7078 50.7043 96.3838 50.7043ZM95.689 48.2113C97.6098 48.2113 98.9177 46.6719 98.9177 43.7702V42.7621C98.9177 39.9694 97.6916 38.3755 95.6345 38.3755C93.5229 38.3755 92.2015 40.092 92.2015 42.7485V43.7702C92.2015 46.4948 93.5366 48.2113 95.689 48.2113ZM108.25 45.3369H111.274C111.411 46.9444 112.827 48.3203 115.457 48.3203C117.868 48.3203 119.298 47.1896 119.298 45.4322C119.298 44.0154 118.345 43.2525 116.356 42.7757L113.304 42.0128C110.907 41.4543 108.754 40.0239 108.754 36.9996C108.754 33.4439 111.86 31.4958 115.47 31.4958C119.08 31.4958 122.091 33.4439 122.159 36.9178H119.189C119.053 35.3375 117.841 34.0297 115.429 34.0297C113.304 34.0297 111.86 35.0378 111.86 36.768C111.86 37.9804 112.705 38.8523 114.435 39.2474L117.473 39.9966C120.266 40.6778 122.391 41.9992 122.391 45.1598C122.391 48.8107 119.435 50.8678 115.225 50.8678C110.048 50.8678 108.318 47.8435 108.25 45.3369ZM126.076 36.1004V32.5993H129.046V36.1004H131.852V38.5253H129.046V46.2087C129.046 47.7754 129.632 48.2113 131.253 48.2113C131.512 48.2113 131.757 48.2113 131.934 48.1841V50.5C131.689 50.5409 131.117 50.5954 130.504 50.5954C127.003 50.5954 126.035 49.342 126.035 46.454V38.5253H124.046V36.1004H126.076ZM140.02 35.8552C144.161 35.8552 146.409 38.7706 146.409 42.694V43.852C146.409 47.9116 144.175 50.7452 140.02 50.7452C135.865 50.7452 133.603 47.9116 133.603 43.852V42.694C133.603 38.7842 135.878 35.8552 140.02 35.8552ZM140.02 38.2801C137.772 38.2801 136.655 40.1192 136.655 42.7349V43.8383C136.655 46.4131 137.758 48.3067 140.02 48.3067C142.281 48.3067 143.371 46.4267 143.371 43.8383V42.7349C143.371 40.1056 142.268 38.2801 140.02 38.2801ZM148.964 50.5V36.1004H151.988V37.994H152.097C152.465 37.0949 153.541 35.8961 155.544 35.8961C155.939 35.8961 156.279 35.9233 156.565 35.9778V38.6479C156.306 38.5798 155.775 38.539 155.271 38.539C152.846 38.539 152.029 40.0375 152.029 41.972V50.5H148.964ZM163.902 50.7452C160.046 50.7452 157.594 48.1977 157.594 43.9337V42.476C157.594 38.4572 159.992 35.8552 163.779 35.8552C167.621 35.8552 169.937 38.5526 169.937 42.6123V43.9882H160.578V44.3288C160.578 46.7537 161.885 48.3612 163.942 48.3612C165.482 48.3612 166.531 47.5983 166.899 46.3586H169.773C169.337 48.6881 167.457 50.7452 163.902 50.7452ZM160.578 41.8766H166.98V41.8494C166.98 39.8059 165.713 38.1984 163.793 38.1984C161.845 38.1984 160.578 39.8059 160.578 41.8494V41.8766Z" fill="white"/>
</svg>
