<svg width="40" height="26" viewBox="0 0 40 26" fill="none" xmlns="http://www.w3.org/2000/svg">
<g clip-path="url(#clip0_653_2800)">
<g clip-path="url(#clip1_653_2800)">
<g clip-path="url(#clip2_653_2800)">
<mask id="mask0_653_2800" style="mask-type:luminance" maskUnits="userSpaceOnUse" x="0" y="0" width="40" height="26">
<path d="M40 0.296875H0V25.2969H40V0.296875Z" fill="white"/>
</mask>
<g mask="url(#mask0_653_2800)">
<path opacity="0.07" d="M36.8421 0.296875H3.15789C1.36842 0.296875 0 1.65104 0 3.42187V22.1719C0 23.9427 1.47368 25.2969 3.15789 25.2969H36.8421C38.6316 25.2969 40 23.9427 40 22.1719V3.42187C40 1.65104 38.5263 0.296875 36.8421 0.296875Z" fill="#263238"/>
<path d="M36.8422 1.33887C38.0001 1.33887 38.9474 2.27637 38.9474 3.4222V22.1722C38.9474 23.318 38.0001 24.2555 36.8422 24.2555H3.158C2.0001 24.2555 1.05273 23.318 1.05273 22.1722V3.4222C1.05273 2.27637 2.0001 1.33887 3.158 1.33887H36.8422Z" fill="white"/>
<path d="M29.789 10.8183H29.4732C29.0522 11.86 28.7364 12.3808 28.4206 13.9433H30.4206C30.1048 12.3808 30.1048 11.6517 29.789 10.8183ZM32.8416 16.9642H31.0522C30.9469 16.9642 30.9469 16.9642 30.8416 16.86L30.6311 15.9225L30.5258 15.7142H27.9995C27.8943 15.7142 27.789 15.7142 27.789 15.9225L27.4732 16.86C27.4732 16.9642 27.3679 16.9642 27.3679 16.9642H25.1574L25.3679 16.4433L28.4206 9.36003C28.4206 8.83919 28.7364 8.63086 29.2627 8.63086H30.8416C30.9469 8.63086 31.0522 8.63086 31.0522 8.83919L32.5258 15.61C32.6311 16.0267 32.7364 16.3392 32.7364 16.7558C32.8416 16.86 32.8416 16.86 32.8416 16.9642ZM18.7364 16.6517L19.1574 14.7767C19.2627 14.7767 19.3679 14.8808 19.3679 14.8808C20.1048 15.1933 20.8416 15.4017 21.5785 15.2975C21.789 15.2975 22.1048 15.1933 22.3153 15.0892C22.8416 14.8808 22.8416 14.36 22.4206 13.9433C22.2101 13.735 21.8943 13.6308 21.5785 13.4225C21.1574 13.2142 20.7364 13.0058 20.4206 12.6933C19.1574 11.6517 19.5785 10.1933 20.3153 9.46419C20.9469 9.04753 21.2627 8.63086 22.1048 8.63086C23.3679 8.63086 24.7364 8.63086 25.3679 8.83919H25.4732C25.3679 9.46419 25.2627 9.98503 25.0522 10.61C24.5258 10.4017 23.9995 10.1933 23.4732 10.1933C23.1574 10.1933 22.8416 10.1933 22.5258 10.2975C22.3153 10.2975 22.2101 10.4017 22.1048 10.5058C21.8943 10.7142 21.8943 11.0267 22.1048 11.235L22.6311 11.6517C23.0522 11.86 23.4732 12.0683 23.789 12.2767C24.3153 12.5892 24.8416 13.11 24.9469 13.735C25.1574 14.6725 24.8416 15.5058 23.9995 16.1308C23.4732 16.5475 23.2627 16.7558 22.5258 16.7558C21.0522 16.7558 19.8943 16.86 18.9469 16.5475C18.8416 16.7558 18.8416 16.7558 18.7364 16.6517ZM15.0522 16.9642C15.1574 16.235 15.1574 16.235 15.2627 15.9225C15.789 13.6308 16.3153 11.235 16.7364 8.94336C16.8416 8.73503 16.8416 8.63086 17.0522 8.63086H18.9469C18.7364 9.88086 18.5258 10.8183 18.2101 11.9642C17.8943 13.5267 17.5785 15.0892 17.1574 16.6517C17.1574 16.86 17.0522 16.86 16.8416 16.86L15.0522 16.9642ZM5.2627 8.83919C5.2627 8.73503 5.47323 8.63086 5.57849 8.63086H9.15744C9.68376 8.63086 10.1048 8.94336 10.2101 9.46419L11.1574 14.0475C11.1574 14.1517 11.1574 14.1517 11.2627 14.2558C11.2627 14.1517 11.3679 14.1517 11.3679 14.1517L13.5785 8.83919C13.4732 8.73503 13.5785 8.63086 13.6837 8.63086H15.8943C15.8943 8.73503 15.8943 8.73503 15.789 8.83919L12.5258 16.4433C12.4206 16.6517 12.4206 16.7558 12.3153 16.86C12.2101 16.9642 11.9995 16.86 11.789 16.86H10.2101C10.1048 16.86 9.99952 16.86 9.99952 16.6517L8.31534 10.1933C8.10481 9.98503 7.78902 9.67253 7.36797 9.56836C6.73639 9.25586 5.57849 9.04753 5.36797 9.04753L5.2627 8.83919Z" fill="#142688"/>
</g>
</g>
</g>
</g>
<defs>
<clipPath id="clip0_653_2800">
<rect width="40" height="26" fill="white"/>
</clipPath>
<clipPath id="clip1_653_2800">
<rect width="40" height="26" fill="white"/>
</clipPath>
<clipPath id="clip2_653_2800">
<rect width="40" height="26" fill="white"/>
</clipPath>
</defs>
</svg>
